{
.appVersion = "1176";
DisplayStrings = (
"Á/Abreve ÂÀ/Amacron/Aogonek ÅÃ/Cacute/Ccaron Ç/Cdotaccent/Dcaron/Ddotbelow É/Ecaron Ê/Edotaccent/Eogonek/Etilde/Gdotaccent Í/Ibreve ÎÏÌ/Kcommaaccent/Lacute/Lcaron/Ncaron/Ncommaaccent/Ndotaccent ÑÓÔÖÒ/Ohungarumlaut/Omacron/Oogonek Õ/Racute/Rcaron/Rcommaaccent/Rdotbelow/Sacute/Scaron/Sdotbelow/Tcaron ÚÙ/Uhungarumlaut/Uogonek/Utilde/Wacute/Wcircumflex/Wdieresis/Wgrave Ý/Ycircumflex/Ydieresis/Ygrave/Ytilde/Zacute/Zcaron á/abreve â/amacron/aogonek å/aringacute/cacute/ccaron ç/ccircumflex/cdotaccent/ddotbelow é/ebreve/ecaron ê/edotaccent/edotbelow è/emacron/eogonek/etilde/fiveeighths/gbreve/gcircumflex/gdotaccent/hcircumflex íì/lcommaaccent/nacute/napostrophe/ncaron/ndotaccent ñóô/oe ò/ohungarumlaut/omacron/oneeighth ½¼/onethird õ/racute/rcaron/sacute/scaron/scircumflex/seveneighths/threeeighths ¾/twothirds ú/ubreve ûüù/uhungarumlaut/umacron/uni015E/uni0162/uni0163/uni01C4/uni01C5/uni01C6/uni0219/uogonek/utilde/wacute/wcircumflex/wdieresis/wgrave ý/ygrave/zacute/zcaron/zdotaccent",
"argument \012A x en\012\012nnonn\012nnenn",
"g/Eogonek/oogonek/aogonek/uogonek g\012\012t",
SO,
g,
"AÁ",
"/Aogonek/Eogonek/Iogonek/Oogonek/Uogonek/aogonek/eogonek/iogonek/oogonek/uogonek"
);
classes = (
{
code = "Euro bar cent colon comma degree divide dollar eight equal five four greater less minus multiply nine numbersign one paragraph percent period periodcentered plus plusminus quotedbl quotesingle section semicolon seven six slash sterling three two underscore yen zero";
name = tnum1;
},
{

glyphs = (
{
glyphname = .notdef;
lastChange = "2018-10-29 20:09:01 +0000";
layers = (
{
layerId = master01;
paths = (
{
closed = 1;
nodes = (
"1012 -458 LINE",
"1012 1707 LINE",
"88 1707 LINE",
"88 -458 LINE"
);
},
{
closed = 1;
nodes = (
"854 1371 LINE",
"854 -313 LINE",
"306 -313 LINE"
);
},
{
closed = 1;
nodes = (
"792 1561 LINE",
"246 -123 LINE",
"246 1561 LINE"
);
}
);
width = 1100;
},
{
layerId = "FA6D65B5-4623-4FAC-A199-3F662257AC29";
paths = (
{
closed = 1;
nodes = (
"1012 -458 LINE",
"1012 1707 LINE",
"88 1707 LINE",
"88 -458 LINE"
);
},
{
closed = 1;
nodes = (
"854 1371 LINE",
"854 -313 LINE",
"306 -313 LINE"
);
},
{
closed = 1;
nodes = (
"792 1561 LINE",
"246 -123 LINE",
"246 1561 LINE"
);
}
);
width = 1100;
}
);
},
{
glyphname = A;
lastChange = "2018-10-29 20:09:01 +0000";
layers = (
{
anchors = (
{
name = bottom;
position = "{1052, 0}";
},
{
name = topcap;
position = "{642, 1461}";
}
);
layerId = master01;
paths = (
{
closed = 1;
nodes = (
"928 176 LINE SMOOTH",
"943 134 OFFCURVE",
"947 114 OFFCURVE",
"947 99 CURVE SMOOTH",
"947 62 OFFCURVE",
"928 48 OFFCURVE",
"766 40 CURVE",
"766 0 LINE",
"1325 0 LINE",
"1325 40 LINE",
"1202 49 OFFCURVE",
"1176 67 OFFCURVE",
"1146 148 CURVE SMOOTH",
"681 1390 LINE",
"509 1295 LINE",
"554 1192 LINE",
"213 236 LINE SMOOTH",
"169 113 OFFCURVE",
"144 69 OFFCURVE",
"-42 40 CURVE",
"-42 0 LINE",
"452 0 LINE",
"452 40 LINE",
"334 58 OFFCURVE",
"271 86 OFFCURVE",
"271 150 CURVE SMOOTH",
"271 171 OFFCURVE",
"278 197 OFFCURVE",
"290 232 CURVE SMOOTH",
"593 1081 LINE",
"600 1081 LINE"
);
},
{
closed = 1;
nodes = (
"838 498 LINE",
"838 568 LINE",
"363 568 LINE",
"363 498 LINE"
);
}
);
width = 1309;
},
{
anchors = (
{
name = bottom;
position = "{1078, 0}";
},
{
name = topcap;
position = "{642, 1461}";
}
);
layerId = "FA6D65B5-4623-4FAC-A199-3F662257AC29";
paths = (
{
closed = 1;
nodes = (
"848 201 LINE SMOOTH",
"859 172 OFFCURVE",
"864 148 OFFCURVE",
"864 130 CURVE SMOOTH",
"864 83 OFFCURVE",
"820 69 OFFCURVE",
"692 65 CURVE",
"692 0 LINE",
"1417 0 LINE",
"1417 65 LINE",
"1288 74 OFFCURVE",
"1260 92 OFFCURVE",
"1227 172 CURVE SMOOTH",
"723 1390 LINE",
"461 1290 LINE",
"542 1109 LINE",
"209 260 LINE SMOOTH",
"153 118 OFFCURVE",
"130 93 OFFCURVE",
"-35 65 CURVE",
"-35 0 LINE",
"510 0 LINE",
"510 65 LINE",
"364 86 OFFCURVE",
"312 114 OFFCURVE",
"312 174 CURVE SMOOTH",
"312 197 OFFCURVE",
"319 224 OFFCURVE",
"331 257 CURVE SMOOTH",
"581 908 LINE",
"588 908 LINE"
);
},
{
closed = 1;
nodes = (
"891 391 LINE",
"891 491 LINE",
"324 491 LINE",
"324 391 LINE"
);
}
);
width = 1375;
}
);
leftKerningGroup = A;
rightKerningGroup = A;
unicode = 0041;
},
{
glyphname = AE;
lastChange = "2018-10-29 20:09:01 +0000";
layers = (
{
layerId = master01;
paths = (
{
closed = 1;
nodes = (
"454 0 LINE",
"454 40 LINE",
"345 58 OFFCURVE",
"297 77 OFFCURVE",
"297 127 CURVE SMOOTH",
"297 153 OFFCURVE",
"310 187 OFFCURVE",
"334 232 CURVE SMOOTH",
"480 514 LINE",
"829 514 LINE",
"829 74 LINE",
"679 40 LINE",
"679 0 LINE",
"1651 0 LINE",
"1716 412 LINE",
"1658 412 LINE",
"1619 297 OFFCURVE",
"1580 185 OFFCURVE",
"1510 70 CURVE",
"1014 70 LINE",
"1014 646 LINE",
"1329 646 LINE",
"1362 576 OFFCURVE",
"1383 505 OFFCURVE",
"1394 435 CURVE",
"1436 435 LINE",
"1436 928 LINE",
"1394 928 LINE",
"1382 857 OFFCURVE",
"1362 787 OFFCURVE",
"1329 716 CURVE",
"1014 716 LINE",
"1014 1285 LINE",
"1519 1285 LINE",
"1577 1184 OFFCURVE",
"1617 1068 OFFCURVE",
"1646 968 CURVE",
"1688 968 LINE",
"1658 1355 LINE",
"662 1355 LINE",
"662 1315 LINE",
"811 1285 LINE",
"259 236 LINE SMOOTH",
"192 109 OFFCURVE",
"151 69 OFFCURVE",
"-39 40 CURVE",
"-39 0 LINE"
);
},
{
closed = 1;
nodes = (
"820 1174 LINE",
"827 1174 LINE",
"827 584 LINE",
"517 584 LINE"
);
}
);
width = 1811;
},
{
layerId = "FA6D65B5-4623-4FAC-A199-3F662257AC29";
paths = (
{
closed = 1;
nodes = (
"479 0 LINE",
"479 65 LINE",
"384 79 OFFCURVE",
"343 106 OFFCURVE",
"343 155 CURVE SMOOTH",
"343 181 OFFCURVE",
"357 215 OFFCURVE",
"378 257 CURVE SMOOTH",
"507 507 LINE",
"861 507 LINE",
"861 99 LINE",
"711 65 LINE",
"711 0 LINE",
"1779 0 LINE",
"1853 412 LINE",
"1762 412 LINE",
"1721 297 OFFCURVE",
"1677 204 OFFCURVE",
"1602 100 CURVE",
"1163 100 LINE",
"1163 669 LINE",
"1385 669 LINE",
"1424 604 OFFCURVE",
"1448 540 OFFCURVE",
"1461 470 CURVE",
"1535 470 LINE",
"1535 963 LINE",
"1461 963 LINE",
"1448 892 OFFCURVE",
"1424 829 OFFCURVE",
"1385 764 CURVE",
"1163 764 LINE",
"1163 1255 LINE",
"1612 1255 LINE",
"1672 1163 OFFCURVE",
"1720 1061 OFFCURVE",
"1748 968 CURVE",
"1822 968 LINE",
"1788 1355 LINE",
"676 1355 LINE",
"676 1308 LINE",
"785 1276 LINE",
"250 260 LINE SMOOTH",
"180 127 OFFCURVE",
"132 92 OFFCURVE",
"-48 65 CURVE",
"-48 0 LINE"
);
},
{
closed = 1;
nodes = (
"854 1174 LINE",
"861 1174 LINE",
"861 602 LINE",
"556 602 LINE"
);
}
);
width = 1924;
}
);
leftKerningGroup = AE;
rightKerningGroup = E;
unicode = 00C6;
},
{
glyphname = Aringacute;
lastChange = "2018-10-29 20:09:01 +0000";
layers = (
{
components = (
{
name = A;
}
);
layerId = master01;
paths = (
{
closed = 1;
nodes = (
"532 1482 LINE",
"551 1468 OFFCURVE",
"577 1461 OFFCURVE",
"605 1461 CURVE SMOOTH",
"665 1461 OFFCURVE",
"711 1498 OFFCURVE",
"725 1552 CURVE",
"804 1575 OFFCURVE",
"820 1609 OFFCURVE",
"820 1644 CURVE SMOOTH",
"820 1686 OFFCURVE",
"778 1705 OFFCURVE",
"743 1705 CURVE SMOOTH",
"718 1705 OFFCURVE",
"699 1698 OFFCURVE",
"678 1686 CURVE",
"656 1700 OFFCURVE",
"632 1707 OFFCURVE",
"605 1707 CURVE SMOOTH",
"535 1707 OFFCURVE",
"482 1654 OFFCURVE",
"482 1584 CURVE SMOOTH",
"482 1570 OFFCURVE",
"484 1558 OFFCURVE",
"488 1545 CURVE",
"412 1489 LINE",
"431 1452 LINE"
);
},
{
closed = 1;
nodes = (
"568 1522 OFFCURVE",
"544 1547 OFFCURVE",
"544 1584 CURVE SMOOTH",
"544 1621 OFFCURVE",
"568 1646 OFFCURVE",
"605 1646 CURVE SMOOTH",
"642 1646 OFFCURVE",
"667 1621 OFFCURVE",
"667 1584 CURVE SMOOTH",
"667 1547 OFFCURVE",
"642 1522 OFFCURVE",
"605 1522 CURVE SMOOTH"
);
}
);
width = 1309;
},
{
components = (
{
name = A;
}
);
layerId = "FA6D65B5-4623-4FAC-A199-3F662257AC29";
paths = (
{
closed = 1;
nodes = (
"521 1482 LINE",
"540 1468 OFFCURVE",
"567 1461 OFFCURVE",
"595 1461 CURVE SMOOTH",
"655 1461 OFFCURVE",
"700 1498 OFFCURVE",
"715 1552 CURVE",
"794 1575 OFFCURVE",
"810 1609 OFFCURVE",
"810 1644 CURVE SMOOTH",
"810 1686 OFFCURVE",
"767 1705 OFFCURVE",
"732 1705 CURVE SMOOTH",
"708 1705 OFFCURVE",
"688 1698 OFFCURVE",
"667 1686 CURVE",
"646 1700 OFFCURVE",
"621 1707 OFFCURVE",
"595 1707 CURVE SMOOTH",
"524 1707 OFFCURVE",
"472 1654 OFFCURVE",
"472 1584 CURVE SMOOTH",
"472 1570 OFFCURVE",
"473 1558 OFFCURVE",
"477 1545 CURVE",
"401 1489 LINE",
"421 1452 LINE"
);
},
{
closed = 1;
nodes = (
"574 1549 OFFCURVE",
"560 1563 OFFCURVE",
"560 1584 CURVE SMOOTH",
"560 1605 OFFCURVE",
"574 1619 OFFCURVE",
"595 1619 CURVE SMOOTH",
"616 1619 OFFCURVE",
"630 1605 OFFCURVE",
"630 1584 CURVE SMOOTH",
"630 1563 OFFCURVE",
"616 1549 OFFCURVE",
"595 1549 CURVE SMOOTH"
);
}
);
width = 1375;
}
);
leftKerningGroup = A;
rightKerningGroup = A;
unicode = 01FA;
},
{
glyphname = B;
lastChange = "2018-10-29 20:09:01 +0000";
layers = (
{
layerId = master01;
paths = (
{
closed = 1;
nodes = (
"86 1315 LINE",
"236 1281 LINE",
"236 74 LINE",
"86 40 LINE",
"86 0 LINE",
"637 0 LINE SMOOTH",
"829 0 OFFCURVE",
"936 26 OFFCURVE",
"1017 92 CURVE SMOOTH",
"1091 153 OFFCURVE",
"1135 252 OFFCURVE",
"1135 359 CURVE SMOOTH",
"1135 551 OFFCURVE",
"996 695 OFFCURVE",
"785 718 CURVE",
"785 725 LINE",
"972 764 OFFCURVE",
"1075 873 OFFCURVE",
"1075 1026 CURVE SMOOTH",
"1075 1130 OFFCURVE",
"1026 1225 OFFCURVE",
"943 1283 CURVE SMOOTH",
"871 1332 OFFCURVE",
"769 1355 OFFCURVE",
"607 1355 CURVE SMOOTH",
"86 1355 LINE"
);
},
{
closed = 1;
nodes = (
"572 1285 LINE SMOOTH",
"700 1285 OFFCURVE",
"762 1267 OFFCURVE",
"813 1214 CURVE SMOOTH",
"859 1167 OFFCURVE",
"878 1114 OFFCURVE",
"878 1031 CURVE SMOOTH",
"878 871 OFFCURVE",
"806 774 OFFCURVE",
"678 760 CURVE SMOOTH",
"639 757 OFFCURVE",
"598 755 OFFCURVE",
"530 755 CURVE SMOOTH",
"421 755 LINE",
"421 1285 LINE"
);
},
{
closed = 1;
nodes = (
"817 685 OFFCURVE",
"931 586 OFFCURVE",
"931 375 CURVE SMOOTH",
"931 164 OFFCURVE",
"818 67 OFFCURVE",
"576 67 CURVE SMOOTH",
"456 67 OFFCURVE",
"421 90 OFFCURVE",
"421 172 CURVE SMOOTH",
"421 685 LINE",
"570 685 LINE"
);
}
);
width = 1230;
},
{
layerId = "FA6D65B5-4623-4FAC-A199-3F662257AC29";
paths = (
{
closed = 1;
nodes = (
"74 1290 LINE",
"224 1253 LINE",
"224 104 LINE",
"74 65 LINE",
"74 0 LINE",
"699 0 LINE SMOOTH",
"910 0 OFFCURVE",
"1028 26 OFFCURVE",
"1118 92 CURVE SMOOTH",
"1199 153 OFFCURVE",
"1248 252 OFFCURVE",
"1248 359 CURVE SMOOTH",
"1248 565 OFFCURVE",
"1091 713 OFFCURVE",
"854 736 CURVE",
"854 743 LINE",
"1063 780 OFFCURVE",
"1181 884 OFFCURVE",
"1181 1026 CURVE SMOOTH",
"1181 1130 OFFCURVE",
"1128 1225 OFFCURVE",
"1037 1283 CURVE SMOOTH",
"957 1332 OFFCURVE",
"845 1355 OFFCURVE",
"667 1355 CURVE SMOOTH",
"74 1355 LINE"
);
},
{
closed = 1;
nodes = (
"558 1260 LINE SMOOTH",
"658 1260 OFFCURVE",
"734 1241 OFFCURVE",
"785 1200 CURVE SMOOTH",
"832 1162 OFFCURVE",
"859 1102 OFFCURVE",
"859 1019 CURVE SMOOTH",
"859 875 OFFCURVE",
"780 788 OFFCURVE",
"639 774 CURVE SMOOTH",
"616 771 OFFCURVE",
"588 769 OFFCURVE",
"546 769 CURVE SMOOTH",
"526 769 LINE",
"526 1260 LINE"
);
},
{
closed = 1;
nodes = (
"813 674 OFFCURVE",
"917 581 OFFCURVE",
"917 375 CURVE SMOOTH",
"917 181 OFFCURVE",
"836 93 OFFCURVE",
"662 93 CURVE SMOOTH",
"558 93 OFFCURVE",
"526 116 OFFCURVE",
"526 199 CURVE SMOOTH",
"526 674 LINE",
"591 674 LINE"
);
}
);
width = 1322;
}
);
leftKerningGroup = I;
unicode = 0042;
},
{
glyphname = C;
lastChange = "2018-10-29 20:09:01 +0000";
layers = (
{
anchors = (
{
name = bottom;
position = "{762, 0}";
},
{
name = topcap;
position = "{762, 1461}";
}
);
layerId = master01;
paths = (
{
closed = 1;
nodes = (
"99 262 OFFCURVE",
"357 -18 OFFCURVE",
"736 -18 CURVE SMOOTH",
"880 -18 OFFCURVE",
"998 23 OFFCURVE",
"1123 116 CURVE",
"1204 0 LINE",
"1246 0 LINE",
"1246 461 LINE",
"1199 461 LINE",
"1181 368 OFFCURVE",
"1149 289 OFFCURVE",
"1105 227 CURVE SMOOTH",
"1030 118 OFFCURVE",
"915 62 OFFCURVE",
"774 62 CURVE SMOOTH",
"486 62 OFFCURVE",
"320 289 OFFCURVE",
"320 681 CURVE SMOOTH",
"320 1074 OFFCURVE",
"482 1295 OFFCURVE",
"773 1295 CURVE SMOOTH",
"929 1295 OFFCURVE",
"1038 1243 OFFCURVE",
"1121 1109 CURVE SMOOTH",
"1148 1065 OFFCURVE",
"1172 1014 OFFCURVE",
"1193 950 CURVE",
"1246 950 LINE",
"1246 1355 LINE",
"1214 1355 LINE",
"1128 1265 LINE",
"1121 1265 LINE",
"1016 1334 OFFCURVE",
"880 1373 OFFCURVE",
"743 1373 CURVE SMOOTH",
"366 1373 OFFCURVE",
"99 1081 OFFCURVE",
"99 669 CURVE SMOOTH"
);
}
);
width = 1362;
},
{
anchors = (
{
name = bottom;
position = "{777, 0}";
},
{
name = topcap;
position = "{775, 1461}";
}
);
layerId = "FA6D65B5-4623-4FAC-A199-3F662257AC29";
paths = (
{
closed = 1;
nodes = (
"79 260 OFFCURVE",
"359 -18 OFFCURVE",
"767 -18 CURVE SMOOTH",
"922 -18 OFFCURVE",
"1051 23 OFFCURVE",
"1188 116 CURVE",
"1260 0 LINE",
"1325 0 LINE",
"1325 488 LINE",
"1246 488 LINE",
"1230 401 OFFCURVE",
"1199 327 OFFCURVE",
"1158 268 CURVE SMOOTH",
"1079 153 OFFCURVE",
"959 88 OFFCURVE",
"815 88 CURVE SMOOTH",
"553 88 OFFCURVE",
"412 297 OFFCURVE",
"412 686 CURVE SMOOTH",
"412 1072 OFFCURVE",
"551 1269 OFFCURVE",
"822 1269 CURVE SMOOTH",
"970 1269 OFFCURVE",
"1081 1211 OFFCURVE",
"1163 1084 CURVE SMOOTH",
"1193 1040 OFFCURVE",
"1218 986 OFFCURVE",
"1241 924 CURVE",
"1325 924 LINE",
"1325 1355 LINE",
"1272 1355 LINE",
"1195 1265 LINE",
"1188 1265 LINE",
"1072 1334 OFFCURVE",
"920 1373 OFFCURVE",
"773 1373 CURVE SMOOTH",
"366 1373 OFFCURVE",
"79 1081 OFFCURVE",
"79 669 CURVE SMOOTH"
);
}
);
width = 1431;
}
);
leftKerningGroup = C;
rightKerningGroup = C;
unicode = 0043;
},
{
glyphname = D;
lastChange = "2018-10-29 20:09:01 +0000";
layers = (
{
anchors = (
{
name = bottom;
position = "{722, 0}";
},
{
name = topcap;
position = "{722, 1461}";
}
);
layerId = master01;
paths = (
{
closed = 1;
nodes = (
"852 0 OFFCURVE",
"963 30 OFFCURVE",
"1065 104 CURVE SMOOTH",
"1228 224 OFFCURVE",
"1325 435 OFFCURVE",
"1325 674 CURVE SMOOTH",
"1325 905 OFFCURVE",
"1236 1105 OFFCURVE",
"1077 1227 CURVE SMOOTH",
"954 1320 OFFCURVE",
"804 1355 OFFCURVE",
"524 1355 CURVE SMOOTH",
"86 1355 LINE",
"86 1315 LINE",
"236 1281 LINE",
"236 74 LINE",
"86 40 LINE",
"86 0 LINE",
"676 0 LINE"
);
},
{
closed = 1;
nodes = (
"465 67 OFFCURVE",
"421 92 OFFCURVE",
"421 172 CURVE SMOOTH",
"421 1285 LINE",
"560 1285 LINE SMOOTH",
"757 1285 OFFCURVE",
"866 1250 OFFCURVE",
"956 1156 CURVE SMOOTH",
"1054 1052 OFFCURVE",
"1105 894 OFFCURVE",
"1105 695 CURVE SMOOTH",
"1105 498 OFFCURVE",
"1054 326 OFFCURVE",
"961 209 CURVE SMOOTH",
"876 107 OFFCURVE",
"776 67 OFFCURVE",
"604 67 CURVE SMOOTH"
);
}
);
width = 1426;
},
{
anchors = (
{
name = bottom;
position = "{725, 0}";
},
{
name = topcap;
position = "{722, 1461}";
}
);
layerId = "FA6D65B5-4623-4FAC-A199-3F662257AC29";
paths = (
{
closed = 1;
nodes = (
"924 0 OFFCURVE",
"1052 30 OFFCURVE",
"1169 104 CURVE SMOOTH",
"1348 217 OFFCURVE",
"1464 433 OFFCURVE",
"1464 679 CURVE SMOOTH",
"1464 919 OFFCURVE",
"1355 1113 OFFCURVE",
"1183 1227 CURVE SMOOTH",
"1040 1322 OFFCURVE",
"859 1355 OFFCURVE",
"553 1355 CURVE SMOOTH",
"72 1355 LINE",
"72 1290 LINE",
"224 1257 LINE",
"224 100 LINE",
"72 67 LINE",
"72 0 LINE",
"725 0 LINE"
);
},
{
closed = 1;
nodes = (
"577 95 OFFCURVE",
"526 127 OFFCURVE",
"526 201 CURVE SMOOTH",
"526 1257 LINE",
"685 1257 LINE SMOOTH",
"834 1257 OFFCURVE",
"942 1216 OFFCURVE",
"1012 1130 CURVE SMOOTH",
"1091 1035 OFFCURVE",
"1126 894 OFFCURVE",
"1126 679 CURVE SMOOTH",
"1126 461 OFFCURVE",
"1091 306 OFFCURVE",
"1012 213 CURVE SMOOTH",
"943 132 OFFCURVE",
"843 95 OFFCURVE",
"706 95 CURVE SMOOTH"
);
}
);
width = 1545;
}
);
leftKerningGroup = I;
rightKerningGroup = D;
unicode = 0044;
},
{
glyphname = Dcroat;
lastChange = "2018-10-29 20:09:01 +0000";
layers = (
{
layerId = master01;
paths = (
{
closed = 1;
nodes = (
"854 0 OFFCURVE",
"964 30 OFFCURVE",
"1067 104 CURVE SMOOTH",
"1230 224 OFFCURVE",
"1327 435 OFFCURVE",
"1327 674 CURVE SMOOTH",
"1327 905 OFFCURVE",
"1237 1105 OFFCURVE",
"1079 1227 CURVE SMOOTH",
"956 1320 OFFCURVE",
"806 1355 OFFCURVE",
"526 1355 CURVE SMOOTH",
"88 1355 LINE",
"88 1315 LINE",
"238 1281 LINE",
"238 755 LINE",
"99 755 LINE",
"99 641 LINE",
"238 641 LINE",
"238 74 LINE",
"88 40 LINE",
"88 0 LINE",
"678 0 LINE SMOOTH"
);
},
{
closed = 1;
nodes = (
"466 67 OFFCURVE",
"422 92 OFFCURVE",
"422 172 CURVE SMOOTH",
"422 641 LINE",
"639 641 LINE",
"639 755 LINE",
"422 755 LINE",
"422 1285 LINE",
"561 1285 LINE SMOOTH",
"759 1285 OFFCURVE",
"868 1250 OFFCURVE",
"957 1156 CURVE SMOOTH",
"1056 1052 OFFCURVE",
"1107 894 OFFCURVE",
"1107 695 CURVE SMOOTH",
"1107 498 OFFCURVE",
"1056 326 OFFCURVE",
"963 209 CURVE SMOOTH",
"878 107 OFFCURVE",
"778 67 OFFCURVE",
"605 67 CURVE SMOOTH"
);
}
);
width = 1427;
},
{
layerId = "FA6D65B5-4623-4FAC-A199-3F662257AC29";
paths = (
{
closed = 1;
nodes = (
"924 0 OFFCURVE",
"1052 30 OFFCURVE",
"1169 104 CURVE SMOOTH",
"1348 218 OFFCURVE",
"1464 433 OFFCURVE",
"1464 679 CURVE SMOOTH",
"1464 919 OFFCURVE",
"1355 1112 OFFCURVE",
"1183 1227 CURVE SMOOTH",
"1040 1322 OFFCURVE",
"859 1355 OFFCURVE",
"553 1355 CURVE SMOOTH",
"72 1355 LINE",
"72 1290 LINE",
"224 1257 LINE",
"224 773 LINE",
"92 773 LINE",
"92 623 LINE",
"224 623 LINE",
"224 100 LINE",
"72 67 LINE",
"72 0 LINE",
"725 0 LINE SMOOTH"
);
},
{
closed = 1;
nodes = (
"577 95 OFFCURVE",
"526 127 OFFCURVE",
"526 201 CURVE SMOOTH",
"526 623 LINE",
"773 623 LINE",
"773 773 LINE",
"526 773 LINE",
"526 1257 LINE",
"685 1257 LINE SMOOTH",
"834 1257 OFFCURVE",
"942 1216 OFFCURVE",
"1012 1130 CURVE SMOOTH",
"1091 1035 OFFCURVE",
"1126 894 OFFCURVE",
"1126 679 CURVE SMOOTH",
"1126 461 OFFCURVE",
"1091 306 OFFCURVE",
"1012 213 CURVE SMOOTH",
"943 132 OFFCURVE",
"843 95 OFFCURVE",
"706 95 CURVE SMOOTH"
);
}
);
width = 1545;
}
);
leftKerningGroup = I;
rightKerningGroup = D;
unicode = 0110;
},
{
glyphname = E;
lastChange = "2018-10-29 20:09:01 +0000";
layers = (
{
anchors = (
{
name = bottom;
position = "{630, 0}";
},
{
name = topcap;
position = "{627, 1461}";
}
);
layerId = master01;
paths = (
{
closed = 1;
nodes = (
"736 679 LINE",
"769 609 OFFCURVE",
"790 539 OFFCURVE",
"801 468 CURVE",
"843 468 LINE",
"843 961 LINE",
"801 961 LINE",
"788 891 OFFCURVE",
"769 820 OFFCURVE",
"736 750 CURVE",
"396 750 LINE",
"396 679 LINE"
);
},
{
closed = 1;
nodes = (
"984 1184 OFFCURVE",
"1024 1068 OFFCURVE",
"1052 968 CURVE",
"1095 968 LINE",
"1065 1355 LINE",
"86 1355 LINE",
"86 1315 LINE",
"236 1281 LINE",
"236 74 LINE",
"86 40 LINE",
"86 0 LINE",
"1058 0 LINE",
"1123 412 LINE",
"1065 412 LINE",
"1026 297 OFFCURVE",
"987 185 OFFCURVE",
"917 70 CURVE",
"421 70 LINE",
"421 1285 LINE",
"926 1285 LINE"
);
}
);
width = 1218;
},
{
anchors = (
{
name = bottom;
position = "{680, 0}";
},
{
name = topcap;
position = "{669, 1461}";
}
);
layerId = "FA6D65B5-4623-4FAC-A199-3F662257AC29";
paths = (
{
closed = 1;
nodes = (
"748 669 LINE",
"785 604 OFFCURVE",
"810 535 OFFCURVE",
"824 470 CURVE",
"898 470 LINE",
"898 963 LINE",
"824 963 LINE",
"810 898 OFFCURVE",
"787 829 OFFCURVE",
"748 764 CURVE",
"498 764 LINE",
"498 669 LINE"
);
},
{
closed = 1;
nodes = (
"1035 1163 OFFCURVE",
"1079 1060 OFFCURVE",
"1111 968 CURVE",
"1184 968 LINE",
"1151 1355 LINE",
"74 1355 LINE",
"74 1290 LINE",
"224 1257 LINE",
"224 99 LINE",
"74 65 LINE",
"74 0 LINE",
"1142 0 LINE",
"1216 412 LINE",
"1125 412 LINE",
"1082 308 OFFCURVE",
"1040 204 OFFCURVE",
"964 100 CURVE",
"526 100 LINE",
"526 1255 LINE",
"975 1255 LINE"
);
}
);
width = 1287;
}
);
leftKerningGroup = I;
rightKerningGroup = E;
unicode = 0045;
},
{
glyphname = Eng;
lastChange = "2018-10-29 20:09:01 +0000";
layers = (
{
layerId = master01;
paths = (
{
closed = 1;
nodes = (
"1045 -84 LINE SMOOTH",
"1045 -275 OFFCURVE",
"982 -366 OFFCURVE",
"901 -366 CURVE SMOOTH",
"855 -366 OFFCURVE",
"818 -338 OFFCURVE",
"794 -271 CURVE SMOOTH",
"774 -218 OFFCURVE",
"746 -190 OFFCURVE",
"697 -190 CURVE SMOOTH",
"634 -190 OFFCURVE",
"593 -234 OFFCURVE",
"593 -304 CURVE SMOOTH",
"593 -400 OFFCURVE",
"674 -458 OFFCURVE",
"804 -458 CURVE SMOOTH",
"949 -458 OFFCURVE",
"1088 -378 OFFCURVE",
"1170 -231 CURVE SMOOTH",
"1221 -137 OFFCURVE",
"1230 -72 OFFCURVE",
"1230 273 CURVE",
"1045 273 LINE"
);
},
{
closed = 1;
nodes = (
"79 40 LINE",
"79 0 LINE",
"465 0 LINE",
"465 40 LINE",
"308 74 LINE",
"308 1355 LINE",
"79 1355 LINE",
"79 1315 LINE",
"238 1281 LINE",
"238 74 LINE"
);
},
{
closed = 1;
nodes = (
"1389 1315 LINE",
"1389 1355 LINE",
"1003 1355 LINE",
"1003 1315 LINE",
"1160 1281 LINE",
"1160 211 LINE",
"1230 211 LINE",
"1230 1281 LINE"
);
},
{
closed = 1;
nodes = (
"1197 308 LINE",
"435 1355 LINE",
"268 1355 LINE",
"259 1243 LINE",
"1176 -35 LINE"
);
}
);
width = 1456;
},
{
layerId = "FA6D65B5-4623-4FAC-A199-3F662257AC29";
paths = (
{
closed = 1;
nodes = (
"1031 -76 LINE SMOOTH",
"1031 -266 OFFCURVE",
"975 -357 OFFCURVE",
"905 -357 CURVE SMOOTH",
"862 -357 OFFCURVE",
"832 -324 OFFCURVE",
"806 -245 CURVE SMOOTH",
"783 -181 OFFCURVE",
"750 -136 OFFCURVE",
"678 -136 CURVE SMOOTH",
"607 -136 OFFCURVE",
"551 -181 OFFCURVE",
"551 -269 CURVE SMOOTH",
"551 -384 OFFCURVE",
"658 -458 OFFCURVE",
"848 -458 CURVE SMOOTH",
"1014 -458 OFFCURVE",
"1181 -378 OFFCURVE",
"1274 -231 CURVE",
"1325 -137 OFFCURVE",
"1334 -72 OFFCURVE",
"1334 273 CURVE",
"1031 273 LINE"
);
},
{
closed = 1;
nodes = (
"69 65 LINE",
"69 0 LINE",
"502 0 LINE",
"502 65 LINE",
"347 99 LINE",
"347 1355 LINE",
"70 1355 LINE",
"70 1290 LINE",
"225 1257 LINE",
"225 99 LINE"
);
},
{
closed = 1;
nodes = (
"1491 1290 LINE",
"1491 1355 LINE",
"1058 1355 LINE",
"1058 1290 LINE",
"1213 1257 LINE",
"1213 246 LINE",
"1334 246 LINE",
"1334 1257 LINE"
);
},
{
closed = 1;
nodes = (
"1262 458 LINE",
"547 1355 LINE",
"257 1355 LINE",
"248 1199 LINE",
"1213 -18 LINE"
);
}
);
width = 1544;
}
);
leftKerningGroup = N;
rightKerningGroup = N;
unicode = 014A;
},
{
glyphname = Eth;
lastChange = "2018-10-29 20:09:01 +0000";
layers = (
{
layerId = master01;
paths = (
{
closed = 1;
nodes = (
"854 0 OFFCURVE",
"964 30 OFFCURVE",
"1067 104 CURVE SMOOTH",
"1230 224 OFFCURVE",
"1327 435 OFFCURVE",
"1327 674 CURVE SMOOTH",
"1327 905 OFFCURVE",
"1237 1105 OFFCURVE",
"1079 1227 CURVE SMOOTH",
"956 1320 OFFCURVE",
"806 1355 OFFCURVE",
"526 1355 CURVE SMOOTH",
"88 1355 LINE",
"88 1315 LINE",
"238 1281 LINE",
"238 755 LINE",
"99 755 LINE",
"99 641 LINE",
"238 641 LINE",
"238 74 LINE",
"88 40 LINE",
"88 0 LINE",
"678 0 LINE SMOOTH"
);
},
{
closed = 1;
nodes = (
"466 67 OFFCURVE",
"422 92 OFFCURVE",
"422 172 CURVE SMOOTH",
"422 641 LINE",
"639 641 LINE",
"639 755 LINE",
"422 755 LINE",
"422 1285 LINE",
"561 1285 LINE SMOOTH",
"759 1285 OFFCURVE",
"868 1250 OFFCURVE",
"957 1156 CURVE SMOOTH",
"1056 1052 OFFCURVE",
"1107 894 OFFCURVE",
"1107 695 CURVE SMOOTH",
"1107 498 OFFCURVE",
"1056 326 OFFCURVE",
"963 209 CURVE SMOOTH",
"878 107 OFFCURVE",
"778 67 OFFCURVE",
"605 67 CURVE SMOOTH"
);
}
);
width = 1427;
},
{
layerId = "FA6D65B5-4623-4FAC-A199-3F662257AC29";
paths = (
{
closed = 1;
nodes = (
"924 0 OFFCURVE",
"1052 30 OFFCURVE",
"1169 104 CURVE SMOOTH",
"1348 218 OFFCURVE",
"1464 433 OFFCURVE",
"1464 679 CURVE SMOOTH",
"1464 919 OFFCURVE",
"1355 1112 OFFCURVE",
"1183 1227 CURVE SMOOTH",
"1040 1322 OFFCURVE",
"859 1355 OFFCURVE",
"553 1355 CURVE SMOOTH",
"72 1355 LINE",
"72 1290 LINE",
"224 1257 LINE",
"224 773 LINE",
"92 773 LINE",
"92 623 LINE",
"224 623 LINE",
"224 100 LINE",
"72 67 LINE",
"72 0 LINE",
"725 0 LINE SMOOTH"
);
},
{
closed = 1;
nodes = (
"577 95 OFFCURVE",
"526 127 OFFCURVE",
"526 201 CURVE SMOOTH",
"526 623 LINE",
"773 623 LINE",
"773 773 LINE",
"526 773 LINE",
"526 1257 LINE",
"685 1257 LINE SMOOTH",
"834 1257 OFFCURVE",
"942 1216 OFFCURVE",
"1012 1130 CURVE SMOOTH",
"1091 1035 OFFCURVE",
"1126 894 OFFCURVE",
"1126 679 CURVE SMOOTH",
"1126 461 OFFCURVE",
"1091 306 OFFCURVE",
"1012 213 CURVE SMOOTH",
"943 132 OFFCURVE",
"843 95 OFFCURVE",
"706 95 CURVE SMOOTH"
);
}
);
width = 1545;
}
);
leftKerningGroup = I;
rightKerningGroup = D;
unicode = 00D0;
},
{
glyphname = Euro;
lastChange = "2018-10-29 20:09:01 +0000";
layers = (
{
layerId = master01;
paths = (
{
closed = 1;
nodes = (
"880 -18 OFFCURVE",
"1019 88 OFFCURVE",
"1019 224 CURVE SMOOTH",
"1019 294 OFFCURVE",
"984 333 OFFCURVE",
"922 333 CURVE SMOOTH",
"862 333 OFFCURVE",
"825 292 OFFCURVE",
"808 213 CURVE SMOOTH",
"787 111 OFFCURVE",
"743 55 OFFCURVE",
"669 55 CURVE SMOOTH",
"510 55 OFFCURVE",
"433 259 OFFCURVE",
"433 672 CURVE SMOOTH",
"433 1093 OFFCURVE",
"512 1301 OFFCURVE",
"678 1301 CURVE SMOOTH",
"755 1301 OFFCURVE",
"797 1260 OFFCURVE",
"817 1160 CURVE SMOOTH",
"831 1082 OFFCURVE",
"868 1040 OFFCURVE",
"924 1040 CURVE SMOOTH",
"982 1040 OFFCURVE",
"1019 1081 OFFCURVE",
"1019 1146 CURVE SMOOTH",
"1019 1271 OFFCURVE",
"882 1373 OFFCURVE",
"709 1373 CURVE SMOOTH",
"424 1373 OFFCURVE",
"218 1077 OFFCURVE",
"218 672 CURVE SMOOTH",
"218 269 OFFCURVE",
"419 -18 OFFCURVE",
"700 -18 CURVE SMOOTH {name = hr00;}"
);
},
{
closed = 1;
nodes = (
"873 818 LINE",
"114 818 LINE",
"97 741 LINE",
"855 741 LINE"
);
},
{
closed = 1;
nodes = (
"838 605 LINE",
"79 605 LINE",
"62 528 LINE",
"820 528 LINE"
);
}
);
width = 1125;
},
{
layerId = "FA6D65B5-4623-4FAC-A199-3F662257AC29";
paths = (
{
closed = 1;
nodes = (
"878 -18 OFFCURVE",
"1035 102 OFFCURVE",
"1035 255 CURVE SMOOTH",
"1035 327 OFFCURVE",
"1000 364 OFFCURVE",
"938 364 CURVE SMOOTH",
"847 364 OFFCURVE",
"825 285 OFFCURVE",
"815 245 CURVE SMOOTH",
"796 171 OFFCURVE",
"767 86 OFFCURVE",
"679 86 CURVE SMOOTH",
"570 86 OFFCURVE",
"519 218 OFFCURVE",
"519 658 CURVE SMOOTH",
"519 1142 OFFCURVE",
"581 1267 OFFCURVE",
"699 1267 CURVE SMOOTH",
"774 1267 OFFCURVE",
"803 1216 OFFCURVE",
"824 1126 CURVE SMOOTH",
"836 1072 OFFCURVE",
"862 1007 OFFCURVE",
"940 1007 CURVE SMOOTH",
"998 1007 OFFCURVE",
"1035 1045 OFFCURVE",
"1035 1114 CURVE SMOOTH",
"1035 1257 OFFCURVE",
"880 1373 OFFCURVE",
"695 1373 CURVE SMOOTH",
"400 1373 OFFCURVE",
"197 1077 OFFCURVE",
"197 671 CURVE SMOOTH",
"197 269 OFFCURVE",
"394 -18 OFFCURVE",
"688 -18 CURVE SMOOTH {name = hr00;}"
);
},
{
closed = 1;
nodes = (
"871 836 LINE",
"113 836 LINE",
"95 723 LINE",
"854 723 LINE"
);
},
{
closed = 1;
nodes = (
"836 623 LINE",
"77 623 LINE",
"60 510 LINE",
"818 510 LINE"
);
}
);
width = 1132;
}
);
unicode = 20AC;
},
{
glyphname = Euro.tnum;
lastChange = "2018-10-29 20:14:19 +0000";
layers = (
{
layerId = master01;
paths = (
{
closed = 1;
nodes = (
"818 -18 OFFCURVE",
"957 88 OFFCURVE",
"957 224 CURVE SMOOTH",
"957 294 OFFCURVE",
"922 333 OFFCURVE",
"861 333 CURVE SMOOTH",
"801 333 OFFCURVE",
"764 292 OFFCURVE",
"746 213 CURVE SMOOTH",
"725 111 OFFCURVE",
"681 55 OFFCURVE",
"607 55 CURVE SMOOTH",
"449 55 OFFCURVE",
"371 259 OFFCURVE",
"371 672 CURVE SMOOTH",
"371 1093 OFFCURVE",
"451 1301 OFFCURVE",
"616 1301 CURVE SMOOTH",
"693 1301 OFFCURVE",
"736 1260 OFFCURVE",
"755 1160 CURVE SMOOTH",
"769 1082 OFFCURVE",
"806 1040 OFFCURVE",
"862 1040 CURVE SMOOTH",
"920 1040 OFFCURVE",
"957 1081 OFFCURVE",
"957 1146 CURVE SMOOTH",
"957 1271 OFFCURVE",
"820 1373 OFFCURVE",
"648 1373 CURVE SMOOTH",
"363 1373 OFFCURVE",
"157 1077 OFFCURVE",
"157 672 CURVE SMOOTH",
"157 269 OFFCURVE",
"357 -18 OFFCURVE",
"639 -18 CURVE SMOOTH {name = hr00;}"
);
},
{
closed = 1;
nodes = (
"811 818 LINE",
"53 818 LINE",
"35 741 LINE",
"794 741 LINE"
);
},
{
closed = 1;
nodes = (
"776 605 LINE",
"18 605 LINE",
"0 528 LINE",
"759 528 LINE"
);
}
);
width = 1056;
},
{
layerId = "FA6D65B5-4623-4FAC-A199-3F662257AC29";
paths = (
{
closed = 1;
nodes = (
"818 -18 OFFCURVE",
"975 102 OFFCURVE",
"975 255 CURVE SMOOTH",
"975 327 OFFCURVE",
"940 364 OFFCURVE",
"878 364 CURVE SMOOTH",
"787 364 OFFCURVE",
"766 285 OFFCURVE",
"755 245 CURVE SMOOTH",
"736 171 OFFCURVE",
"708 86 OFFCURVE",
"620 86 CURVE SMOOTH",
"510 86 OFFCURVE",
"459 218 OFFCURVE",
"459 658 CURVE SMOOTH",
"459 1142 OFFCURVE",
"521 1267 OFFCURVE",
"639 1267 CURVE SMOOTH",
"715 1267 OFFCURVE",
"743 1216 OFFCURVE",
"764 1126 CURVE SMOOTH",
"776 1072 OFFCURVE",
"803 1007 OFFCURVE",
"880 1007 CURVE SMOOTH",
"938 1007 OFFCURVE",
"975 1045 OFFCURVE",
"975 1114 CURVE SMOOTH",
"975 1257 OFFCURVE",
"820 1373 OFFCURVE",
"635 1373 CURVE SMOOTH",
"340 1373 OFFCURVE",
"137 1077 OFFCURVE",
"137 671 CURVE SMOOTH",
"137 269 OFFCURVE",
"334 -18 OFFCURVE",
"628 -18 CURVE SMOOTH {name = hr00;}"
);
},
{
closed = 1;
nodes = (
"811 836 LINE",
"53 836 LINE",
"35 723 LINE",
"794 723 LINE"
);
},
{
closed = 1;
nodes = (
"776 623 LINE",
"18 623 LINE",
"0 510 LINE",
"759 510 LINE"
);
}
);
width = 1056;
}
);
userData = {
com.typemytype.robofont.mark = (
1,
0.6,
0.6,
1
);
};
},
{
glyphname = F;
lastChange = "2018-10-29 20:09:01 +0000";
layers = (
{
layerId = master01;
paths = (
{
closed = 1;
nodes = (
"984 1184 OFFCURVE",
"1024 1068 OFFCURVE",
"1052 968 CURVE",
"1095 968 LINE",
"1065 1355 LINE",
"86 1355 LINE",
"86 1315 LINE",
"236 1281 LINE",
"236 74 LINE",
"86 40 LINE",
"86 0 LINE",
"621 0 LINE",
"621 40 LINE",
"421 74 LINE",
"421 1285 LINE",
"926 1285 LINE"
);
},
{
closed = 1;
nodes = (
"736 679 LINE",
"769 609 OFFCURVE",
"790 539 OFFCURVE",
"801 468 CURVE",
"843 468 LINE",
"843 961 LINE",
"801 961 LINE",
"788 891 OFFCURVE",
"769 820 OFFCURVE",
"736 750 CURVE",
"396 750 LINE",
"396 679 LINE"
);
}
);
width = 1144;
},
{
layerId = "FA6D65B5-4623-4FAC-A199-3F662257AC29";
paths = (
{
closed = 1;
nodes = (
"1044 1163 OFFCURVE",
"1084 1060 OFFCURVE",
"1112 968 CURVE",
"1181 968 LINE",
"1151 1355 LINE",
"74 1355 LINE",
"74 1290 LINE",
"224 1257 LINE",
"224 99 LINE",
"74 65 LINE",
"74 0 LINE",
"725 0 LINE",
"725 65 LINE",
"524 99 LINE",
"524 1255 LINE",
"986 1255 LINE"
);
},
{
closed = 1;
nodes = (
"762 671 LINE",
"794 604 OFFCURVE",
"815 537 OFFCURVE",
"827 470 CURVE",
"896 470 LINE",
"896 963 LINE",
"827 963 LINE",
"815 896 OFFCURVE",
"796 831 OFFCURVE",
"762 764 CURVE",
"502 764 LINE",
"502 671 LINE"
);
}
);
width = 1204;
}
);
leftKerningGroup = I;
unicode = 0046;
},
{
glyphname = G;
lastChange = "2018-10-29 20:09:01 +0000";
layers = (
{
anchors = (
{
name = bottom;
position = "{752, 0}";
},
{
name = topcap;
position = "{769, 1461}";
}
);
layerId = master01;
paths = (
{
closed = 1;
nodes = (
"1373 639 LINE",
"1373 679 LINE",
"873 679 LINE",
"873 639 LINE",
"1031 605 LINE",
"1031 262 LINE SMOOTH",
"1031 202 OFFCURVE",
"1028 188 OFFCURVE",
"1017 171 CURVE SMOOTH",
"973 99 OFFCURVE",
"880 63 OFFCURVE",
"766 63 CURVE SMOOTH",
"468 63 OFFCURVE",
"322 262 OFFCURVE",
"322 662 CURVE SMOOTH",
"322 1077 OFFCURVE",
"479 1294 OFFCURVE",
"781 1294 CURVE SMOOTH",
"977 1294 OFFCURVE",
"1082 1206 OFFCURVE",
"1195 950 CURVE",
"1236 950 LINE",
"1236 1355 LINE",
"1197 1355 LINE",
"1102 1265 LINE",
"1095 1265 LINE",
"1017 1334 OFFCURVE",
"894 1373 OFFCURVE",
"757 1373 CURVE SMOOTH",
"377 1373 OFFCURVE",
"97 1070 OFFCURVE",
"97 662 CURVE SMOOTH",
"97 264 OFFCURVE",
"361 -18 OFFCURVE",
"736 -18 CURVE SMOOTH",
"917 -18 OFFCURVE",
"1119 49 OFFCURVE",
"1216 143 CURVE",
"1216 605 LINE"
);
}
);
width = 1422;
},
{
anchors = (
{
name = bottom;
position = "{772, 0}";
},
{
name = topcap;
position = "{794, 1461}";
}
);
layerId = "FA6D65B5-4623-4FAC-A199-3F662257AC29";
paths = (
{
closed = 1;
nodes = (
"1475 614 LINE",
"1475 679 LINE",
"857 679 LINE",
"857 614 LINE",
"1016 581 LINE",
"1016 283 LINE SMOOTH",
"1016 227 OFFCURVE",
"1012 208 OFFCURVE",
"996 185 CURVE SMOOTH",
"954 123 OFFCURVE",
"866 84 OFFCURVE",
"764 84 CURVE SMOOTH",
"526 84 OFFCURVE",
"417 259 OFFCURVE",
"417 664 CURVE SMOOTH",
"417 1068 OFFCURVE",
"549 1267 OFFCURVE",
"817 1267 CURVE SMOOTH",
"1003 1267 OFFCURVE",
"1114 1176 OFFCURVE",
"1236 924 CURVE",
"1315 924 LINE",
"1315 1355 LINE",
"1258 1355 LINE",
"1181 1265 LINE",
"1174 1265 LINE",
"1088 1332 OFFCURVE",
"942 1373 OFFCURVE",
"785 1373 CURVE SMOOTH",
"371 1373 OFFCURVE",
"79 1077 OFFCURVE",
"79 656 CURVE SMOOTH",
"79 252 OFFCURVE",
"352 -18 OFFCURVE",
"764 -18 CURVE SMOOTH",
"968 -18 OFFCURVE",
"1207 51 OFFCURVE",
"1318 143 CURVE",
"1318 581 LINE"
);
}
);
width = 1505;
}
);
leftKerningGroup = G;
rightKerningGroup = G;
unicode = 0047;
},
{
glyphname = H;
lastChange = "2018-10-29 20:09:01 +0000";
layers = (
{
anchors = (
{
name = bottom;
position = "{760, 0}";
},
{
name = topcap;
position = "{760, 1461}";
}
);
layerId = master01;
paths = (
{
closed = 1;
nodes = (
"79 40 LINE",
"79 0 LINE",
"579 0 LINE",
"579 40 LINE",
"422 74 LINE",
"422 1281 LINE",
"579 1315 LINE",
"579 1355 LINE",
"79 1355 LINE",
"79 1315 LINE",
"238 1281 LINE",
"238 74 LINE"
);
},
{
closed = 1;
nodes = (
"929 40 LINE",
"929 0 LINE",
"1429 0 LINE",
"1429 37 LINE",
"1272 74 LINE",
"1272 1281 LINE",
"1429 1311 LINE",
"1429 1355 LINE",
"929 1355 LINE",
"929 1315 LINE",
"1088 1281 LINE",
"1088 74 LINE"
);
},
{
closed = 1;
nodes = (
"1162 678 LINE",
"1162 748 LINE",
"352 748 LINE",
"352 678 LINE"
);
}
);
width = 1508;
},
{
anchors = (
{
name = bottom;
position = "{812, 0}";
},
{
name = topcap;
position = "{812, 1461}";
}
);
layerId = "FA6D65B5-4623-4FAC-A199-3F662257AC29";
paths = (
{
closed = 1;
nodes = (
"74 65 LINE",
"74 0 LINE",
"674 0 LINE",
"674 65 LINE",
"526 102 LINE",
"526 1255 LINE",
"674 1290 LINE",
"674 1355 LINE",
"74 1355 LINE",
"74 1290 LINE",
"224 1255 LINE",
"224 102 LINE"
);
},
{
closed = 1;
nodes = (
"950 65 LINE",
"950 0 LINE",
"1551 0 LINE",
"1551 65 LINE",
"1403 102 LINE",
"1403 1255 LINE",
"1551 1290 LINE",
"1551 1355 LINE",
"950 1355 LINE",
"950 1290 LINE",
"1100 1255 LINE",
"1100 102 LINE"
);
},
{
closed = 1;
nodes = (
"1276 665 LINE",
"1276 766 LINE",
"354 766 LINE",
"354 665 LINE"
);
}
);
width = 1624;
}
);
leftKerningGroup = I;
rightKerningGroup = I;
unicode = 0048;
},
{
glyphname = Hbar;
lastChange = "2018-10-29 20:09:01 +0000";
layers = (
{
layerId = master01;
paths = (
{
closed = 1;
nodes = (
"79 40 LINE",
"79 0 LINE",
"579 0 LINE",
"579 40 LINE",
"422 74 LINE",
"422 678 LINE",
"1088 678 LINE",
"1088 74 LINE",
"929 40 LINE",
"929 0 LINE",
"1429 0 LINE",
"1429 37 LINE",
"1272 74 LINE",
"1272 963 LINE",
"1431 963 LINE",
"1431 1077 LINE",
"1272 1077 LINE",
"1272 1281 LINE",
"1429 1311 LINE",
"1429 1355 LINE",
"929 1355 LINE",
"929 1315 LINE",
"1088 1281 LINE",
"1088 1077 LINE",
"422 1077 LINE",
"422 1281 LINE",
"579 1315 LINE",
"579 1355 LINE",
"79 1355 LINE",
"79 1315 LINE",
"238 1281 LINE",
"238 1077 LINE",
"97 1077 LINE",
"97 963 LINE",
"238 963 LINE",
"238 74 LINE"
);
},
{
closed = 1;
nodes = (
"1088 963 LINE",
"1088 748 LINE",
"422 748 LINE",
"422 963 LINE"
);
}
);
width = 1510;
},
{
layerId = "FA6D65B5-4623-4FAC-A199-3F662257AC29";
paths = (
{
closed = 1;
nodes = (
"76 65 LINE",
"76 0 LINE",
"676 0 LINE",
"676 65 LINE",
"528 102 LINE",
"528 665 LINE",
"1102 665 LINE",
"1102 102 LINE",
"952 65 LINE",
"952 0 LINE",
"1552 0 LINE",
"1552 65 LINE",
"1404 102 LINE",
"1404 945 LINE",
"1540 945 LINE",
"1540 1077 LINE",
"1404 1077 LINE",
"1404 1255 LINE",
"1552 1290 LINE",
"1552 1355 LINE",
"952 1355 LINE",
"952 1290 LINE",
"1102 1255 LINE",
"1102 1077 LINE",
"528 1077 LINE",
"528 1255 LINE",
"676 1290 LINE",
"676 1355 LINE",
"76 1355 LINE",
"76 1290 LINE",
"225 1255 LINE",
"225 1077 LINE",
"93 1077 LINE",
"93 945 LINE",
"225 945 LINE",
"225 102 LINE"
);
},
{
closed = 1;
nodes = (
"1102 945 LINE",
"1102 766 LINE",
"528 766 LINE",
"528 945 LINE"
);
}
);
width = 1628;
}
);
leftKerningGroup = I;
rightKerningGroup = I;
unicode = 0126;
},
{
glyphname = I;
lastChange = "2018-10-29 20:09:01 +0000";
layers = (
{
anchors = (
{
name = bottom;
position = "{331, 0}";
},
{
name = topcap;
position = "{331, 1461}";
}
);
layerId = master01;
paths = (
{
closed = 1;
nodes = (
"79 40 LINE",
"79 0 LINE",
"579 0 LINE",
"579 40 LINE",
"422 74 LINE",
"422 1281 LINE",
"579 1315 LINE",
"579 1355 LINE",
"79 1355 LINE",
"79 1315 LINE",
"238 1281 LINE",
"238 74 LINE"
);
}
);
width = 658;
},
{
anchors = (
{
name = bottom;
position = "{374, 0}";
},
{
name = topcap;
position = "{374, 1461}";
}
);
layerId = "FA6D65B5-4623-4FAC-A199-3F662257AC29";
paths = (
{
closed = 1;
nodes = (
"74 65 LINE",
"74 0 LINE",
"674 0 LINE",
"674 65 LINE",
"526 102 LINE",
"526 1255 LINE",
"674 1290 LINE",
"674 1355 LINE",
"74 1355 LINE",
"74 1290 LINE",
"224 1255 LINE",
"224 102 LINE"
);
}
);
width = 748;
}
);
leftKerningGroup = I;
rightKerningGroup = I;
unicode = 0049;
},
{
glyphname = J;
lastChange = "2018-10-29 20:09:01 +0000";
layers = (
{
anchors = (
{
name = topcap;
position = "{319, 1461}";
}
);
layerId = master01;
paths = (
{
closed = 1;
nodes = (
"567 1315 LINE",
"567 1355 LINE",
"67 1355 LINE",
"67 1315 LINE",
"225 1281 LINE",
"225 -84 LINE SMOOTH",
"225 -275 OFFCURVE",
"162 -366 OFFCURVE",
"81 -366 CURVE SMOOTH",
"35 -366 OFFCURVE",
"-2 -338 OFFCURVE",
"-26 -271 CURVE SMOOTH",
"-46 -218 OFFCURVE",
"-74 -190 OFFCURVE",
"-123 -190 CURVE SMOOTH",
"-187 -190 OFFCURVE",
"-227 -234 OFFCURVE",
"-227 -304 CURVE SMOOTH",
"-227 -400 OFFCURVE",
"-146 -458 OFFCURVE",
"-16 -458 CURVE SMOOTH",
"128 -458 OFFCURVE",
"268 -378 OFFCURVE",
"350 -231 CURVE SMOOTH",
"401 -137 OFFCURVE",
"410 -72 OFFCURVE",
"410 273 CURVE SMOOTH",
"410 1281 LINE"
);
}
);
width = 637;
},
{
anchors = (
{
name = topcap;
position = "{360, 1461}";
}
);
layerId = "FA6D65B5-4623-4FAC-A199-3F662257AC29";
paths = (
{
closed = 1;
nodes = (
"660 1290 LINE",
"660 1355 LINE",
"60 1355 LINE",
"60 1290 LINE",
"209 1255 LINE",
"209 -76 LINE SMOOTH",
"209 -266 OFFCURVE",
"153 -357 OFFCURVE",
"83 -357 CURVE SMOOTH",
"40 -357 OFFCURVE",
"11 -324 OFFCURVE",
"-16 -245 CURVE SMOOTH",
"-39 -181 OFFCURVE",
"-72 -136 OFFCURVE",
"-144 -136 CURVE SMOOTH",
"-215 -136 OFFCURVE",
"-271 -181 OFFCURVE",
"-271 -269 CURVE SMOOTH",
"-271 -384 OFFCURVE",
"-164 -458 OFFCURVE",
"26 -458 CURVE SMOOTH",
"192 -458 OFFCURVE",
"359 -378 OFFCURVE",
"452 -231 CURVE",
"503 -137 OFFCURVE",
"512 -72 OFFCURVE",
"512 273 CURVE SMOOTH",
"512 1255 LINE"
);
}
);
width = 720;
}
);
leftKerningGroup = J;
rightKerningGroup = J;
unicode = 004A;
},
{
glyphname = K;
lastChange = "2018-10-29 20:09:01 +0000";
layers = (
{
anchors = (
{
name = bottom;
position = "{697, 0}";
}
);
layerId = master01;
paths = (
{
closed = 1;
nodes = (
"579 0 LINE",
"579 40 LINE",
"422 74 LINE",
"422 537 LINE",
"537 667 LINE",
"1038 0 LINE",
"1420 0 LINE",
"1420 40 LINE",
"1225 74 LINE",
"660 808 LINE",
"1008 1206 LINE SMOOTH",
"1065 1271 OFFCURVE",
"1104 1287 OFFCURVE",
"1265 1315 CURVE",
"1265 1355 LINE",
"801 1355 LINE",
"801 1315 LINE",
"905 1308 OFFCURVE",
"949 1292 OFFCURVE",
"949 1262 CURVE SMOOTH",
"949 1248 OFFCURVE",
"940 1230 OFFCURVE",
"920 1209 CURVE SMOOTH",
"422 651 LINE",
"422 1281 LINE",
"579 1315 LINE",
"579 1355 LINE",
"79 1355 LINE",
"79 1315 LINE",
"238 1281 LINE",
"238 74 LINE",
"79 40 LINE",
"79 0 LINE"
);
}
);
width = 1378;
},
{
anchors = (
{
name = bottom;
position = "{770, 0}";
}
);
layerId = "FA6D65B5-4623-4FAC-A199-3F662257AC29";
paths = (
{
closed = 1;
nodes = (
"674 0 LINE",
"674 65 LINE",
"526 102 LINE",
"526 577 LINE",
"565 618 LINE",
"998 0 LINE",
"1468 0 LINE",
"1468 65 LINE",
"1308 99 LINE",
"773 843 LINE",
"1082 1181 LINE SMOOTH",
"1140 1244 OFFCURVE",
"1177 1264 OFFCURVE",
"1343 1290 CURVE",
"1343 1355 LINE",
"838 1355 LINE",
"838 1292 LINE",
"928 1288 OFFCURVE",
"973 1274 OFFCURVE",
"973 1241 CURVE SMOOTH",
"973 1227 OFFCURVE",
"968 1206 OFFCURVE",
"949 1186 CURVE SMOOTH",
"526 732 LINE",
"526 1255 LINE",
"674 1290 LINE",
"674 1355 LINE",
"74 1355 LINE",
"74 1290 LINE",
"224 1255 LINE",
"224 102 LINE",
"74 65 LINE",
"74 0 LINE"
);
}
);
width = 1420;
}
);
leftKerningGroup = I;
rightKerningGroup = K;
unicode = 004B;
},
{
glyphname = L;
lastChange = "2018-10-29 20:09:01 +0000";
layers = (
{
anchors = (
{
name = bottom;
position = "{607, 0}";
},
{
name = topcap;
position = "{326, 1461}";
}
);
layerId = master01;
paths = (
{
closed = 1;
nodes = (
"588 1355 LINE",
"86 1355 LINE",
"86 1315 LINE",
"236 1281 LINE",
"236 74 LINE",
"86 40 LINE",
"86 0 LINE",
"1058 0 LINE",
"1123 421 LINE",
"1077 421 LINE",
"1038 304 OFFCURVE",
"1000 187 OFFCURVE",
"929 70 CURVE",
"421 70 LINE",
"421 1281 LINE",
"588 1315 LINE"
);
}
);
width = 1155;
},
{
anchors = (
{
name = bottom;
position = "{655, 0}";
},
{
name = topcap;
position = "{376, 1461}";
}
);
layerId = "FA6D65B5-4623-4FAC-A199-3F662257AC29";
paths = (
{
closed = 1;
nodes = (
"692 1355 LINE",
"74 1355 LINE",
"74 1290 LINE",
"224 1257 LINE",
"224 99 LINE",
"74 65 LINE",
"74 0 LINE",
"1142 0 LINE",
"1216 412 LINE",
"1125 412 LINE",
"1082 308 OFFCURVE",
"1040 204 OFFCURVE",
"964 100 CURVE",
"526 100 LINE",
"526 1255 LINE",
"692 1290 LINE"
);
}
);
width = 1230;
}
);
leftKerningGroup = I;
rightKerningGroup = L;
unicode = 004C;
},
{
glyphname = Lslash;
lastChange = "2018-10-29 20:09:01 +0000";
layers = (
{
components = (
{
name = L;
transform = "{1, 0, 0, 1, 2, 0}";
}
);
layerId = master01;
paths = (
{
closed = 1;
nodes = (
"590 913 LINE",
"104 653 LINE",
"104 539 LINE",
"590 799 LINE"
);
}
);
width = 1156;
},
{
components = (
{
name = L;
transform = "{1, 0, 0, 1, 2, 0}";
}
);
layerId = "FA6D65B5-4623-4FAC-A199-3F662257AC29";
paths = (
{
closed = 1;
nodes = (
"656 945 LINE",
"107 653 LINE",
"107 486 LINE",
"656 778 LINE"
);
}
);
width = 1232;
}
);
leftKerningGroup = I;
rightKerningGroup = L;
unicode = 0141;
},
{
glyphname = M;
lastChange = "2018-10-29 20:09:01 +0000";
layers = (
{
layerId = master01;
paths = (
{
closed = 1;
nodes = (
"79 40 LINE",
"79 0 LINE",
"465 0 LINE",
"465 40 LINE",
"308 74 LINE",
"308 1162 LINE",
"315 1162 LINE",
"806 -18 LINE",
"854 -18 LINE",
"1353 1155 LINE",
"1360 1155 LINE",
"1360 74 LINE",
"1202 40 LINE",
"1202 0 LINE",
"1702 0 LINE",
"1702 40 LINE",
"1545 74 LINE",
"1545 1281 LINE",
"1702 1315 LINE",
"1702 1355 LINE",
"1334 1355 LINE",
"896 312 LINE",
"887 312 LINE",
"449 1355 LINE",
"79 1355 LINE",
"79 1315 LINE",
"238 1281 LINE",
"238 74 LINE"
);
}
);
width = 1781;
},
{
layerId = "FA6D65B5-4623-4FAC-A199-3F662257AC29";
paths = (
{
closed = 1;
nodes = (
"69 65 LINE",
"69 0 LINE",
"502 0 LINE",
"502 65 LINE",
"347 99 LINE",
"347 1093 LINE",
"354 1093 LINE",
"831 -18 LINE",
"915 -18 LINE",
"1357 1045 LINE",
"1364 1045 LINE",
"1364 102 LINE",
"1214 65 LINE",
"1214 0 LINE",
"1815 0 LINE",
"1815 65 LINE",
"1667 102 LINE",
"1667 1255 LINE",
"1815 1290 LINE",
"1815 1355 LINE",
"1362 1355 LINE",
"980 447 LINE",
"970 447 LINE",
"604 1355 LINE",
"70 1355 LINE",
"70 1290 LINE",
"225 1257 LINE",
"225 99 LINE"
);
}
);
width = 1888;
}
);
leftKerningGroup = N;
rightKerningGroup = I;
unicode = 004D;
},
{
glyphname = N;
lastChange = "2018-10-29 20:09:01 +0000";
layers = (
{
anchors = (
{
name = bottom;
position = "{713, 0}";
},
{
name = topcap;
position = "{797, 1461}";
}
);
layerId = master01;
paths = (
{
closed = 1;
nodes = (
"1389 1315 LINE",
"1389 1355 LINE",
"1003 1355 LINE",
"1003 1315 LINE",
"1160 1281 LINE",
"1160 359 LINE",
"435 1355 LINE",
"79 1355 LINE",
"79 1315 LINE",
"238 1281 LINE",
"238 74 LINE",
"79 40 LINE",
"79 0 LINE",
"465 0 LINE",
"465 40 LINE",
"308 74 LINE",
"308 1174 LINE",
"1176 -35 LINE",
"1230 -35 LINE",
"1230 1281 LINE"
);
}
);
width = 1457;
},
{
anchors = (
{
name = bottom;
position = "{773, 0}";
},
{
name = topcap;
position = "{803, 1461}";
}
);
layerId = "FA6D65B5-4623-4FAC-A199-3F662257AC29";
paths = (
{
closed = 1;
nodes = (
"1491 1290 LINE",
"1491 1355 LINE",
"1058 1355 LINE",
"1058 1290 LINE",
"1213 1257 LINE",
"1213 519 LINE",
"547 1355 LINE",
"70 1355 LINE",
"70 1290 LINE",
"225 1257 LINE",
"225 99 LINE",
"69 65 LINE",
"69 0 LINE",
"502 0 LINE",
"502 65 LINE",
"347 99 LINE",
"347 1074 LINE",
"1213 -18 LINE",
"1334 -18 LINE",
"1334 1257 LINE"
);
}
);
width = 1545;
}
);
leftKerningGroup = N;
rightKerningGroup = N;
unicode = 004E;
},
{
glyphname = O;
lastChange = "2018-10-29 20:09:01 +0000";
layers = (
{
anchors = (
{
name = bottom;
position = "{737, 0}";
},
{
name = topcap;
position = "{737, 1461}";
}
);
layerId = master01;
paths = (
{
closed = 1;
nodes = (
"371 1373 OFFCURVE",
"97 1074 OFFCURVE",
"97 678 CURVE SMOOTH",
"97 282 OFFCURVE",
"371 -18 OFFCURVE",
"736 -18 CURVE SMOOTH",
"1100 -18 OFFCURVE",
"1375 282 OFFCURVE",
"1375 678 CURVE SMOOTH",
"1375 1074 OFFCURVE",
"1100 1373 OFFCURVE",
"736 1373 CURVE SMOOTH"
);
},
{
closed = 1;
nodes = (
"319 1065 OFFCURVE",
"475 1294 OFFCURVE",
"737 1294 CURVE SMOOTH",
"998 1294 OFFCURVE",
"1153 1067 OFFCURVE",
"1153 683 CURVE SMOOTH",
"1153 294 OFFCURVE",
"996 62 OFFCURVE",
"736 62 CURVE SMOOTH",
"475 62 OFFCURVE",
"319 294 OFFCURVE",
"319 679 CURVE SMOOTH"
);
}
);
width = 1471;
},
{
anchors = (
{
name = bottom;
position = "{765, 0}";
},
{
name = topcap;
position = "{765, 1461}";
}
);
layerId = "FA6D65B5-4623-4FAC-A199-3F662257AC29";
paths = (
{
closed = 1;
nodes = (
"324 1373 OFFCURVE",
"79 1060 OFFCURVE",
"79 678 CURVE SMOOTH",
"79 296 OFFCURVE",
"324 -18 OFFCURVE",
"764 -18 CURVE SMOOTH",
"1206 -18 OFFCURVE",
"1450 296 OFFCURVE",
"1450 678 CURVE SMOOTH",
"1450 1060 OFFCURVE",
"1206 1373 OFFCURVE",
"764 1373 CURVE SMOOTH"
);
},
{
closed = 1;
nodes = (
"426 920 OFFCURVE",
"480 1267 OFFCURVE",
"764 1267 CURVE SMOOTH",
"1052 1267 OFFCURVE",
"1104 920 OFFCURVE",
"1104 678 CURVE SMOOTH",
"1104 433 OFFCURVE",
"1049 84 OFFCURVE",
"764 84 CURVE SMOOTH",
"480 84 OFFCURVE",
"426 433 OFFCURVE",
"426 678 CURVE SMOOTH"
);
}
);
width = 1529;
}
);
leftKerningGroup = O;
rightKerningGroup = O;
unicode = 004F;
},
{
glyphname = OE;
lastChange = "2018-10-29 20:09:01 +0000";
layers = (
{
components = (
{
name = E;
transform = "{1, 0, 0, 1, 799, 0}";
}
);
layerId = master01;
paths = (
{
closed = 1;
nodes = (
"977 106 OFFCURVE",
"864 62 OFFCURVE",
"744 62 CURVE SMOOTH",
"475 62 OFFCURVE",
"319 287 OFFCURVE",
"319 679 CURVE SMOOTH",
"319 1070 OFFCURVE",
"473 1294 OFFCURVE",
"746 1294 CURVE SMOOTH",
"889 1294 OFFCURVE",
"1010 1232 OFFCURVE",
"1077 1126 CURVE",
"1126 1288 LINE",
"1024 1339 OFFCURVE",
"880 1373 OFFCURVE",
"752 1373 CURVE SMOOTH",
"371 1373 OFFCURVE",
"97 1082 OFFCURVE",
"97 678 CURVE SMOOTH",
"97 273 OFFCURVE",
"371 -18 OFFCURVE",
"752 -18 CURVE SMOOTH",
"876 -18 OFFCURVE",
"1017 11 OFFCURVE",
"1114 56 CURVE",
"1045 180 LINE"
);
}
);
width = 2017;
},
{
components = (
{
name = E;
transform = "{1, 0, 0, 1, 776, 0}";
}
);
layerId = "FA6D65B5-4623-4FAC-A199-3F662257AC29";
paths = (
{
closed = 1;
nodes = (
"968 136 OFFCURVE",
"887 84 OFFCURVE",
"764 84 CURVE SMOOTH",
"480 84 OFFCURVE",
"426 433 OFFCURVE",
"426 678 CURVE SMOOTH",
"426 920 OFFCURVE",
"480 1267 OFFCURVE",
"764 1267 CURVE SMOOTH",
"899 1267 OFFCURVE",
"982 1206 OFFCURVE",
"1031 1121 CURVE",
"1179 1251 LINE",
"1070 1329 OFFCURVE",
"931 1373 OFFCURVE",
"764 1373 CURVE SMOOTH",
"324 1373 OFFCURVE",
"79 1060 OFFCURVE",
"79 678 CURVE SMOOTH",
"79 296 OFFCURVE",
"324 -18 OFFCURVE",
"764 -18 CURVE SMOOTH",
"926 -18 OFFCURVE",
"1060 25 OFFCURVE",
"1167 97 CURVE",
"1019 208 LINE"
);
}
);
width = 2063;
}
);
leftKerningGroup = O;
rightKerningGroup = E;
unicode = 0152;
},
{
glyphname = Oslash;
lastChange = "2018-10-29 20:09:01 +0000";
layers = (
{
layerId = master01;
paths = (
{
closed = 1;
nodes = (
"1102 -18 OFFCURVE",
"1376 282 OFFCURVE",
"1376 678 CURVE SMOOTH",
"1376 871 OFFCURVE",
"1309 1042 OFFCURVE",
"1199 1165 CURVE",
"1362 1355 LINE",
"1264 1355 LINE",
"1146 1218 LINE",
"1037 1315 OFFCURVE",
"896 1373 OFFCURVE",
"737 1373 CURVE SMOOTH",
"373 1373 OFFCURVE",
"99 1074 OFFCURVE",
"99 678 CURVE SMOOTH",
"99 488 OFFCURVE",
"162 319 OFFCURVE",
"268 195 CURVE",
"100 0 LINE",
"197 0 LINE",
"320 143 LINE",
"429 42 OFFCURVE",
"574 -18 OFFCURVE",
"737 -18 CURVE SMOOTH"
);
},
{
closed = 1;
nodes = (
"340 421 OFFCURVE",
"320 540 OFFCURVE",
"320 679 CURVE SMOOTH",
"320 1065 OFFCURVE",
"477 1294 OFFCURVE",
"739 1294 CURVE SMOOTH",
"876 1294 OFFCURVE",
"984 1230 OFFCURVE",
"1056 1114 CURVE",
"378 326 LINE"
);
},
{
closed = 1;
nodes = (
"597 62 OFFCURVE",
"486 130 OFFCURVE",
"414 253 CURVE",
"1093 1042 LINE",
"1133 945 OFFCURVE",
"1155 825 OFFCURVE",
"1155 683 CURVE SMOOTH",
"1155 294 OFFCURVE",
"998 62 OFFCURVE",
"737 62 CURVE SMOOTH"
);
}
);
width = 1473;
},
{
layerId = "FA6D65B5-4623-4FAC-A199-3F662257AC29";
paths = (
{
closed = 1;
nodes = (
"1204 -18 OFFCURVE",
"1448 296 OFFCURVE",
"1448 678 CURVE SMOOTH",
"1448 873 OFFCURVE",
"1383 1049 OFFCURVE",
"1262 1176 CURVE",
"1417 1355 LINE",
"1280 1355 LINE",
"1184 1244 LINE",
"1075 1324 OFFCURVE",
"933 1373 OFFCURVE",
"762 1373 CURVE SMOOTH",
"322 1373 OFFCURVE",
"77 1060 OFFCURVE",
"77 678 CURVE SMOOTH",
"77 480 OFFCURVE",
"143 301 OFFCURVE",
"266 174 CURVE",
"116 0 LINE",
"252 0 LINE",
"343 107 LINE",
"452 28 OFFCURVE",
"593 -18 OFFCURVE",
"762 -18 CURVE SMOOTH"
);
},
{
closed = 1;
nodes = (
"431 488 OFFCURVE",
"424 590 OFFCURVE",
"424 678 CURVE SMOOTH",
"424 920 OFFCURVE",
"479 1267 OFFCURVE",
"762 1267 CURVE SMOOTH",
"903 1267 OFFCURVE",
"987 1184 OFFCURVE",
"1037 1072 CURVE",
"454 392 LINE"
);
},
{
closed = 1;
nodes = (
"625 84 OFFCURVE",
"540 165 OFFCURVE",
"491 278 CURVE",
"1074 956 LINE",
"1095 864 OFFCURVE",
"1102 764 OFFCURVE",
"1102 678 CURVE SMOOTH",
"1102 433 OFFCURVE",
"1047 84 OFFCURVE",
"762 84 CURVE SMOOTH"
);
}
);
width = 1526;
}
);
leftKerningGroup = O;
rightKerningGroup = O;
unicode = 00D8;
},
{
glyphname = Oslashacute;
lastChange = "2018-10-29 20:09:01 +0000";
layers = (
{
components = (
{
name = acute.cap;
transform = "{1, 0, 0, 1, 540, 0}";
}
);
layerId = master01;
paths = (
{
closed = 1;
nodes = (
"1102 -18 OFFCURVE",
"1376 282 OFFCURVE",
"1376 678 CURVE SMOOTH",
"1376 871 OFFCURVE",
"1309 1042 OFFCURVE",
"1199 1165 CURVE",
"1362 1355 LINE",
"1264 1355 LINE",
"1146 1218 LINE",
"1037 1315 OFFCURVE",
"896 1373 OFFCURVE",
"737 1373 CURVE SMOOTH",
"373 1373 OFFCURVE",
"99 1074 OFFCURVE",
"99 678 CURVE SMOOTH",
"99 488 OFFCURVE",
"162 319 OFFCURVE",
"268 195 CURVE",
"100 0 LINE",
"197 0 LINE",
"320 143 LINE",
"429 42 OFFCURVE",
"574 -18 OFFCURVE",
"737 -18 CURVE SMOOTH"
);
},
{
closed = 1;
nodes = (
"340 421 OFFCURVE",
"320 540 OFFCURVE",
"320 679 CURVE SMOOTH",
"320 1065 OFFCURVE",
"477 1294 OFFCURVE",
"739 1294 CURVE SMOOTH",
"876 1294 OFFCURVE",
"984 1230 OFFCURVE",
"1056 1114 CURVE",
"378 326 LINE"
);
},
{
closed = 1;
nodes = (
"597 62 OFFCURVE",
"486 130 OFFCURVE",
"414 253 CURVE",
"1093 1042 LINE",
"1133 945 OFFCURVE",
"1155 825 OFFCURVE",
"1155 683 CURVE SMOOTH",
"1155 294 OFFCURVE",
"998 62 OFFCURVE",
"737 62 CURVE SMOOTH"
);
}
);
width = 1473;
},
{
components = (
{
name = acute.cap;
transform = "{1, 0, 0, 1, 556, 0}";
}
);
layerId = "FA6D65B5-4623-4FAC-A199-3F662257AC29";
paths = (
{
closed = 1;
nodes = (
"1204 -18 OFFCURVE",
"1448 296 OFFCURVE",
"1448 678 CURVE SMOOTH",
"1448 873 OFFCURVE",
"1383 1049 OFFCURVE",
"1262 1176 CURVE",
"1417 1355 LINE",
"1280 1355 LINE",
"1184 1244 LINE",
"1075 1324 OFFCURVE",
"933 1373 OFFCURVE",
"762 1373 CURVE SMOOTH",
"322 1373 OFFCURVE",
"77 1060 OFFCURVE",
"77 678 CURVE SMOOTH",
"77 480 OFFCURVE",
"143 301 OFFCURVE",
"266 174 CURVE",
"116 0 LINE",
"252 0 LINE",
"343 107 LINE",
"452 28 OFFCURVE",
"593 -18 OFFCURVE",
"762 -18 CURVE SMOOTH"
);
},
{
closed = 1;
nodes = (
"431 488 OFFCURVE",
"424 590 OFFCURVE",
"424 678 CURVE SMOOTH",
"424 920 OFFCURVE",
"479 1267 OFFCURVE",
"762 1267 CURVE SMOOTH",
"903 1267 OFFCURVE",
"987 1184 OFFCURVE",
"1037 1072 CURVE",
"454 392 LINE"
);
},
{
closed = 1;
nodes = (
"625 84 OFFCURVE",
"540 165 OFFCURVE",
"491 278 CURVE",
"1074 956 LINE",
"1095 864 OFFCURVE",
"1102 764 OFFCURVE",
"1102 678 CURVE SMOOTH",
"1102 433 OFFCURVE",
"1047 84 OFFCURVE",
"762 84 CURVE SMOOTH"
);
}
);
width = 1526;
}
);
leftKerningGroup = O;
rightKerningGroup = O;
unicode = 01FE;
},
{
glyphname = P;
lastChange = "2018-10-29 20:09:01 +0000";
layers = (
{
layerId = master01;
paths = (
{
closed = 1;
nodes = (
"236 1281 LINE",
"236 74 LINE",
"86 40 LINE",
"86 0 LINE",
"621 0 LINE",
"621 40 LINE",
"421 74 LINE",
"421 581 LINE",
"607 581 LINE SMOOTH",
"913 581 OFFCURVE",
"1104 711 OFFCURVE",
"1104 952 CURVE SMOOTH",
"1104 1213 OFFCURVE",
"910 1355 OFFCURVE",
"634 1355 CURVE SMOOTH",
"86 1355 LINE",
"86 1315 LINE"
);
},
{
closed = 1;
nodes = (
"583 1285 LINE SMOOTH",
"655 1285 OFFCURVE",
"700 1280 OFFCURVE",
"739 1264 CURVE SMOOTH",
"841 1223 OFFCURVE",
"901 1121 OFFCURVE",
"901 970 CURVE SMOOTH",
"901 887 OFFCURVE",
"884 806 OFFCURVE",
"831 744 CURVE SMOOTH",
"780 685 OFFCURVE",
"700 649 OFFCURVE",
"553 649 CURVE SMOOTH",
"421 649 LINE",
"421 1285 LINE"
);
}
);
width = 1167;
},
{
layerId = "FA6D65B5-4623-4FAC-A199-3F662257AC29";
paths = (
{
closed = 1;
nodes = (
"224 1253 LINE",
"224 104 LINE",
"74 65 LINE",
"74 0 LINE",
"746 0 LINE",
"746 65 LINE",
"526 104 LINE",
"526 563 LINE",
"632 563 LINE SMOOTH",
"979 563 OFFCURVE",
"1177 706 OFFCURVE",
"1177 954 CURVE SMOOTH",
"1177 1200 OFFCURVE",
"977 1355 OFFCURVE",
"660 1355 CURVE SMOOTH",
"74 1355 LINE",
"74 1290 LINE"
);
},
{
closed = 1;
nodes = (
"570 1260 LINE SMOOTH",
"678 1260 OFFCURVE",
"744 1241 OFFCURVE",
"788 1197 CURVE SMOOTH",
"832 1153 OFFCURVE",
"855 1077 OFFCURVE",
"855 970 CURVE SMOOTH",
"855 855 OFFCURVE",
"831 781 OFFCURVE",
"776 730 CURVE SMOOTH",
"723 681 OFFCURVE",
"648 658 OFFCURVE",
"539 658 CURVE SMOOTH",
"526 658 LINE",
"526 1260 LINE"
);
}
);
width = 1221;
}
);
leftKerningGroup = I;
unicode = 0050;
},
{
glyphname = Q;
lastChange = "2018-10-29 20:09:01 +0000";
layers = (
{
layerId = master01;
paths = (
{
closed = 1;
nodes = (
"371 1373 OFFCURVE",
"97 1074 OFFCURVE",
"97 678 CURVE SMOOTH",
"97 357 OFFCURVE",
"282 90 OFFCURVE",
"556 30 CURVE",
"556 23 LINE",
"436 -23 OFFCURVE",
"363 -100 OFFCURVE",
"363 -185 CURVE SMOOTH",
"363 -243 OFFCURVE",
"398 -282 OFFCURVE",
"451 -282 CURVE SMOOTH",
"502 -282 OFFCURVE",
"540 -245 OFFCURVE",
"540 -194 CURVE SMOOTH",
"540 -150 OFFCURVE",
"510 -141 OFFCURVE",
"510 -100 CURVE SMOOTH",
"510 -56 OFFCURVE",
"544 -21 OFFCURVE",
"620 -21 CURVE SMOOTH",
"827 -21 OFFCURVE",
"889 -289 OFFCURVE",
"1109 -289 CURVE SMOOTH",
"1230 -289 OFFCURVE",
"1350 -208 OFFCURVE",
"1422 -42 CURVE",
"1375 -25 LINE",
"1327 -88 OFFCURVE",
"1281 -118 OFFCURVE",
"1202 -118 CURVE SMOOTH",
"1056 -118 OFFCURVE",
"945 -23 OFFCURVE",
"825 5 CURVE",
"825 12 LINE",
"1153 39 OFFCURVE",
"1375 327 OFFCURVE",
"1375 678 CURVE SMOOTH",
"1375 1074 OFFCURVE",
"1100 1373 OFFCURVE",
"736 1373 CURVE SMOOTH"
);
},
{
closed = 1;
nodes = (
"319 1065 OFFCURVE",
"475 1294 OFFCURVE",
"737 1294 CURVE SMOOTH",
"998 1294 OFFCURVE",
"1153 1067 OFFCURVE",
"1153 681 CURVE SMOOTH",
"1153 294 OFFCURVE",
"996 62 OFFCURVE",
"736 62 CURVE SMOOTH",
"475 62 OFFCURVE",
"319 294 OFFCURVE",
"319 679 CURVE SMOOTH"
);
}
);
width = 1471;
},
{
layerId = "FA6D65B5-4623-4FAC-A199-3F662257AC29";
paths = (
{
closed = 1;
nodes = (
"324 1373 OFFCURVE",
"79 1060 OFFCURVE",
"79 678 CURVE SMOOTH",
"79 373 OFFCURVE",
"243 113 OFFCURVE",
"528 19 CURVE",
"528 12 LINE",
"405 -37 OFFCURVE",
"329 -113 OFFCURVE",
"329 -208 CURVE SMOOTH",
"329 -285 OFFCURVE",
"378 -343 OFFCURVE",
"452 -343 CURVE SMOOTH",
"524 -343 OFFCURVE",
"579 -290 OFFCURVE",
"579 -222 CURVE SMOOTH",
"579 -169 OFFCURVE",
"546 -153 OFFCURVE",
"546 -113 CURVE SMOOTH",
"546 -65 OFFCURVE",
"590 -39 OFFCURVE",
"649 -39 CURVE SMOOTH",
"873 -39 OFFCURVE",
"917 -341 OFFCURVE",
"1148 -341 CURVE SMOOTH",
"1276 -341 OFFCURVE",
"1410 -246 OFFCURVE",
"1487 -60 CURVE",
"1434 -25 LINE",
"1378 -81 OFFCURVE",
"1322 -100 OFFCURVE",
"1250 -100 CURVE SMOOTH",
"1119 -100 OFFCURVE",
"1017 -42 OFFCURVE",
"910 -9 CURVE",
"910 -2 LINE",
"1255 62 OFFCURVE",
"1450 341 OFFCURVE",
"1450 678 CURVE SMOOTH",
"1450 1060 OFFCURVE",
"1206 1373 OFFCURVE",
"764 1373 CURVE SMOOTH"
);
},
{
closed = 1;
nodes = (
"426 919 OFFCURVE",
"479 1267 OFFCURVE",
"766 1267 CURVE SMOOTH",
"1052 1267 OFFCURVE",
"1104 919 OFFCURVE",
"1104 678 CURVE SMOOTH",
"1104 426 OFFCURVE",
"1049 67 OFFCURVE",
"764 67 CURVE SMOOTH",
"480 67 OFFCURVE",
"426 426 OFFCURVE",
"426 674 CURVE SMOOTH"
);
}
);
width = 1529;
}
);
leftKerningGroup = O;
rightKerningGroup = O;
unicode = 0051;
},
{
glyphname = R;
lastChange = "2018-10-29 20:09:01 +0000";
layers = (
{
anchors = (
{
name = bottom;
position = "{697, 0}";
},
{
name = topcap;
position = "{648, 1461}";
}
);
layerId = master01;
paths = (
{
closed = 1;
nodes = (
"621 0 LINE",
"621 40 LINE",
"421 74 LINE",
"421 616 LINE",
"590 616 LINE",
"984 0 LINE",
"1366 0 LINE",
"1366 40 LINE",
"1165 74 LINE",
"790 637 LINE",
"977 681 OFFCURVE",
"1086 794 OFFCURVE",
"1086 970 CURVE SMOOTH",
"1086 1220 OFFCURVE",
"892 1355 OFFCURVE",
"616 1355 CURVE SMOOTH",
"86 1355 LINE",
"86 1315 LINE",
"236 1281 LINE",
"236 74 LINE",
"86 40 LINE",
"86 0 LINE"
);
},
{
closed = 1;
nodes = (
"421 1285 LINE",
"565 1285 LINE SMOOTH",
"637 1285 OFFCURVE",
"681 1280 OFFCURVE",
"722 1264 CURVE SMOOTH",
"824 1223 OFFCURVE",
"884 1130 OFFCURVE",
"884 987 CURVE SMOOTH",
"884 912 OFFCURVE",
"864 838 OFFCURVE",
"813 780 CURVE SMOOTH",
"760 722 OFFCURVE",
"683 685 OFFCURVE",
"535 685 CURVE SMOOTH",
"421 685 LINE"
);
}
);
width = 1290;
},
{
anchors = (
{
name = bottom;
position = "{767, 0}";
},
{
name = topcap;
position = "{638, 1461}";
}
);
layerId = "FA6D65B5-4623-4FAC-A199-3F662257AC29";
paths = (
{
closed = 1;
nodes = (
"727 0 LINE",
"727 65 LINE",
"526 104 LINE",
"526 590 LINE",
"598 590 LINE",
"952 0 LINE",
"1433 0 LINE",
"1433 65 LINE",
"1272 99 LINE",
"933 627 LINE",
"1089 683 OFFCURVE",
"1179 799 OFFCURVE",
"1179 970 CURVE SMOOTH",
"1179 1220 OFFCURVE",
"986 1355 OFFCURVE",
"709 1355 CURVE SMOOTH",
"74 1355 LINE",
"74 1290 LINE",
"224 1253 LINE",
"224 104 LINE",
"74 65 LINE",
"74 0 LINE"
);
},
{
closed = 1;
nodes = (
"526 1260 LINE",
"563 1260 LINE SMOOTH",
"635 1260 OFFCURVE",
"678 1253 OFFCURVE",
"718 1237 CURVE SMOOTH",
"808 1200 OFFCURVE",
"871 1114 OFFCURVE",
"871 987 CURVE SMOOTH",
"871 912 OFFCURVE",
"852 838 OFFCURVE",
"801 780 CURVE SMOOTH",
"752 722 OFFCURVE",
"679 685 OFFCURVE",
"551 685 CURVE SMOOTH",
"526 685 LINE"
);
}
);
width = 1369;
}
);
leftKerningGroup = I;
rightKerningGroup = R;
unicode = 0052;
},
{
glyphname = S;
lastChange = "2018-10-29 20:09:01 +0000";
layers = (
{
anchors = (
{
name = bottom;
position = "{533, 0}";
},
{
name = topcap;
position = "{542, 1461}";
}
);
layerId = master01;
paths = (
{
closed = 1;
nodes = (
"308 1373 OFFCURVE",
"139 1214 OFFCURVE",
"139 1001 CURVE SMOOTH",
"139 586 OFFCURVE",
"787 625 OFFCURVE",
"787 278 CURVE SMOOTH",
"787 143 OFFCURVE",
"686 60 OFFCURVE",
"524 60 CURVE SMOOTH",
"333 60 OFFCURVE",
"225 178 OFFCURVE",
"155 461 CURVE",
"111 451 LINE",
"143 0 LINE",
"178 0 LINE",
"248 72 LINE",
"348 11 OFFCURVE",
"435 -16 OFFCURVE",
"530 -16 CURVE SMOOTH",
"766 -16 OFFCURVE",
"949 157 OFFCURVE",
"949 382 CURVE SMOOTH",
"949 801 OFFCURVE",
"324 753 OFFCURVE",
"324 1096 CURVE SMOOTH",
"324 1221 OFFCURVE",
"407 1297 OFFCURVE",
"540 1297 CURVE SMOOTH",
"700 1297 OFFCURVE",
"803 1192 OFFCURVE",
"859 968 CURVE",
"905 968 LINE",
"889 1355 LINE",
"854 1355 LINE",
"797 1264 LINE",
"720 1338 OFFCURVE",
"637 1373 OFFCURVE",
"532 1373 CURVE SMOOTH"
);
}
);
width = 1054;
},
{
anchors = (
{
name = bottom;
position = "{573, 0}";
},
{
name = topcap;
position = "{572, 1461}";
}
);
layerId = "FA6D65B5-4623-4FAC-A199-3F662257AC29";
paths = (
{
closed = 1;
nodes = (
"317 1373 OFFCURVE",
"123 1216 OFFCURVE",
"123 1001 CURVE SMOOTH",
"123 524 OFFCURVE",
"811 547 OFFCURVE",
"811 287 CURVE SMOOTH",
"811 162 OFFCURVE",
"716 86 OFFCURVE",
"567 86 CURVE SMOOTH",
"359 86 OFFCURVE",
"243 199 OFFCURVE",
"167 463 CURVE",
"93 451 LINE",
"128 0 LINE",
"183 0 LINE",
"245 72 LINE",
"363 11 OFFCURVE",
"461 -16 OFFCURVE",
"570 -16 CURVE SMOOTH",
"841 -16 OFFCURVE",
"1049 157 OFFCURVE",
"1049 384 CURVE SMOOTH",
"1049 869 OFFCURVE",
"391 836 OFFCURVE",
"391 1102 CURVE SMOOTH",
"391 1206 OFFCURVE",
"463 1269 OFFCURVE",
"584 1269 CURVE SMOOTH",
"755 1269 OFFCURVE",
"866 1167 OFFCURVE",
"924 968 CURVE",
"1001 968 LINE",
"984 1357 LINE",
"926 1357 LINE",
"884 1264 LINE",
"796 1338 OFFCURVE",
"695 1373 OFFCURVE",
"574 1373 CURVE SMOOTH"
);
}
);
width = 1139;
}
);
leftKerningGroup = S;
rightKerningGroup = S;
unicode = 0053;
},
{
glyphname = Schwa;
lastChange = "2018-10-29 20:09:01 +0000";
layers = (
{
layerId = master01;
paths = (
{
closed = 1;
nodes = (
"90 180 OFFCURVE",
"269 -18 OFFCURVE",
"602 -18 CURVE SMOOTH",
"994 -18 OFFCURVE",
"1260 273 OFFCURVE",
"1260 699 CURVE SMOOTH",
"1260 1102 OFFCURVE",
"1023 1375 OFFCURVE",
"672 1375 CURVE SMOOTH",
"424 1375 OFFCURVE",
"206 1243 OFFCURVE",
"125 1044 CURVE SMOOTH",
"111 1008 LINE",
"153 982 LINE",
"183 1021 LINE SMOOTH",
"285 1156 OFFCURVE",
"422 1225 OFFCURVE",
"593 1225 CURVE SMOOTH",
"882 1225 OFFCURVE",
"1038 1016 OFFCURVE",
"1038 635 CURVE SMOOTH",
"1038 266 OFFCURVE",
"891 62 OFFCURVE",
"621 62 CURVE SMOOTH",
"419 62 OFFCURVE",
"313 167 OFFCURVE",
"313 368 CURVE SMOOTH",
"313 419 OFFCURVE",
"320 454 OFFCURVE",
"320 477 CURVE",
"1058 502 LINE",
"1058 570 LINE",
"100 570 LINE",
"83 554 LINE"
);
}
);
width = 1359;
},
{
layerId = "FA6D65B5-4623-4FAC-A199-3F662257AC29";
paths = (
{
closed = 1;
nodes = (
"63 187 OFFCURVE",
"260 -18 OFFCURVE",
"614 -18 CURVE SMOOTH",
"1033 -18 OFFCURVE",
"1313 269 OFFCURVE",
"1313 697 CURVE SMOOTH",
"1313 1102 OFFCURVE",
"1063 1375 OFFCURVE",
"695 1375 CURVE SMOOTH",
"435 1375 OFFCURVE",
"197 1239 OFFCURVE",
"120 1044 CURVE SMOOTH",
"106 1008 LINE",
"158 973 LINE",
"190 1012 LINE SMOOTH",
"278 1119 OFFCURVE",
"436 1190 OFFCURVE",
"593 1190 CURVE SMOOTH",
"845 1190 OFFCURVE",
"970 1005 OFFCURVE",
"970 634 CURVE SMOOTH",
"970 276 OFFCURVE",
"854 88 OFFCURVE",
"632 88 CURVE SMOOTH",
"475 88 OFFCURVE",
"389 185 OFFCURVE",
"389 361 CURVE SMOOTH",
"389 391 OFFCURVE",
"392 428 OFFCURVE",
"396 456 CURVE",
"1100 480 LINE",
"1100 570 LINE",
"77 570 LINE",
"58 554 LINE"
);
}
);
width = 1394;
}
);
rightKerningGroup = O;
unicode = 018F;
},
{
glyphname = T;
lastChange = "2018-10-29 20:09:01 +0000";
layers = (
{
anchors = (
{
name = bottom;
position = "{667, -4}";
},
{
name = topcap;
position = "{667, 1461}";
}
);
layerId = master01;
paths = (
{
closed = 1;
nodes = (
"950 0 LINE",
"950 40 LINE",
"759 74 LINE",
"759 1285 LINE",
"1107 1285 LINE",
"1183 1184 OFFCURVE",
"1234 1068 OFFCURVE",
"1269 968 CURVE",
"1311 968 LINE",
"1246 1355 LINE",
"81 1355 LINE",
"16 968 LINE",
"58 968 LINE",
"93 1068 OFFCURVE",
"144 1184 OFFCURVE",
"220 1285 CURVE",
"574 1285 LINE",
"574 74 LINE",
"380 40 LINE",
"380 0 LINE"
);
}
);
width = 1327;
},
{
anchors = (
{
name = bottom;
position = "{685, -4}";
},
{
name = topcap;
position = "{685, 1461}";
}
);
layerId = "FA6D65B5-4623-4FAC-A199-3F662257AC29";
paths = (
{
closed = 1;
nodes = (
"1047 0 LINE",
"1047 65 LINE",
"838 104 LINE",
"838 1258 LINE",
"1125 1258 LINE",
"1200 1162 OFFCURVE",
"1246 1047 OFFCURVE",
"1281 950 CURVE",
"1350 950 LINE",
"1285 1355 LINE",
"84 1355 LINE",
"19 950 LINE",
"88 950 LINE",
"123 1047 OFFCURVE",
"174 1162 OFFCURVE",
"250 1258 CURVE",
"537 1258 LINE",
"537 104 LINE",
"326 65 LINE",
"326 0 LINE"
);
}
);
width = 1369;
}
);
leftKerningGroup = T;
rightKerningGroup = T;
unicode = 0054;
},
{
glyphname = Tbar;
lastChange = "2018-10-29 20:09:01 +0000";
layers = (
{
components = (
{
name = T;
}
);
layerId = master01;
paths = (
{
closed = 1;
nodes = (
"1040 778 LINE",
"292 778 LINE",
"292 664 LINE",
"1040 664 LINE"
);
}
);
width = 1327;
},
{
components = (
{
name = T;
transform = "{1, 0, 0, 1, 2, 0}";
}
);
layerId = "FA6D65B5-4623-4FAC-A199-3F662257AC29";
paths = (
{
closed = 1;
nodes = (
"1121 796 LINE",
"259 796 LINE",
"259 646 LINE",
"1121 646 LINE"
);
}
);
width = 1373;
}
);
leftKerningGroup = T;
rightKerningGroup = T;
unicode = 0166;
},
{
glyphname = Thorn;
lastChange = "2018-10-29 20:09:01 +0000";
layers = (
{
layerId = master01;
paths = (
{
closed = 1;
nodes = (
"621 1355 LINE",
"86 1355 LINE",
"86 1315 LINE",
"236 1281 LINE",
"236 74 LINE",
"86 40 LINE",
"86 0 LINE",
"621 0 LINE",
"621 40 LINE",
"421 74 LINE",
"421 294 LINE",
"607 294 LINE SMOOTH",
"913 294 OFFCURVE",
"1104 424 OFFCURVE",
"1104 665 CURVE SMOOTH",
"1104 926 OFFCURVE",
"910 1068 OFFCURVE",
"634 1068 CURVE SMOOTH",
"421 1068 LINE",
"421 1281 LINE",
"621 1315 LINE"
);
},
{
closed = 1;
nodes = (
"583 998 LINE SMOOTH",
"655 998 OFFCURVE",
"700 993 OFFCURVE",
"739 977 CURVE SMOOTH",
"841 936 OFFCURVE",
"901 834 OFFCURVE",
"901 683 CURVE SMOOTH",
"901 600 OFFCURVE",
"884 519 OFFCURVE",
"831 458 CURVE SMOOTH",
"780 398 OFFCURVE",
"700 363 OFFCURVE",
"553 363 CURVE SMOOTH",
"421 363 LINE",
"421 998 LINE"
);
}
);
width = 1170;
},
{
layerId = "FA6D65B5-4623-4FAC-A199-3F662257AC29";
paths = (
{
closed = 1;
nodes = (
"746 1355 LINE",
"74 1355 LINE",
"74 1290 LINE",
"224 1251 LINE",
"224 104 LINE",
"74 65 LINE",
"74 0 LINE",
"746 0 LINE",
"746 65 LINE",
"526 104 LINE",
"526 287 LINE",
"632 287 LINE SMOOTH",
"979 287 OFFCURVE",
"1177 429 OFFCURVE",
"1177 678 CURVE SMOOTH",
"1177 924 OFFCURVE",
"977 1079 OFFCURVE",
"660 1079 CURVE SMOOTH",
"526 1079 LINE",
"526 1251 LINE",
"746 1290 LINE"
);
},
{
closed = 1;
nodes = (
"570 984 LINE SMOOTH",
"678 984 OFFCURVE",
"744 964 OFFCURVE",
"788 920 CURVE SMOOTH",
"832 876 OFFCURVE",
"855 801 OFFCURVE",
"855 693 CURVE SMOOTH",
"855 579 OFFCURVE",
"831 505 OFFCURVE",
"776 454 CURVE SMOOTH",
"723 405 OFFCURVE",
"648 382 OFFCURVE",
"539 382 CURVE SMOOTH",
"526 382 LINE",
"526 984 LINE"
);
}
);
width = 1225;
}
);
leftKerningGroup = I;
unicode = 00DE;
},
{
glyphname = U;
lastChange = "2018-10-29 20:09:01 +0000";
layers = (
{
anchors = (
{
name = bottom;
position = "{706, 0}";
},
{
name = topcap;
position = "{750, 1461}";
}
);
layerId = master01;
paths = (
{
closed = 1;
nodes = (
"558 1315 LINE",
"558 1355 LINE",
"58 1355 LINE",
"58 1315 LINE",
"216 1281 LINE",
"216 426 LINE SMOOTH",
"216 280 OFFCURVE",
"239 206 OFFCURVE",
"285 144 CURVE SMOOTH",
"363 42 OFFCURVE",
"510 -18 OFFCURVE",
"692 -18 CURVE SMOOTH",
"869 -18 OFFCURVE",
"1008 40 OFFCURVE",
"1077 141 CURVE SMOOTH",
"1123 209 OFFCURVE",
"1144 306 OFFCURVE",
"1144 454 CURVE SMOOTH",
"1144 1281 LINE",
"1302 1315 LINE",
"1302 1355 LINE",
"917 1355 LINE",
"917 1315 LINE",
"1074 1281 LINE",
"1074 528 LINE SMOOTH",
"1074 341 OFFCURVE",
"1054 234 OFFCURVE",
"1007 171 CURVE SMOOTH",
"954 99 OFFCURVE",
"855 62 OFFCURVE",
"729 62 CURVE SMOOTH",
"530 62 OFFCURVE",
"401 176 OFFCURVE",
"401 400 CURVE SMOOTH",
"401 1281 LINE"
);
}
);
width = 1362;
},
{
anchors = (
{
name = bottom;
position = "{796, 0}";
},
{
name = topcap;
position = "{820, 1461}";
}
);
layerId = "FA6D65B5-4623-4FAC-A199-3F662257AC29";
paths = (
{
closed = 1;
nodes = (
"656 1290 LINE",
"656 1355 LINE",
"46 1355 LINE",
"46 1290 LINE",
"195 1257 LINE",
"195 470 LINE SMOOTH",
"195 324 OFFCURVE",
"216 239 OFFCURVE",
"271 171 CURVE SMOOTH",
"364 49 OFFCURVE",
"532 -18 OFFCURVE",
"744 -18 CURVE SMOOTH",
"949 -18 OFFCURVE",
"1088 44 OFFCURVE",
"1169 169 CURVE SMOOTH",
"1221 252 OFFCURVE",
"1250 364 OFFCURVE",
"1250 498 CURVE SMOOTH",
"1250 1257 LINE",
"1406 1290 LINE",
"1406 1355 LINE",
"973 1355 LINE",
"973 1290 LINE",
"1128 1257 LINE",
"1128 598 LINE SMOOTH",
"1128 394 OFFCURVE",
"1105 278 OFFCURVE",
"1051 202 CURVE SMOOTH",
"998 130 OFFCURVE",
"915 92 OFFCURVE",
"808 92 CURVE SMOOTH",
"612 92 OFFCURVE",
"502 231 OFFCURVE",
"502 470 CURVE SMOOTH",
"502 1257 LINE"
);
}
);
width = 1445;
}
);
leftKerningGroup = U;
rightKerningGroup = U;
unicode = 0055;
},
{
glyphname = V;
lastChange = "2018-10-29 20:09:01 +0000";
layers = (
{
layerId = master01;
paths = (
{
closed = 1;
nodes = (
"1058 1119 LINE SMOOTH",
"1102 1244 OFFCURVE",
"1126 1287 OFFCURVE",
"1313 1315 CURVE",
"1313 1355 LINE",
"818 1355 LINE",
"818 1315 LINE",
"952 1297 OFFCURVE",
"998 1265 OFFCURVE",
"998 1206 CURVE SMOOTH",
"998 1183 OFFCURVE",
"991 1155 OFFCURVE",
"980 1123 CURVE SMOOTH",
"702 322 LINE",
"693 322 LINE",
"396 1179 LINE SMOOTH",
"385 1211 OFFCURVE",
"373 1243 OFFCURVE",
"373 1260 CURVE SMOOTH",
"373 1299 OFFCURVE",
"400 1306 OFFCURVE",
"558 1315 CURVE",
"558 1355 LINE",
"-14 1355 LINE",
"-14 1315 LINE",
"109 1306 OFFCURVE",
"136 1288 OFFCURVE",
"165 1207 CURVE SMOOTH",
"625 -18 LINE",
"655 -18 LINE"
);
}
);
width = 1269;
},
{
layerId = "FA6D65B5-4623-4FAC-A199-3F662257AC29";
paths = (
{
closed = 1;
nodes = (
"1170 1095 LINE SMOOTH",
"1227 1239 OFFCURVE",
"1258 1265 OFFCURVE",
"1417 1290 CURVE",
"1417 1355 LINE",
"873 1355 LINE",
"873 1290 LINE",
"1017 1271 OFFCURVE",
"1068 1241 OFFCURVE",
"1068 1177 CURVE SMOOTH",
"1068 1156 OFFCURVE",
"1063 1130 OFFCURVE",
"1051 1098 CURVE SMOOTH",
"801 447 LINE",
"790 447 LINE",
"528 1172 LINE SMOOTH",
"521 1192 OFFCURVE",
"517 1207 OFFCURVE",
"517 1221 CURVE SMOOTH",
"517 1265 OFFCURVE",
"560 1281 OFFCURVE",
"690 1290 CURVE",
"690 1355 LINE",
"-35 1355 LINE",
"-35 1290 LINE",
"90 1281 OFFCURVE",
"121 1262 OFFCURVE",
"155 1183 CURVE SMOOTH",
"651 -18 LINE",
"736 -18 LINE"
);
}
);
width = 1375;
}
);
unicode = 0056;
},
{
glyphname = W;
lastChange = "2018-10-29 20:09:01 +0000";
layers = (
{
anchors = (
{
name = topcap;
position = "{956, 1461}";
}
);
layerId = master01;
paths = (
{
closed = 1;
nodes = (
"950 903 LINE",
"1295 -18 LINE",
"1336 -18 LINE",
"1698 1119 LINE SMOOTH",
"1739 1246 OFFCURVE",
"1767 1287 OFFCURVE",
"1954 1315 CURVE",
"1954 1355 LINE",
"1459 1355 LINE",
"1459 1315 LINE",
"1595 1295 OFFCURVE",
"1637 1267 OFFCURVE",
"1637 1207 CURVE SMOOTH",
"1637 1181 OFFCURVE",
"1632 1156 OFFCURVE",
"1621 1123 CURVE SMOOTH",
"1373 322 LINE",
"1364 322 LINE",
"1067 1179 LINE SMOOTH",
"1054 1213 OFFCURVE",
"1047 1237 OFFCURVE",
"1047 1257 CURVE SMOOTH",
"1047 1292 OFFCURVE",
"1060 1304 OFFCURVE",
"1228 1315 CURVE",
"1228 1355 LINE",
"656 1355 LINE",
"656 1315 LINE",
"780 1306 OFFCURVE",
"806 1288 OFFCURVE",
"836 1207 CURVE SMOOTH",
"908 1014 LINE",
"693 322 LINE",
"685 322 LINE",
"387 1179 LINE SMOOTH",
"370 1228 OFFCURVE",
"364 1244 OFFCURVE",
"364 1262 CURVE SMOOTH",
"364 1294 OFFCURVE",
"384 1302 OFFCURVE",
"549 1315 CURVE",
"549 1355 LINE",
"-23 1355 LINE",
"-23 1315 LINE",
"100 1306 OFFCURVE",
"127 1288 OFFCURVE",
"157 1207 CURVE SMOOTH",
"616 -18 LINE",
"656 -18 LINE"
);
}
);
width = 1918;
},
{
anchors = (
{
name = topcap;
position = "{1117, 1461}";
}
);
layerId = "FA6D65B5-4623-4FAC-A199-3F662257AC29";
paths = (
{
closed = 1;
nodes = (
"1065 875 LINE",
"1415 -18 LINE",
"1500 -18 LINE",
"1934 1095 LINE SMOOTH",
"1989 1237 OFFCURVE",
"2028 1267 OFFCURVE",
"2181 1290 CURVE",
"2181 1355 LINE",
"1637 1355 LINE",
"1637 1290 LINE",
"1783 1272 OFFCURVE",
"1834 1241 OFFCURVE",
"1834 1181 CURVE SMOOTH",
"1834 1158 OFFCURVE",
"1825 1126 OFFCURVE",
"1815 1098 CURVE SMOOTH",
"1565 447 LINE",
"1554 447 LINE",
"1318 1172 LINE SMOOTH",
"1311 1192 OFFCURVE",
"1308 1209 OFFCURVE",
"1308 1223 CURVE SMOOTH",
"1308 1269 OFFCURVE",
"1352 1283 OFFCURVE",
"1480 1290 CURVE",
"1480 1355 LINE",
"755 1355 LINE",
"755 1290 LINE",
"880 1281 OFFCURVE",
"913 1262 OFFCURVE",
"945 1183 CURVE SMOOTH",
"1005 1030 LINE",
"781 447 LINE",
"771 447 LINE",
"535 1172 LINE SMOOTH",
"528 1192 OFFCURVE",
"524 1209 OFFCURVE",
"524 1223 CURVE SMOOTH",
"524 1265 OFFCURVE",
"547 1281 OFFCURVE",
"697 1290 CURVE",
"697 1355 LINE",
"-28 1355 LINE",
"-28 1290 LINE",
"97 1281 OFFCURVE",
"130 1262 OFFCURVE",
"162 1183 CURVE SMOOTH",
"632 -18 LINE",
"716 -18 LINE"
);
}
);
width = 2133;
}
);
leftKerningGroup = W;
rightKerningGroup = W;
unicode = 0057;
},
{
glyphname = X;
lastChange = "2018-10-29 20:09:01 +0000";
layers = (
{
layerId = master01;
paths = (
{
closed = 1;
nodes = (
"459 0 LINE",
"459 35 LINE",
"357 46 OFFCURVE",
"312 63 OFFCURVE",
"312 93 CURVE SMOOTH",
"312 109 OFFCURVE",
"320 134 OFFCURVE",
"341 162 CURVE SMOOTH",
"665 597 LINE",
"970 134 LINE SMOOTH",
"991 102 OFFCURVE",
"998 86 OFFCURVE",
"998 74 CURVE SMOOTH",
"998 55 OFFCURVE",
"972 48 OFFCURVE",
"861 39 CURVE",
"861 0 LINE",
"1389 0 LINE",
"1389 39 LINE",
"1280 48 OFFCURVE",
"1234 62 OFFCURVE",
"1199 114 CURVE SMOOTH",
"788 741 LINE",
"1125 1193 LINE",
"1192 1272 OFFCURVE",
"1239 1292 OFFCURVE",
"1366 1315 CURVE",
"1366 1355 LINE",
"929 1355 LINE",
"929 1315 LINE",
"1021 1304 OFFCURVE",
"1060 1283 OFFCURVE",
"1060 1251 CURVE SMOOTH",
"1060 1232 OFFCURVE",
"1049 1213 OFFCURVE",
"1031 1188 CURVE SMOOTH",
"748 803 LINE",
"475 1220 LINE SMOOTH",
"458 1248 OFFCURVE",
"452 1264 OFFCURVE",
"452 1280 CURVE SMOOTH",
"452 1299 OFFCURVE",
"470 1309 OFFCURVE",
"574 1315 CURVE",
"574 1355 LINE",
"42 1355 LINE",
"42 1315 LINE",
"181 1299 OFFCURVE",
"215 1285 OFFCURVE",
"245 1239 CURVE SMOOTH",
"621 664 LINE",
"248 160 LINE SMOOTH",
"188 79 OFFCURVE",
"118 53 OFFCURVE",
"-18 35 CURVE",
"-18 0 LINE"
);
}
);
width = 1385;
},
{
layerId = "FA6D65B5-4623-4FAC-A199-3F662257AC29";
paths = (
{
closed = 1;
nodes = (
"505 0 LINE",
"505 65 LINE",
"403 76 OFFCURVE",
"357 93 OFFCURVE",
"357 123 CURVE SMOOTH",
"357 139 OFFCURVE",
"366 164 OFFCURVE",
"387 192 CURVE SMOOTH",
"658 558 LINE",
"926 160 LINE SMOOTH",
"947 128 OFFCURVE",
"954 111 OFFCURVE",
"954 100 CURVE SMOOTH",
"954 81 OFFCURVE",
"920 74 OFFCURVE",
"781 65 CURVE",
"781 0 LINE",
"1512 0 LINE",
"1512 65 LINE",
"1403 74 OFFCURVE",
"1357 88 OFFCURVE",
"1322 141 CURVE SMOOTH",
"894 780 LINE",
"1186 1169 LINE SMOOTH",
"1241 1241 OFFCURVE",
"1276 1264 OFFCURVE",
"1427 1290 CURVE",
"1427 1355 LINE",
"933 1355 LINE",
"933 1290 LINE",
"1037 1280 OFFCURVE",
"1081 1258 OFFCURVE",
"1081 1227 CURVE SMOOTH",
"1081 1207 OFFCURVE",
"1070 1188 OFFCURVE",
"1052 1163 CURVE SMOOTH",
"834 869 LINE",
"618 1195 LINE SMOOTH",
"600 1223 OFFCURVE",
"595 1237 OFFCURVE",
"595 1253 CURVE SMOOTH",
"595 1276 OFFCURVE",
"625 1285 OFFCURVE",
"752 1290 CURVE",
"752 1355 LINE",
"18 1355 LINE",
"18 1290 LINE",
"162 1272 OFFCURVE",
"188 1260 OFFCURVE",
"220 1214 CURVE SMOOTH",
"597 651 LINE",
"253 190 LINE SMOOTH",
"199 116 OFFCURVE",
"139 84 OFFCURVE",
"-12 65 CURVE",
"-12 0 LINE"
);
}
);
width = 1478;
}
);
unicode = 0058;
},
{
glyphname = Y;
lastChange = "2018-10-29 20:09:01 +0000";
layers = (
{
anchors = (
{
name = topcap;
position = "{702, 1461}";
}
);
layerId = master01;
paths = (
{
closed = 1;
nodes = (
"869 0 LINE",
"869 40 LINE",
"713 74 LINE",
"713 544 LINE",
"1023 1119 LINE SMOOTH",
"1086 1236 OFFCURVE",
"1091 1287 OFFCURVE",
"1278 1315 CURVE",
"1278 1355 LINE",
"781 1355 LINE",
"781 1315 LINE",
"903 1306 OFFCURVE",
"964 1264 OFFCURVE",
"964 1199 CURVE SMOOTH",
"964 1176 OFFCURVE",
"957 1151 OFFCURVE",
"943 1123 CURVE SMOOTH",
"699 660 LINE",
"692 660 LINE",
"401 1179 LINE SMOOTH",
"387 1206 OFFCURVE",
"378 1230 OFFCURVE",
"378 1250 CURVE SMOOTH",
"378 1285 OFFCURVE",
"410 1306 OFFCURVE",
"563 1315 CURVE",
"563 1355 LINE",
"-14 1355 LINE",
"-14 1315 LINE",
"109 1306 OFFCURVE",
"128 1281 OFFCURVE",
"171 1207 CURVE SMOOTH",
"528 576 LINE",
"528 74 LINE",
"370 40 LINE",
"370 0 LINE"
);
}
);
width = 1248;
},
{
anchors = (
{
name = topcap;
position = "{752, 1461}";
}
);
layerId = "FA6D65B5-4623-4FAC-A199-3F662257AC29";
paths = (
{
closed = 1;
nodes = (
"957 0 LINE",
"957 65 LINE",
"810 102 LINE",
"810 588 LINE",
"1082 1095 LINE SMOOTH",
"1174 1264 OFFCURVE",
"1192 1278 OFFCURVE",
"1338 1290 CURVE",
"1338 1355 LINE",
"806 1355 LINE",
"806 1290 LINE",
"950 1287 OFFCURVE",
"1001 1260 OFFCURVE",
"1001 1204 CURVE SMOOTH",
"1001 1179 OFFCURVE",
"991 1142 OFFCURVE",
"968 1098 CURVE SMOOTH",
"766 713 LINE",
"759 713 LINE",
"533 1155 LINE SMOOTH",
"523 1174 OFFCURVE",
"517 1190 OFFCURVE",
"517 1206 CURVE SMOOTH",
"517 1248 OFFCURVE",
"553 1280 OFFCURVE",
"695 1290 CURVE",
"695 1355 LINE",
"-32 1355 LINE",
"-32 1290 LINE",
"92 1281 OFFCURVE",
"121 1271 OFFCURVE",
"171 1183 CURVE SMOOTH",
"507 590 LINE",
"507 102 LINE",
"357 65 LINE",
"357 0 LINE"
);
}
);
width = 1311;
}
);
leftKerningGroup = Y;
rightKerningGroup = Y;
unicode = 0059;
},
{
glyphname = Z;
lastChange = "2018-10-29 20:09:01 +0000";
layers = (
{
anchors = (
{
name = bottom;
position = "{560, 0}";
},
{
name = topcap;
position = "{648, 1461}";
}
);
layerId = master01;
paths = (
{
closed = 1;
nodes = (
"107 972 LINE",
"153 970 LINE",
"171 1023 OFFCURVE",
"211 1121 OFFCURVE",
"280 1246 CURVE SMOOTH",
"301 1285 LINE",
"861 1285 LINE",
"55 49 LINE",
"55 0 LINE",
"1021 0 LINE",
"1112 429 LINE",
"1067 435 LINE",
"1035 356 OFFCURVE",
"979 227 OFFCURVE",
"896 102 CURVE SMOOTH",
"875 70 LINE",
"287 70 LINE",
"1096 1308 LINE",
"1096 1355 LINE",
"181 1355 LINE"
);
}
);
width = 1190;
},
{
anchors = (
{
name = bottom;
position = "{560, 0}";
},
{
name = topcap;
position = "{683, 1461}";
}
);
layerId = "FA6D65B5-4623-4FAC-A199-3F662257AC29";
paths = (
{
closed = 1;
nodes = (
"84 952 LINE",
"157 952 LINE",
"174 1005 OFFCURVE",
"213 1095 OFFCURVE",
"282 1220 CURVE SMOOTH",
"303 1258 LINE",
"783 1258 LINE",
"48 67 LINE",
"48 0 LINE",
"1119 0 LINE",
"1230 461 LINE",
"1156 461 LINE",
"1125 382 OFFCURVE",
"1068 253 OFFCURVE",
"986 128 CURVE SMOOTH",
"964 97 LINE",
"456 97 LINE",
"1195 1290 LINE",
"1195 1355 LINE",
"174 1355 LINE"
);
}
);
width = 1285;
}
);
leftKerningGroup = Z;
rightKerningGroup = Z;
unicode = 005A;
},
{
glyphname = a;
lastChange = "2018-10-29 20:09:01 +0000";
layers = (
{
anchors = (
{
name = bottom;
position = "{722, 0}";
},
{
name = top;
position = "{465, 1146}";
}
);
layerId = master01;
paths = (
{
closed = 1;
nodes = (
"400 -18 OFFCURVE",
"503 44 OFFCURVE",
"572 144 CURVE",
"577 141 LINE",
"590 33 OFFCURVE",
"641 -18 OFFCURVE",
"734 -18 CURVE SMOOTH",
"810 -18 OFFCURVE",
"862 16 OFFCURVE",
"917 100 CURVE",
"887 127 LINE",
"857 90 OFFCURVE",
"834 76 OFFCURVE",
"801 76 CURVE SMOOTH",
"750 76 OFFCURVE",
"736 107 OFFCURVE",
"736 224 CURVE SMOOTH",
"736 627 LINE SMOOTH",
"736 774 OFFCURVE",
"732 817 OFFCURVE",
"713 857 CURVE SMOOTH",
"683 917 OFFCURVE",
"609 950 OFFCURVE",
"509 950 CURVE SMOOTH",
"433 950 OFFCURVE",
"354 931 OFFCURVE",
"285 896 CURVE SMOOTH",
"171 838 OFFCURVE",
"95 748 OFFCURVE",
"95 671 CURVE SMOOTH",
"95 620 OFFCURVE",
"128 586 OFFCURVE",
"176 586 CURVE SMOOTH",
"229 586 OFFCURVE",
"268 628 OFFCURVE",
"268 688 CURVE SMOOTH",
"268 708 OFFCURVE",
"264 730 OFFCURVE",
"264 750 CURVE SMOOTH",
"264 832 OFFCURVE",
"327 884 OFFCURVE",
"428 884 CURVE SMOOTH",
"530 884 OFFCURVE",
"568 829 OFFCURVE",
"568 681 CURVE SMOOTH",
"568 509 LINE",
"215 433 OFFCURVE",
"86 350 OFFCURVE",
"86 197 CURVE SMOOTH",
"86 70 OFFCURVE",
"172 -18 OFFCURVE",
"297 -18 CURVE SMOOTH"
);
},
{
closed = 1;
nodes = (
"290 86 OFFCURVE",
"243 139 OFFCURVE",
"243 234 CURVE SMOOTH",
"243 356 OFFCURVE",
"320 408 OFFCURVE",
"568 458 CURVE",
"568 204 LINE",
"523 130 OFFCURVE",
"451 86 OFFCURVE",
"375 86 CURVE SMOOTH"
);
}
);
width = 924;
},
{
anchors = (
{
name = bottom;
position = "{711, 0}";
},
{
name = top;
position = "{454, 1146}";
}
);
layerId = "FA6D65B5-4623-4FAC-A199-3F662257AC29";
paths = (
{
closed = 1;
nodes = (
"407 -18 OFFCURVE",
"500 26 OFFCURVE",
"588 121 CURVE",
"595 121 LINE",
"612 28 OFFCURVE",
"669 -18 OFFCURVE",
"783 -18 CURVE SMOOTH",
"884 -18 OFFCURVE",
"964 19 OFFCURVE",
"1040 100 CURVE",
"1000 158 LINE",
"975 130 OFFCURVE",
"949 116 OFFCURVE",
"922 116 CURVE SMOOTH",
"875 116 OFFCURVE",
"855 160 OFFCURVE",
"855 264 CURVE SMOOTH",
"855 627 LINE SMOOTH",
"855 757 OFFCURVE",
"843 818 OFFCURVE",
"815 862 CURVE SMOOTH",
"776 920 OFFCURVE",
"700 950 OFFCURVE",
"574 950 CURVE SMOOTH",
"447 950 OFFCURVE",
"331 920 OFFCURVE",
"241 862 CURVE SMOOTH",
"153 804 OFFCURVE",
"102 727 OFFCURVE",
"102 653 CURVE SMOOTH",
"102 583 OFFCURVE",
"150 533 OFFCURVE",
"218 533 CURVE SMOOTH",
"287 533 OFFCURVE",
"340 584 OFFCURVE",
"340 651 CURVE SMOOTH",
"340 676 OFFCURVE",
"333 702 OFFCURVE",
"333 729 CURVE SMOOTH",
"333 803 OFFCURVE",
"387 848 OFFCURVE",
"475 848 CURVE SMOOTH",
"560 848 OFFCURVE",
"583 806 OFFCURVE",
"583 646 CURVE SMOOTH",
"583 517 LINE",
"227 468 OFFCURVE",
"67 366 OFFCURVE",
"67 190 CURVE SMOOTH",
"67 60 OFFCURVE",
"155 -18 OFFCURVE",
"299 -18 CURVE SMOOTH"
);
},
{
closed = 1;
nodes = (
"392 148 OFFCURVE",
"361 185 OFFCURVE",
"361 262 CURVE SMOOTH",
"361 361 OFFCURVE",
"412 401 OFFCURVE",
"583 435 CURVE",
"583 199 LINE",
"551 165 OFFCURVE",
"509 148 OFFCURVE",
"461 148 CURVE SMOOTH"
);
}
);
width = 1030;
}
);
leftKerningGroup = a;
rightKerningGroup = a;
unicode = 0061;
userData = {
com.typemytype.robofont.guides = (
{
angle = 359.5;
isGlobal = 0;
magnetic = 5;
x = 0;
y = 84;
}
);
};
},
{
glyphname = acute;
lastChange = "2018-10-29 20:09:01 +0000";
layers = (
{
anchors = (
{
name = _top;
position = "{143, 1146}";
}
);
layerId = master01;
paths = (
{
closed = 1;
nodes = (
"116 1429 LINE SMOOTH",
"134 1480 OFFCURVE",
"162 1512 OFFCURVE",
"213 1512 CURVE SMOOTH",
"250 1512 OFFCURVE",
"282 1480 OFFCURVE",
"282 1436 CURVE SMOOTH",
"282 1406 OFFCURVE",
"268 1376 OFFCURVE",
"229 1329 CURVE SMOOTH",
"55 1111 LINE",
"18 1130 LINE"
);
}
);
width = 299;
},
{
anchors = (
{
name = _top;
position = "{143, 1146}";
}
);
layerId = "FA6D65B5-4623-4FAC-A199-3F662257AC29";
paths = (
{
closed = 1;
nodes = (
"90 1396 LINE SMOOTH",
"111 1471 OFFCURVE",
"153 1512 OFFCURVE",
"222 1512 CURVE SMOOTH",
"269 1512 OFFCURVE",
"301 1480 OFFCURVE",
"301 1433 CURVE SMOOTH",
"301 1397 OFFCURVE",
"283 1352 OFFCURVE",
"243 1306 CURVE SMOOTH",
"72 1111 LINE",
"18 1130 LINE"
);
}
);
width = 319;
}
);
unicode = 00B4;
},
{
glyphname = acute.cap;
lastChange = "2018-10-29 20:14:19 +0000";
layers = (
{
anchors = (
{
name = _topcap;
position = "{176, 1461}";
}
);
layerId = master01;
paths = (
{
closed = 1;
nodes = (
"271 1661 LINE SMOOTH",
"297 1681 OFFCURVE",
"320 1690 OFFCURVE",
"348 1690 CURVE SMOOTH",
"387 1690 OFFCURVE",
"424 1658 OFFCURVE",
"424 1614 CURVE SMOOTH",
"424 1573 OFFCURVE",
"396 1540 OFFCURVE",
"304 1514 CURVE SMOOTH",
"37 1436 LINE",
"18 1473 LINE"
);
}
);
width = 442;
},
{
anchors = (
{
name = _topcap;
position = "{176, 1461}";
}
);
layerId = "FA6D65B5-4623-4FAC-A199-3F662257AC29";
paths = (
{
closed = 1;
nodes = (
"238 1653 LINE SMOOTH",
"278 1683 OFFCURVE",
"315 1695 OFFCURVE",
"345 1695 CURVE SMOOTH",
"405 1695 OFFCURVE",
"442 1649 OFFCURVE",
"442 1600 CURVE SMOOTH",
"442 1556 OFFCURVE",
"412 1508 OFFCURVE",
"338 1494 CURVE SMOOTH",
"48 1438 LINE",
"18 1487 LINE"
);
}
);
width = 459;
}
);
},
{
glyphname = ae;
lastChange = "2018-10-29 20:09:01 +0000";
layers = (
{
layerId = master01;
paths = (
{
closed = 1;
nodes = (
"408 -18 OFFCURVE",
"539 60 OFFCURVE",
"623 190 CURVE",
"630 190 LINE",
"700 60 OFFCURVE",
"829 -18 OFFCURVE",
"991 -18 CURVE SMOOTH",
"1163 -18 OFFCURVE",
"1308 70 OFFCURVE",
"1369 213 CURVE SMOOTH",
"1380 238 LINE",
"1350 255 LINE",
"1329 229 LINE SMOOTH",
"1269 155 OFFCURVE",
"1162 111 OFFCURVE",
"1047 111 CURVE SMOOTH",
"838 111 OFFCURVE",
"744 245 OFFCURVE",
"744 542 CURVE",
"1387 542 LINE",
"1399 553 LINE",
"1394 813 OFFCURVE",
"1269 950 OFFCURVE",
"1038 950 CURVE SMOOTH",
"910 950 OFFCURVE",
"803 908 OFFCURVE",
"722 834 CURVE",
"692 917 OFFCURVE",
"609 950 OFFCURVE",
"509 950 CURVE SMOOTH",
"433 950 OFFCURVE",
"354 931 OFFCURVE",
"285 896 CURVE SMOOTH",
"171 838 OFFCURVE",
"95 748 OFFCURVE",
"95 671 CURVE SMOOTH",
"95 620 OFFCURVE",
"128 586 OFFCURVE",
"176 586 CURVE SMOOTH",
"229 586 OFFCURVE",
"268 628 OFFCURVE",
"268 688 CURVE SMOOTH",
"268 708 OFFCURVE",
"264 730 OFFCURVE",
"264 750 CURVE SMOOTH",
"264 832 OFFCURVE",
"327 884 OFFCURVE",
"428 884 CURVE SMOOTH",
"530 884 OFFCURVE",
"568 829 OFFCURVE",
"568 681 CURVE SMOOTH",
"568 509 LINE",
"213 433 OFFCURVE",
"86 350 OFFCURVE",
"86 195 CURVE SMOOTH",
"86 70 OFFCURVE",
"174 -18 OFFCURVE",
"299 -18 CURVE SMOOTH"
);
},
{
closed = 1;
nodes = (
"1149 896 OFFCURVE",
"1214 822 OFFCURVE",
"1214 678 CURVE SMOOTH",
"1214 649 OFFCURVE",
"1213 620 OFFCURVE",
"1209 607 CURVE",
"748 591 LINE",
"771 787 OFFCURVE",
"868 896 OFFCURVE",
"1023 896 CURVE SMOOTH"
);
},
{
closed = 1;
nodes = (
"290 86 OFFCURVE",
"243 141 OFFCURVE",
"243 234 CURVE SMOOTH",
"243 356 OFFCURVE",
"320 408 OFFCURVE",
"568 458 CURVE",
"568 375 OFFCURVE",
"581 304 OFFCURVE",
"605 243 CURVE",
"547 150 OFFCURVE",
"454 86 OFFCURVE",
"373 86 CURVE SMOOTH"
);
}
);
width = 1471;
},
{
layerId = "FA6D65B5-4623-4FAC-A199-3F662257AC29";
paths = (
{
closed = 1;
nodes = (
"433 -18 OFFCURVE",
"537 35 OFFCURVE",
"664 162 CURVE",
"671 162 LINE",
"755 46 OFFCURVE",
"894 -18 OFFCURVE",
"1061 -18 CURVE SMOOTH",
"1262 -18 OFFCURVE",
"1424 76 OFFCURVE",
"1489 231 CURVE SMOOTH",
"1498 252 LINE",
"1448 294 LINE",
"1436 280 LINE SMOOTH",
"1373 208 OFFCURVE",
"1264 164 OFFCURVE",
"1149 164 CURVE SMOOTH",
"966 164 OFFCURVE",
"875 278 OFFCURVE",
"873 510 CURVE",
"1514 510 LINE",
"1528 521 LINE",
"1519 804 OFFCURVE",
"1375 950 OFFCURVE",
"1109 950 CURVE SMOOTH",
"993 950 OFFCURVE",
"891 924 OFFCURVE",
"806 871 CURVE",
"755 928 OFFCURVE",
"688 950 OFFCURVE",
"576 950 CURVE SMOOTH",
"444 950 OFFCURVE",
"327 919 OFFCURVE",
"241 862 CURVE SMOOTH",
"155 804 OFFCURVE",
"102 723 OFFCURVE",
"102 651 CURVE SMOOTH",
"102 583 OFFCURVE",
"150 533 OFFCURVE",
"218 533 CURVE SMOOTH",
"287 533 OFFCURVE",
"340 584 OFFCURVE",
"340 651 CURVE SMOOTH",
"340 676 OFFCURVE",
"333 702 OFFCURVE",
"333 729 CURVE SMOOTH",
"333 803 OFFCURVE",
"387 848 OFFCURVE",
"475 848 CURVE SMOOTH",
"560 848 OFFCURVE",
"583 806 OFFCURVE",
"583 646 CURVE SMOOTH",
"583 517 LINE",
"225 468 OFFCURVE",
"67 366 OFFCURVE",
"67 188 CURVE SMOOTH",
"67 58 OFFCURVE",
"153 -18 OFFCURVE",
"306 -18 CURVE SMOOTH"
);
},
{
closed = 1;
nodes = (
"1188 861 OFFCURVE",
"1243 796 OFFCURVE",
"1243 678 CURVE SMOOTH",
"1243 651 OFFCURVE",
"1239 625 OFFCURVE",
"1236 607 CURVE",
"876 593 LINE",
"891 766 OFFCURVE",
"966 861 OFFCURVE",
"1088 861 CURVE SMOOTH"
);
},
{
closed = 1;
nodes = (
"401 148 OFFCURVE",
"361 188 OFFCURVE",
"361 257 CURVE SMOOTH",
"361 348 OFFCURVE",
"429 405 OFFCURVE",
"581 435 CURVE",
"583 363 OFFCURVE",
"598 290 OFFCURVE",
"628 229 CURVE",
"572 174 OFFCURVE",
"519 148 OFFCURVE",
"466 148 CURVE SMOOTH"
);
}
);
width = 1580;
}
);
leftKerningGroup = a;
rightKerningGroup = e;
unicode = 00E6;
userData = {
com.typemytype.robofont.guides = (
{
angle = 90;
isGlobal = 0;
magnetic = 5;
x = -118;
y = 0;
}
);
};
},
{
glyphname = ampersand;
lastChange = "2018-10-29 20:09:01 +0000";
layers = (
{
layerId = master01;
paths = (
{
closed = 1;
nodes = (
"373 903 OFFCURVE",
"356 1005 OFFCURVE",
"356 1068 CURVE SMOOTH",
"356 1253 OFFCURVE",
"507 1373 OFFCURVE",
"678 1373 CURVE SMOOTH",
"813 1373 OFFCURVE",
"931 1297 OFFCURVE",
"931 1165 CURVE SMOOTH",
"931 1052 OFFCURVE",
"845 920 OFFCURVE",
"598 762 CURVE SMOOTH",
"384 625 OFFCURVE",
"341 510 OFFCURVE",
"341 394 CURVE SMOOTH",
"341 236 OFFCURVE",
"419 83 OFFCURVE",
"618 83 CURVE SMOOTH",
"720 83 OFFCURVE",
"869 123 OFFCURVE",
"1000 320 CURVE SMOOTH",
"1075 435 OFFCURVE",
"1125 570 OFFCURVE",
"1125 690 CURVE SMOOTH",
"1125 750 OFFCURVE",
"1112 759 OFFCURVE",
"954 776 CURVE SMOOTH",
"954 818 LINE",
"1403 818 LINE",
"1403 776 LINE SMOOTH",
"1246 762 OFFCURVE",
"1228 744 OFFCURVE",
"1209 664 CURVE SMOOTH",
"1186 567 OFFCURVE",
"1135 412 OFFCURVE",
"1045 275 CURVE SMOOTH",
"885 25 OFFCURVE",
"690 -18 OFFCURVE",
"540 -18 CURVE SMOOTH",
"280 -18 OFFCURVE",
"158 120 OFFCURVE",
"158 317 CURVE SMOOTH",
"158 503 OFFCURVE",
"268 621 OFFCURVE",
"574 815 CURVE SMOOTH",
"755 929 OFFCURVE",
"811 1010 OFFCURVE",
"811 1121 CURVE SMOOTH",
"811 1244 OFFCURVE",
"741 1309 OFFCURVE",
"641 1309 CURVE SMOOTH",
"553 1309 OFFCURVE",
"479 1258 OFFCURVE",
"479 1148 CURVE SMOOTH",
"479 1081 OFFCURVE",
"505 1010 OFFCURVE",
"609 884 CURVE SMOOTH",
"1251 90 LINE",
"1403 40 LINE",
"1403 0 LINE",
"1096 0 LINE",
"482 766 LINE"
);
}
);
width = 1429;
},
{
layerId = "FA6D65B5-4623-4FAC-A199-3F662257AC29";
paths = (
{
closed = 1;
nodes = (
"322 910 OFFCURVE",
"303 1008 OFFCURVE",
"303 1070 CURVE SMOOTH",
"303 1262 OFFCURVE",
"489 1373 OFFCURVE",
"658 1373 CURVE SMOOTH",
"811 1373 OFFCURVE",
"931 1281 OFFCURVE",
"931 1149 CURVE SMOOTH",
"931 972 OFFCURVE",
"713 829 OFFCURVE",
"591 750 CURVE SMOOTH",
"495 686 OFFCURVE",
"356 593 OFFCURVE",
"356 410 CURVE SMOOTH",
"356 262 OFFCURVE",
"449 113 OFFCURVE",
"621 113 CURVE SMOOTH",
"744 113 OFFCURVE",
"887 190 OFFCURVE",
"984 329 CURVE SMOOTH",
"1067 449 OFFCURVE",
"1096 584 OFFCURVE",
"1096 683 CURVE SMOOTH",
"1096 752 OFFCURVE",
"1082 759 OFFCURVE",
"947 776 CURVE SMOOTH",
"947 850 LINE",
"1396 850 LINE",
"1396 776 LINE SMOOTH",
"1257 760 OFFCURVE",
"1244 736 OFFCURVE",
"1225 664 CURVE SMOOTH",
"1200 574 OFFCURVE",
"1139 415 OFFCURVE",
"1044 276 CURVE SMOOTH",
"873 26 OFFCURVE",
"690 -18 OFFCURVE",
"524 -18 CURVE SMOOTH",
"231 -18 OFFCURVE",
"100 120 OFFCURVE",
"100 319 CURVE SMOOTH",
"100 509 OFFCURVE",
"218 593 OFFCURVE",
"567 834 CURVE SMOOTH",
"708 933 OFFCURVE",
"746 1001 OFFCURVE",
"746 1116 CURVE SMOOTH",
"746 1253 OFFCURVE",
"692 1295 OFFCURVE",
"639 1295 CURVE SMOOTH",
"586 1295 OFFCURVE",
"537 1253 OFFCURVE",
"537 1158 CURVE SMOOTH",
"537 1074 OFFCURVE",
"576 1003 OFFCURVE",
"672 884 CURVE SMOOTH",
"1297 113 LINE",
"1466 63 LINE",
"1466 0 LINE",
"1063 0 LINE",
"440 766 LINE SMOOTH"
);
}
);
width = 1452;
}
);
unicode = 0026;
},
{
glyphname = apostrophe;
lastChange = "2018-10-29 20:09:01 +0000";
layers = (
{
anchors = (
{
name = _top;
position = "{120, 1146}";
}
);
layerId = master01;
paths = (
{
closed = 1;
nodes = (
"167 1192 OFFCURVE",
"220 1276 OFFCURVE",
"220 1383 CURVE SMOOTH",
"220 1452 OFFCURVE",
"178 1508 OFFCURVE",
"116 1508 CURVE SMOOTH",
"60 1508 OFFCURVE",
"18 1466 OFFCURVE",
"18 1410 CURVE SMOOTH",
"18 1322 OFFCURVE",
"121 1338 OFFCURVE",
"121 1269 CURVE SMOOTH",
"121 1244 OFFCURVE",
"86 1202 OFFCURVE",
"37 1169 CURVE",
"65 1126 LINE"
);
}
);
width = 238;
},
{
anchors = (
{
name = _top;
position = "{120, 1146}";
}
);
layerId = "FA6D65B5-4623-4FAC-A199-3F662257AC29";
paths = (
{
closed = 1;
nodes = (
"201 1148 OFFCURVE",
"269 1239 OFFCURVE",
"269 1352 CURVE SMOOTH",
"269 1448 OFFCURVE",
"218 1508 OFFCURVE",
"139 1508 CURVE SMOOTH",
"69 1508 OFFCURVE",
"18 1463 OFFCURVE",
"18 1403 CURVE SMOOTH",
"18 1309 OFFCURVE",
"136 1313 OFFCURVE",
"136 1253 CURVE SMOOTH",
"136 1221 OFFCURVE",
"102 1179 OFFCURVE",
"44 1139 CURVE",
"79 1091 LINE"
);
}
);
width = 287;
}
);
unicode = 02BC;
},
{
glyphname = asciicircum;
lastChange = "2018-10-29 20:09:01 +0000";
layers = (
{
layerId = master01;
paths = (
{
closed = 1;
nodes = (
"408 1251 LINE",
"472 1251 LINE",
"796 584 LINE",
"722 584 LINE",
"442 1142 LINE",
"435 1142 LINE",
"158 584 LINE",
"83 584 LINE"
);
}
);
width = 878;
},
{
layerId = "FA6D65B5-4623-4FAC-A199-3F662257AC29";
paths = (
{
closed = 1;
nodes = (
"396 1251 LINE",
"459 1251 LINE",
"783 584 LINE",
"674 584 LINE",
"429 1072 LINE",
"422 1072 LINE",
"181 584 LINE",
"70 584 LINE"
);
}
);
width = 854;
}
);
unicode = 005E;
},
{
glyphname = asciitilde;
lastChange = "2018-10-29 20:09:01 +0000";
layers = (
{
layerId = master01;
paths = (
{
closed = 1;
nodes = (
"141 484 OFFCURVE",
"187 632 OFFCURVE",
"348 632 CURVE SMOOTH",
"475 632 OFFCURVE",
"595 540 OFFCURVE",
"725 540 CURVE SMOOTH",
"804 540 OFFCURVE",
"829 577 OFFCURVE",
"845 632 CURVE",
"898 632 LINE",
"898 540 OFFCURVE",
"852 392 OFFCURVE",
"690 392 CURVE SMOOTH",
"565 392 OFFCURVE",
"442 486 OFFCURVE",
"313 486 CURVE SMOOTH",
"234 486 OFFCURVE",
"209 447 OFFCURVE",
"194 392 CURVE",
"141 392 LINE"
);
}
);
width = 1035;
},
{
layerId = "FA6D65B5-4623-4FAC-A199-3F662257AC29";
paths = (
{
closed = 1;
nodes = (
"123 484 OFFCURVE",
"169 632 OFFCURVE",
"331 632 CURVE SMOOTH",
"458 632 OFFCURVE",
"577 540 OFFCURVE",
"708 540 CURVE SMOOTH",
"787 540 OFFCURVE",
"811 577 OFFCURVE",
"827 632 CURVE",
"880 632 LINE",
"880 540 OFFCURVE",
"834 392 OFFCURVE",
"672 392 CURVE SMOOTH",
"547 392 OFFCURVE",
"424 486 OFFCURVE",
"296 486 CURVE SMOOTH",
"216 486 OFFCURVE",
"192 447 OFFCURVE",
"176 392 CURVE",
"123 392 LINE"
);
}
);
width = 1000;
}
);
unicode = 007E;
},
{
glyphname = asterisk;
lastChange = "2018-10-29 20:09:01 +0000";
layers = (
{
layerId = master01;
paths = (
{
closed = 1;
nodes = (
"452 1017 LINE SMOOTH",
"463 938 OFFCURVE",
"491 876 OFFCURVE",
"491 831 CURVE SMOOTH",
"491 790 OFFCURVE",
"468 760 OFFCURVE",
"426 760 CURVE SMOOTH",
"384 760 OFFCURVE",
"359 790 OFFCURVE",
"359 838 CURVE SMOOTH",
"359 889 OFFCURVE",
"391 950 OFFCURVE",
"400 1019 CURVE SMOOTH",
"407 1077 LINE",
"357 1040 LINE SMOOTH",
"285 986 OFFCURVE",
"253 905 OFFCURVE",
"183 905 CURVE SMOOTH",
"139 905 OFFCURVE",
"111 933 OFFCURVE",
"111 973 CURVE SMOOTH",
"111 1054 OFFCURVE",
"231 1040 OFFCURVE",
"334 1088 CURVE SMOOTH",
"385 1111 LINE",
"331 1133 LINE SMOOTH",
"229 1176 OFFCURVE",
"111 1162 OFFCURVE",
"111 1244 CURVE SMOOTH",
"111 1283 OFFCURVE",
"136 1315 OFFCURVE",
"183 1315 CURVE SMOOTH",
"253 1315 OFFCURVE",
"280 1236 OFFCURVE",
"359 1177 CURVE SMOOTH",
"405 1144 LINE",
"398 1204 LINE SMOOTH",
"389 1281 OFFCURVE",
"357 1324 OFFCURVE",
"357 1380 CURVE SMOOTH",
"357 1436 OFFCURVE",
"387 1461 OFFCURVE",
"424 1461 CURVE SMOOTH",
"459 1461 OFFCURVE",
"489 1436 OFFCURVE",
"489 1380 CURVE SMOOTH",
"488 1322 OFFCURVE",
"456 1285 OFFCURVE",
"449 1200 CURVE SMOOTH",
"444 1144 LINE",
"488 1179 LINE SMOOTH",
"576 1250 OFFCURVE",
"597 1316 OFFCURVE",
"664 1316 CURVE SMOOTH",
"713 1316 OFFCURVE",
"736 1283 OFFCURVE",
"736 1246 CURVE SMOOTH",
"736 1163 OFFCURVE",
"618 1177 OFFCURVE",
"516 1135 CURVE SMOOTH",
"461 1112 LINE",
"512 1089 LINE SMOOTH",
"623 1040 OFFCURVE",
"736 1056 OFFCURVE",
"736 975 CURVE SMOOTH",
"736 933 OFFCURVE",
"706 906 OFFCURVE",
"664 906 CURVE SMOOTH",
"593 906 OFFCURVE",
"561 987 OFFCURVE",
"489 1042 CURVE SMOOTH",
"444 1077 LINE"
);
}
);
width = 847;
},
{
layerId = "FA6D65B5-4623-4FAC-A199-3F662257AC29";
paths = (
{
closed = 1;
nodes = (
"466 964 LINE SMOOTH",
"470 899 OFFCURVE",
"507 868 OFFCURVE",
"507 818 CURVE SMOOTH",
"507 759 OFFCURVE",
"468 729 OFFCURVE",
"424 729 CURVE SMOOTH",
"382 729 OFFCURVE",
"345 757 OFFCURVE",
"345 820 CURVE SMOOTH",
"345 868 OFFCURVE",
"384 898 OFFCURVE",
"387 970 CURVE SMOOTH",
"391 1040 LINE",
"333 996 LINE SMOOTH",
"264 945 OFFCURVE",
"252 871 OFFCURVE",
"176 871 CURVE SMOOTH",
"132 871 OFFCURVE",
"99 910 OFFCURVE",
"99 954 CURVE SMOOTH",
"99 1060 OFFCURVE",
"234 1038 OFFCURVE",
"296 1067 CURVE SMOOTH",
"357 1095 LINE",
"290 1125 LINE SMOOTH",
"225 1153 OFFCURVE",
"95 1135 OFFCURVE",
"95 1236 CURVE SMOOTH",
"95 1276 OFFCURVE",
"127 1318 OFFCURVE",
"172 1318 CURVE SMOOTH",
"252 1318 OFFCURVE",
"262 1243 OFFCURVE",
"334 1193 CURVE SMOOTH",
"391 1155 LINE",
"384 1225 LINE SMOOTH",
"377 1290 OFFCURVE",
"343 1324 OFFCURVE",
"343 1371 CURVE SMOOTH",
"343 1433 OFFCURVE",
"382 1461 OFFCURVE",
"424 1461 CURVE SMOOTH",
"465 1461 OFFCURVE",
"505 1433 OFFCURVE",
"505 1371 CURVE SMOOTH",
"505 1322 OFFCURVE",
"466 1292 OFFCURVE",
"463 1221 CURVE SMOOTH",
"459 1155 LINE",
"516 1193 LINE SMOOTH",
"588 1243 OFFCURVE",
"598 1318 OFFCURVE",
"676 1318 CURVE SMOOTH",
"722 1318 OFFCURVE",
"755 1276 OFFCURVE",
"755 1236 CURVE SMOOTH",
"755 1135 OFFCURVE",
"618 1151 OFFCURVE",
"560 1125 CURVE SMOOTH",
"493 1095 LINE",
"554 1067 LINE SMOOTH",
"620 1037 OFFCURVE",
"752 1056 OFFCURVE",
"752 954 CURVE SMOOTH",
"752 910 OFFCURVE",
"718 871 OFFCURVE",
"674 871 CURVE SMOOTH",
"598 871 OFFCURVE",
"583 945 OFFCURVE",
"517 996 CURVE SMOOTH",
"461 1040 LINE"
);
}
);
width = 850;
}
);
unicode = 002A;
},
{
glyphname = at;
lastChange = "2018-10-29 20:09:01 +0000";
layers = (
{
layerId = master01;
paths = (
{
closed = 1;
nodes = (
"410 -252 OFFCURVE",
"100 -79 OFFCURVE",
"100 357 CURVE SMOOTH",
"100 818 OFFCURVE",
"445 1126 OFFCURVE",
"847 1126 CURVE SMOOTH",
"1206 1126 OFFCURVE",
"1427 880 OFFCURVE",
"1427 577 CURVE SMOOTH",
"1427 301 OFFCURVE",
"1244 55 OFFCURVE",
"1021 55 CURVE SMOOTH",
"905 55 OFFCURVE",
"840 120 OFFCURVE",
"840 199 CURVE SMOOTH",
"840 220 OFFCURVE",
"840 232 OFFCURVE",
"848 241 CURVE SMOOTH",
"841 243 LINE SMOOTH",
"752 123 OFFCURVE",
"656 77 OFFCURVE",
"570 77 CURVE SMOOTH",
"449 77 OFFCURVE",
"391 165 OFFCURVE",
"391 287 CURVE SMOOTH",
"391 526 OFFCURVE",
"616 810 OFFCURVE",
"831 810 CURVE SMOOTH",
"901 810 OFFCURVE",
"943 780 OFFCURVE",
"968 741 CURVE SMOOTH",
"975 741 LINE",
"994 810 LINE",
"1135 810 LINE",
"993 299 LINE SMOOTH",
"984 271 OFFCURVE",
"977 238 OFFCURVE",
"977 211 CURVE SMOOTH",
"977 157 OFFCURVE",
"1007 143 OFFCURVE",
"1049 143 CURVE SMOOTH",
"1200 143 OFFCURVE",
"1339 326 OFFCURVE",
"1339 572 CURVE SMOOTH",
"1339 901 OFFCURVE",
"1089 1047 OFFCURVE",
"829 1047 CURVE SMOOTH",
"435 1047 OFFCURVE",
"199 716 OFFCURVE",
"199 356 CURVE SMOOTH",
"199 111 OFFCURVE",
"306 -183 OFFCURVE",
"780 -183 CURVE SMOOTH",
"926 -183 OFFCURVE",
"1021 -155 OFFCURVE",
"1091 -113 CURVE SMOOTH",
"1111 -164 LINE SMOOTH",
"994 -222 OFFCURVE",
"869 -252 OFFCURVE",
"736 -252 CURVE SMOOTH"
);
},
{
closed = 1;
nodes = (
"692 174 OFFCURVE",
"773 243 OFFCURVE",
"834 352 CURVE SMOOTH",
"875 422 OFFCURVE",
"917 528 OFFCURVE",
"917 630 CURVE SMOOTH",
"917 690 OFFCURVE",
"898 734 OFFCURVE",
"840 734 CURVE SMOOTH",
"706 734 OFFCURVE",
"544 509 OFFCURVE",
"544 290 CURVE SMOOTH",
"544 208 OFFCURVE",
"567 174 OFFCURVE",
"618 174 CURVE SMOOTH"
);
}
);
width = 1540;
},
{
layerId = "FA6D65B5-4623-4FAC-A199-3F662257AC29";
paths = (
{
closed = 1;
nodes = (
"370 -280 OFFCURVE",
"79 -44 OFFCURVE",
"79 354 CURVE SMOOTH",
"79 824 OFFCURVE",
"488 1144 OFFCURVE",
"913 1144 CURVE SMOOTH",
"1302 1144 OFFCURVE",
"1524 878 OFFCURVE",
"1524 591 CURVE SMOOTH",
"1524 320 OFFCURVE",
"1325 51 OFFCURVE",
"1067 51 CURVE SMOOTH",
"1016 51 OFFCURVE",
"966 62 OFFCURVE",
"933 92 CURVE SMOOTH",
"899 121 OFFCURVE",
"887 165 OFFCURVE",
"880 211 CURVE",
"873 211 LINE",
"792 130 OFFCURVE",
"700 79 OFFCURVE",
"605 79 CURVE SMOOTH",
"526 79 OFFCURVE",
"391 114 OFFCURVE",
"391 304 CURVE SMOOTH",
"391 533 OFFCURVE",
"586 811 OFFCURVE",
"852 811 CURVE SMOOTH",
"938 811 OFFCURVE",
"973 781 OFFCURVE",
"1000 739 CURVE",
"1007 739 LINE",
"1023 811 LINE",
"1228 811 LINE",
"1086 319 LINE SMOOTH",
"1079 294 OFFCURVE",
"1074 273 OFFCURVE",
"1074 248 CURVE SMOOTH",
"1074 199 OFFCURVE",
"1095 178 OFFCURVE",
"1137 178 CURVE SMOOTH",
"1257 178 OFFCURVE",
"1389 343 OFFCURVE",
"1389 583 CURVE SMOOTH",
"1389 876 OFFCURVE",
"1190 1037 OFFCURVE",
"894 1037 CURVE SMOOTH",
"500 1037 OFFCURVE",
"204 750 OFFCURVE",
"204 363 CURVE SMOOTH",
"204 30 OFFCURVE",
"417 -187 OFFCURVE",
"824 -187 CURVE SMOOTH",
"964 -187 OFFCURVE",
"1072 -157 OFFCURVE",
"1170 -99 CURVE",
"1202 -174 LINE",
"1102 -241 OFFCURVE",
"956 -280 OFFCURVE",
"787 -280 CURVE SMOOTH"
);
},
{
closed = 1;
nodes = (
"736 174 OFFCURVE",
"811 229 OFFCURVE",
"875 373 CURVE SMOOTH",
"899 431 OFFCURVE",
"938 540 OFFCURVE",
"938 635 CURVE SMOOTH",
"938 685 OFFCURVE",
"928 716 OFFCURVE",
"885 716 CURVE SMOOTH",
"762 716 OFFCURVE",
"625 456 OFFCURVE",
"625 271 CURVE SMOOTH",
"625 206 OFFCURVE",
"642 174 OFFCURVE",
"683 174 CURVE SMOOTH"
);
}
);
width = 1619;
}
);
unicode = 0040;
},
{
glyphname = b;
lastChange = "2018-10-29 20:09:01 +0000";
layers = (
{
layerId = master01;
paths = (
{
closed = 1;
nodes = (
"778 -18 OFFCURVE",
"979 208 OFFCURVE",
"979 505 CURVE SMOOTH",
"979 769 OFFCURVE",
"820 950 OFFCURVE",
"590 950 CURVE SMOOTH",
"486 950 OFFCURVE",
"396 910 OFFCURVE",
"322 831 CURVE",
"322 1461 LINE",
"304 1461 LINE",
"25 1375 LINE",
"25 1352 LINE",
"153 1304 LINE",
"153 4 LINE",
"181 4 LINE",
"262 63 LINE",
"271 63 LINE",
"341 11 OFFCURVE",
"426 -18 OFFCURVE",
"514 -18 CURVE SMOOTH"
);
},
{
closed = 1;
nodes = (
"398 42 OFFCURVE",
"322 130 OFFCURVE",
"322 264 CURVE SMOOTH",
"322 764 LINE",
"368 820 OFFCURVE",
"436 855 OFFCURVE",
"516 855 CURVE SMOOTH",
"686 855 OFFCURVE",
"790 704 OFFCURVE",
"790 456 CURVE SMOOTH",
"790 208 OFFCURVE",
"681 42 OFFCURVE",
"514 42 CURVE SMOOTH"
);
}
);
width = 1060;
},
{
layerId = "FA6D65B5-4623-4FAC-A199-3F662257AC29";
paths = (
{
closed = 1;
nodes = (
"885 -18 OFFCURVE",
"1093 208 OFFCURVE",
"1093 505 CURVE SMOOTH",
"1093 769 OFFCURVE",
"935 950 OFFCURVE",
"704 950 CURVE SMOOTH",
"591 950 OFFCURVE",
"491 903 OFFCURVE",
"412 825 CURVE",
"412 1461 LINE",
"373 1461 LINE",
"-9 1375 LINE",
"-9 1334 LINE",
"139 1287 LINE",
"139 0 LINE",
"190 0 LINE",
"341 63 LINE",
"352 63 LINE",
"428 11 OFFCURVE",
"521 -18 OFFCURVE",
"616 -18 CURVE SMOOTH"
);
},
{
closed = 1;
nodes = (
"479 77 OFFCURVE",
"412 165 OFFCURVE",
"412 299 CURVE SMOOTH",
"412 711 LINE",
"454 774 OFFCURVE",
"512 813 OFFCURVE",
"583 813 CURVE SMOOTH",
"718 813 OFFCURVE",
"796 679 OFFCURVE",
"796 456 CURVE SMOOTH",
"796 229 OFFCURVE",
"711 77 OFFCURVE",
"581 77 CURVE SMOOTH"
);
}
);
width = 1158;
}
);
leftKerningGroup = b;
rightKerningGroup = b;
unicode = 0062;
},
{
glyphname = backslash;
lastChange = "2018-10-29 20:09:01 +0000";
layers = (
{
layerId = master01;
paths = (
{
closed = 1;
nodes = (
"206 1441 LINE",
"83 1441 LINE",
"436 -297 LINE",
"558 -297 LINE"
);
}
);
width = 641;
},
{
layerId = "FA6D65B5-4623-4FAC-A199-3F662257AC29";
paths = (
{
closed = 1;
nodes = (
"243 1441 LINE",
"67 1441 LINE",
"421 -297 LINE",
"595 -297 LINE"
);
}
);
width = 665;
}
);
unicode = 005C;
},
{
glyphname = bar;
lastChange = "2018-10-29 20:09:01 +0000";
layers = (
{
layerId = master01;
paths = (
{
closed = 1;
nodes = (
"301 1441 LINE",
"178 1441 LINE",
"178 -299 LINE",
"301 -299 LINE"
);
}
);
width = 479;
},
{
layerId = "FA6D65B5-4623-4FAC-A199-3F662257AC29";
paths = (
{
closed = 1;
nodes = (
"338 1441 LINE",
"162 1441 LINE",
"162 -280 LINE",
"338 -280 LINE"
);
}
);
width = 500;
}
);
unicode = 007C;
},
{
glyphname = bar.tnum;
lastChange = "2018-10-29 20:14:19 +0000";
layers = (
{
layerId = master01;
paths = (
{
closed = 1;
nodes = (
"326 1441 LINE",
"202 1441 LINE",
"202 -299 LINE",
"326 -299 LINE"
);
}
);
width = 528;
},
{
layerId = "FA6D65B5-4623-4FAC-A199-3F662257AC29";
paths = (
{
closed = 1;
nodes = (
"352 1441 LINE",
"176 1441 LINE",
"176 -280 LINE",
"352 -280 LINE"
);
}
);
width = 528;
}
);
userData = {
com.typemytype.robofont.mark = (
1,
0.6,
0.6,
1
);
};
},
{
glyphname = braceleft;
lastChange = "2018-10-29 20:09:01 +0000";
layers = (
{
layerId = master01;
paths = (
{
closed = 1;
nodes = (
"482 -333 OFFCURVE",
"445 -341 OFFCURVE",
"400 -341 CURVE SMOOTH",
"243 -341 OFFCURVE",
"174 -278 OFFCURVE",
"174 -123 CURVE SMOOTH",
"174 4 OFFCURVE",
"220 187 OFFCURVE",
"220 341 CURVE SMOOTH",
"220 502 OFFCURVE",
"176 563 OFFCURVE",
"51 563 CURVE",
"51 604 LINE",
"172 604 OFFCURVE",
"220 669 OFFCURVE",
"220 815 CURVE SMOOTH",
"220 949 OFFCURVE",
"174 1128 OFFCURVE",
"174 1234 CURVE SMOOTH",
"174 1378 OFFCURVE",
"260 1457 OFFCURVE",
"412 1457 CURVE SMOOTH",
"454 1457 OFFCURVE",
"489 1448 OFFCURVE",
"524 1434 CURVE",
"514 1389 LINE",
"475 1396 OFFCURVE",
"461 1397 OFFCURVE",
"442 1397 CURVE SMOOTH",
"366 1397 OFFCURVE",
"326 1332 OFFCURVE",
"326 1230 CURVE SMOOTH",
"326 1133 OFFCURVE",
"370 947 OFFCURVE",
"370 817 CURVE SMOOTH",
"370 692 OFFCURVE",
"329 618 OFFCURVE",
"243 584 CURVE",
"243 577 LINE",
"333 542 OFFCURVE",
"370 480 OFFCURVE",
"370 356 CURVE SMOOTH",
"370 220 OFFCURVE",
"326 -9 OFFCURVE",
"326 -114 CURVE SMOOTH",
"326 -229 OFFCURVE",
"361 -276 OFFCURVE",
"442 -276 CURVE SMOOTH",
"468 -276 OFFCURVE",
"491 -273 OFFCURVE",
"514 -266 CURVE",
"524 -317 LINE"
);
}
);
width = 576;
},
{
layerId = "FA6D65B5-4623-4FAC-A199-3F662257AC29";
paths = (
{
closed = 1;
nodes = (
"507 -333 OFFCURVE",
"449 -341 OFFCURVE",
"392 -341 CURVE SMOOTH",
"231 -341 OFFCURVE",
"162 -278 OFFCURVE",
"162 -123 CURVE SMOOTH",
"162 4 OFFCURVE",
"208 187 OFFCURVE",
"208 341 CURVE SMOOTH",
"208 495 OFFCURVE",
"164 547 OFFCURVE",
"39 547 CURVE",
"39 620 LINE",
"160 620 OFFCURVE",
"208 676 OFFCURVE",
"208 815 CURVE SMOOTH",
"208 949 OFFCURVE",
"162 1128 OFFCURVE",
"162 1234 CURVE SMOOTH",
"162 1378 OFFCURVE",
"248 1457 OFFCURVE",
"405 1457 CURVE SMOOTH",
"458 1457 OFFCURVE",
"514 1448 OFFCURVE",
"560 1434 CURVE",
"540 1362 LINE",
"507 1369 OFFCURVE",
"495 1371 OFFCURVE",
"477 1371 CURVE SMOOTH",
"401 1371 OFFCURVE",
"361 1322 OFFCURVE",
"361 1230 CURVE SMOOTH",
"361 1133 OFFCURVE",
"405 947 OFFCURVE",
"405 817 CURVE SMOOTH",
"405 692 OFFCURVE",
"364 618 OFFCURVE",
"278 584 CURVE",
"278 577 LINE",
"368 542 OFFCURVE",
"405 480 OFFCURVE",
"405 356 CURVE SMOOTH",
"405 220 OFFCURVE",
"361 -9 OFFCURVE",
"361 -114 CURVE SMOOTH",
"361 -209 OFFCURVE",
"396 -250 OFFCURVE",
"477 -250 CURVE SMOOTH",
"500 -250 OFFCURVE",
"521 -246 OFFCURVE",
"540 -239 CURVE",
"560 -317 LINE"
);
}
);
width = 598;
}
);
unicode = 007B;
},
{
glyphname = braceright;
lastChange = "2018-10-29 20:09:01 +0000";
layers = (
{
layerId = master01;
paths = (
{
closed = 1;
nodes = (
"84 -273 OFFCURVE",
"107 -276 OFFCURVE",
"134 -276 CURVE SMOOTH",
"215 -276 OFFCURVE",
"250 -229 OFFCURVE",
"250 -114 CURVE SMOOTH",
"250 -9 OFFCURVE",
"206 220 OFFCURVE",
"206 356 CURVE SMOOTH",
"206 480 OFFCURVE",
"243 542 OFFCURVE",
"333 577 CURVE",
"333 584 LINE",
"246 618 OFFCURVE",
"206 692 OFFCURVE",
"206 817 CURVE SMOOTH",
"206 947 OFFCURVE",
"250 1133 OFFCURVE",
"250 1230 CURVE SMOOTH",
"250 1332 OFFCURVE",
"209 1397 OFFCURVE",
"134 1397 CURVE SMOOTH",
"114 1397 OFFCURVE",
"100 1396 OFFCURVE",
"62 1389 CURVE",
"51 1434 LINE",
"86 1448 OFFCURVE",
"121 1457 OFFCURVE",
"164 1457 CURVE SMOOTH",
"315 1457 OFFCURVE",
"401 1378 OFFCURVE",
"401 1234 CURVE SMOOTH",
"401 1128 OFFCURVE",
"356 949 OFFCURVE",
"356 815 CURVE SMOOTH",
"356 669 OFFCURVE",
"403 604 OFFCURVE",
"524 604 CURVE",
"524 563 LINE",
"400 563 OFFCURVE",
"356 502 OFFCURVE",
"356 341 CURVE SMOOTH",
"356 187 OFFCURVE",
"401 4 OFFCURVE",
"401 -123 CURVE SMOOTH",
"401 -278 OFFCURVE",
"333 -341 OFFCURVE",
"176 -341 CURVE SMOOTH",
"130 -341 OFFCURVE",
"93 -333 OFFCURVE",
"51 -317 CURVE",
"62 -266 LINE"
);
}
);
width = 576;
},
{
layerId = "FA6D65B5-4623-4FAC-A199-3F662257AC29";
paths = (
{
closed = 1;
nodes = (
"77 -246 OFFCURVE",
"99 -250 OFFCURVE",
"121 -250 CURVE SMOOTH",
"202 -250 OFFCURVE",
"238 -209 OFFCURVE",
"238 -114 CURVE SMOOTH",
"238 -9 OFFCURVE",
"194 220 OFFCURVE",
"194 356 CURVE SMOOTH",
"194 480 OFFCURVE",
"231 542 OFFCURVE",
"320 577 CURVE",
"320 584 LINE",
"234 618 OFFCURVE",
"194 692 OFFCURVE",
"194 817 CURVE SMOOTH",
"194 947 OFFCURVE",
"238 1133 OFFCURVE",
"238 1230 CURVE SMOOTH",
"238 1322 OFFCURVE",
"197 1371 OFFCURVE",
"121 1371 CURVE SMOOTH",
"104 1371 OFFCURVE",
"92 1369 OFFCURVE",
"58 1362 CURVE",
"39 1434 LINE",
"84 1448 OFFCURVE",
"141 1457 OFFCURVE",
"194 1457 CURVE SMOOTH",
"350 1457 OFFCURVE",
"436 1378 OFFCURVE",
"436 1234 CURVE SMOOTH",
"436 1128 OFFCURVE",
"391 949 OFFCURVE",
"391 815 CURVE SMOOTH",
"391 676 OFFCURVE",
"438 620 OFFCURVE",
"560 620 CURVE",
"560 547 LINE",
"435 547 OFFCURVE",
"391 495 OFFCURVE",
"391 341 CURVE SMOOTH",
"391 187 OFFCURVE",
"436 4 OFFCURVE",
"436 -123 CURVE SMOOTH",
"436 -278 OFFCURVE",
"368 -341 OFFCURVE",
"206 -341 CURVE SMOOTH",
"150 -341 OFFCURVE",
"92 -333 OFFCURVE",
"39 -317 CURVE",
"58 -239 LINE"
);
}
);
width = 598;
}
);
unicode = 007D;
},
{
glyphname = bracketleft;
lastChange = "2018-10-29 20:09:01 +0000";
layers = (
{
layerId = master01;
paths = (
{
closed = 1;
nodes = (
"178 1443 LINE",
"528 1443 LINE",
"528 1387 LINE",
"320 1387 LINE",
"320 -275 LINE",
"528 -275 LINE",
"528 -329 LINE",
"178 -329 LINE"
);
}
);
width = 570;
},
{
layerId = "FA6D65B5-4623-4FAC-A199-3F662257AC29";
paths = (
{
closed = 1;
nodes = (
"162 1443 LINE",
"558 1443 LINE",
"558 1355 LINE",
"368 1355 LINE",
"368 -243 LINE",
"558 -243 LINE",
"558 -329 LINE",
"162 -329 LINE"
);
}
);
width = 593;
}
);
unicode = 005B;
},
{
glyphname = bracketright;
lastChange = "2018-10-29 20:09:01 +0000";
layers = (
{
layerId = master01;
paths = (
{
closed = 1;
nodes = (
"42 -275 LINE",
"250 -275 LINE",
"250 1387 LINE",
"42 1387 LINE",
"42 1443 LINE",
"392 1443 LINE",
"392 -329 LINE",
"42 -329 LINE"
);
}
);
width = 570;
},
{
layerId = "FA6D65B5-4623-4FAC-A199-3F662257AC29";
paths = (
{
closed = 1;
nodes = (
"35 -243 LINE",
"225 -243 LINE",
"225 1355 LINE",
"35 1355 LINE",
"35 1443 LINE",
"431 1443 LINE",
"431 -329 LINE",
"35 -329 LINE"
);
}
);
width = 593;
}
);
unicode = 005D;
},
{
glyphname = breve;
lastChange = "2018-10-29 20:09:01 +0000";
layers = (
{
anchors = (
{
name = _top;
position = "{259, 1146}";
}
);
layerId = master01;
paths = (
{
closed = 1;
nodes = (
"107 1309 OFFCURVE",
"183 1276 OFFCURVE",
"266 1276 CURVE SMOOTH",
"343 1276 OFFCURVE",
"417 1309 OFFCURVE",
"458 1390 CURVE",
"517 1390 LINE",
"461 1172 OFFCURVE",
"334 1146 OFFCURVE",
"259 1146 CURVE SMOOTH",
"157 1146 OFFCURVE",
"37 1207 OFFCURVE",
"18 1390 CURVE",
"79 1390 LINE"
);
}
);
width = 535;
},
{
anchors = (
{
name = _top;
position = "{283, 1146}";
}
);
layerId = "FA6D65B5-4623-4FAC-A199-3F662257AC29";
paths = (
{
closed = 1;
nodes = (
"134 1334 OFFCURVE",
"206 1311 OFFCURVE",
"283 1311 CURVE SMOOTH",
"357 1311 OFFCURVE",
"428 1334 OFFCURVE",
"466 1390 CURVE",
"553 1390 LINE",
"493 1156 OFFCURVE",
"357 1128 OFFCURVE",
"276 1128 CURVE SMOOTH",
"167 1128 OFFCURVE",
"39 1195 OFFCURVE",
"18 1390 CURVE",
"106 1390 LINE"
);
}
);
width = 570;
}
);
unicode = 02D8;
},
{
glyphname = breve.cap;
lastChange = "2018-10-29 20:14:19 +0000";
layers = (
{
anchors = (
{
name = _topcap;
position = "{259, 1461}";
}
);
layerId = master01;
paths = (
{
closed = 1;
nodes = (
"107 1619 OFFCURVE",
"183 1591 OFFCURVE",
"266 1591 CURVE SMOOTH",
"343 1591 OFFCURVE",
"417 1619 OFFCURVE",
"458 1688 CURVE",
"517 1688 LINE",
"461 1485 OFFCURVE",
"334 1461 OFFCURVE",
"259 1461 CURVE SMOOTH",
"157 1461 OFFCURVE",
"37 1517 OFFCURVE",
"18 1688 CURVE",
"79 1688 LINE"
);
}
);
width = 535;
},
{
anchors = (
{
name = _topcap;
position = "{276, 1459}";
}
);
layerId = "FA6D65B5-4623-4FAC-A199-3F662257AC29";
paths = (
{
closed = 1;
nodes = (
"134 1658 OFFCURVE",
"206 1642 OFFCURVE",
"283 1642 CURVE SMOOTH",
"357 1642 OFFCURVE",
"428 1658 OFFCURVE",
"466 1698 CURVE",
"553 1698 LINE",
"493 1484 OFFCURVE",
"357 1459 OFFCURVE",
"276 1459 CURVE SMOOTH",
"167 1459 OFFCURVE",
"39 1519 OFFCURVE",
"18 1698 CURVE",
"106 1698 LINE"
);
}
);
width = 570;
}
);
},
{
glyphname = brokenbar;
lastChange = "2018-10-29 20:09:01 +0000";
layers = (
{
layerId = master01;
paths = (
{
closed = 1;
nodes = (
"301 1441 LINE",
"183 1441 LINE",
"183 760 LINE",
"301 760 LINE"
);
},
{
closed = 1;
nodes = (
"301 380 LINE",
"183 380 LINE",
"183 -301 LINE",
"301 -301 LINE"
);
}
);
width = 484;
},
{
layerId = "FA6D65B5-4623-4FAC-A199-3F662257AC29";
paths = (
{
closed = 1;
nodes = (
"334 1441 LINE",
"165 1441 LINE",
"165 759 LINE",
"334 759 LINE"
);
},
{
closed = 1;
nodes = (
"334 382 LINE",
"165 382 LINE",
"165 -301 LINE",
"334 -301 LINE"
);
}
);
width = 500;
}
);
unicode = 00A6;
},
{
glyphname = bullet;
lastChange = "2018-10-29 20:09:01 +0000";
layers = (
{
layerId = master01;
paths = (
{
closed = 1;
nodes = (
"150 547 OFFCURVE",
"245 456 OFFCURVE",
"361 456 CURVE SMOOTH",
"477 456 OFFCURVE",
"572 547 OFFCURVE",
"572 658 CURVE SMOOTH",
"572 769 OFFCURVE",
"477 861 OFFCURVE",
"361 861 CURVE SMOOTH",
"245 861 OFFCURVE",
"150 769 OFFCURVE",
"150 658 CURVE SMOOTH {name = hr00;}"
);
}
);
width = 722;
},
{
layerId = "FA6D65B5-4623-4FAC-A199-3F662257AC29";
paths = (
{
closed = 1;
nodes = (
"127 524 OFFCURVE",
"243 415 OFFCURVE",
"382 415 CURVE SMOOTH",
"521 415 OFFCURVE",
"635 524 OFFCURVE",
"635 658 CURVE SMOOTH",
"635 792 OFFCURVE",
"521 901 OFFCURVE",
"382 901 CURVE SMOOTH",
"243 901 OFFCURVE",
"127 792 OFFCURVE",
"127 658 CURVE SMOOTH {name = hr00;}"
);
}
);
width = 760;
}
);
unicode = 2022;
},
{
glyphname = c;
lastChange = "2018-10-29 20:09:01 +0000";
layers = (
{
anchors = (
{
name = bottom;
position = "{512, 0}";
},
{
name = top;
position = "{542, 1146}";
}
);
layerId = master01;
paths = (
{
closed = 1;
nodes = (
"681 -18 OFFCURVE",
"813 70 OFFCURVE",
"873 225 CURVE SMOOTH",
"882 248 LINE",
"848 266 LINE",
"829 239 LINE SMOOTH",
"766 153 OFFCURVE",
"669 111 OFFCURVE",
"563 111 CURVE SMOOTH",
"371 111 OFFCURVE",
"260 250 OFFCURVE",
"260 489 CURVE SMOOTH",
"260 736 OFFCURVE",
"368 894 OFFCURVE",
"554 894 CURVE SMOOTH",
"634 894 OFFCURVE",
"667 869 OFFCURVE",
"681 753 CURVE SMOOTH",
"690 678 OFFCURVE",
"723 642 OFFCURVE",
"785 642 CURVE SMOOTH",
"836 642 OFFCURVE",
"866 683 OFFCURVE",
"866 743 CURVE SMOOTH",
"866 855 OFFCURVE",
"729 950 OFFCURVE",
"549 950 CURVE SMOOTH",
"275 950 OFFCURVE",
"81 744 OFFCURVE",
"81 454 CURVE SMOOTH",
"81 176 OFFCURVE",
"259 -18 OFFCURVE",
"510 -18 CURVE SMOOTH"
);
}
);
width = 942;
},
{
anchors = (
{
name = bottom;
position = "{552, 0}";
},
{
name = top;
position = "{572, 1146}";
}
);
layerId = "FA6D65B5-4623-4FAC-A199-3F662257AC29";
paths = (
{
closed = 1;
nodes = (
"727 -18 OFFCURVE",
"864 65 OFFCURVE",
"935 234 CURVE SMOOTH",
"943 255 LINE",
"894 294 LINE",
"882 280 LINE SMOOTH",
"817 204 OFFCURVE",
"727 164 OFFCURVE",
"621 164 CURVE SMOOTH",
"447 164 OFFCURVE",
"359 283 OFFCURVE",
"359 509 CURVE SMOOTH",
"359 732 OFFCURVE",
"445 859 OFFCURVE",
"593 859 CURVE SMOOTH",
"688 859 OFFCURVE",
"711 796 OFFCURVE",
"722 713 CURVE SMOOTH",
"729 660 OFFCURVE",
"750 598 OFFCURVE",
"838 598 CURVE SMOOTH",
"910 598 OFFCURVE",
"956 644 OFFCURVE",
"956 716 CURVE SMOOTH",
"956 850 OFFCURVE",
"797 950 OFFCURVE",
"584 950 CURVE SMOOTH",
"280 950 OFFCURVE",
"63 743 OFFCURVE",
"63 454 CURVE SMOOTH",
"63 180 OFFCURVE",
"260 -18 OFFCURVE",
"537 -18 CURVE SMOOTH"
);
}
);
width = 1005;
}
);
leftKerningGroup = e;
rightKerningGroup = c;
unicode = 0063;
},
{
glyphname = c_t;
lastChange = "2018-10-29 20:09:01 +0000";
layers = (
{
layerId = master01;
paths = (
{
closed = 1;
nodes = (
"681 -18 OFFCURVE",
"813 70 OFFCURVE",
"873 225 CURVE SMOOTH",
"882 248 LINE",
"848 266 LINE",
"829 239 LINE SMOOTH",
"767 157 OFFCURVE",
"672 111 OFFCURVE",
"561 111 CURVE SMOOTH",
"368 111 OFFCURVE",
"260 250 OFFCURVE",
"260 498 CURVE SMOOTH",
"260 744 OFFCURVE",
"368 894 OFFCURVE",
"546 894 CURVE SMOOTH",
"611 894 OFFCURVE",
"634 873 OFFCURVE",
"664 788 CURVE SMOOTH",
"695 695 OFFCURVE",
"709 678 OFFCURVE",
"757 678 CURVE SMOOTH",
"813 678 OFFCURVE",
"848 711 OFFCURVE",
"848 767 CURVE SMOOTH",
"848 831 OFFCURVE",
"799 878 OFFCURVE",
"729 917 CURVE SMOOTH",
"649 961 OFFCURVE",
"621 1031 OFFCURVE",
"621 1128 CURVE SMOOTH",
"621 1306 OFFCURVE",
"730 1417 OFFCURVE",
"901 1417 CURVE SMOOTH",
"1065 1417 OFFCURVE",
"1156 1315 OFFCURVE",
"1156 1135 CURVE SMOOTH",
"1156 1001 OFFCURVE",
"1107 922 OFFCURVE",
"1010 899 CURVE",
"1014 871 LINE",
"1128 871 LINE",
"1128 232 LINE SMOOTH",
"1128 63 OFFCURVE",
"1190 -18 OFFCURVE",
"1318 -18 CURVE SMOOTH",
"1419 -18 OFFCURVE",
"1507 30 OFFCURVE",
"1563 114 CURVE",
"1533 137 LINE",
"1491 88 OFFCURVE",
"1445 65 OFFCURVE",
"1392 65 CURVE SMOOTH",
"1318 65 OFFCURVE",
"1295 109 OFFCURVE",
"1295 248 CURVE SMOOTH",
"1295 871 LINE",
"1533 871 LINE",
"1547 933 LINE",
"1295 933 LINE",
"1302 982 OFFCURVE",
"1306 1030 OFFCURVE",
"1306 1072 CURVE SMOOTH",
"1306 1332 OFFCURVE",
"1167 1478 OFFCURVE",
"919 1478 CURVE SMOOTH",
"679 1478 OFFCURVE",
"507 1343 OFFCURVE",
"507 1155 CURVE SMOOTH",
"507 1074 OFFCURVE",
"540 998 OFFCURVE",
"607 954 CURVE",
"607 947 LINE",
"597 949 OFFCURVE",
"570 950 OFFCURVE",
"551 950 CURVE SMOOTH",
"275 950 OFFCURVE",
"81 746 OFFCURVE",
"81 454 CURVE SMOOTH",
"81 176 OFFCURVE",
"259 -18 OFFCURVE",
"510 -18 CURVE SMOOTH"
);
}
);
width = 1575;
},
{
layerId = "FA6D65B5-4623-4FAC-A199-3F662257AC29";
paths = (
{
closed = 1;
nodes = (
"727 -18 OFFCURVE",
"864 65 OFFCURVE",
"935 234 CURVE SMOOTH",
"943 255 LINE",
"894 294 LINE",
"882 280 LINE SMOOTH",
"817 204 OFFCURVE",
"727 164 OFFCURVE",
"621 164 CURVE SMOOTH",
"447 164 OFFCURVE",
"359 283 OFFCURVE",
"359 509 CURVE SMOOTH",
"359 732 OFFCURVE",
"445 859 OFFCURVE",
"593 859 CURVE SMOOTH",
"688 859 OFFCURVE",
"711 796 OFFCURVE",
"722 713 CURVE SMOOTH",
"729 660 OFFCURVE",
"750 598 OFFCURVE",
"838 598 CURVE SMOOTH",
"910 598 OFFCURVE",
"956 644 OFFCURVE",
"956 716 CURVE SMOOTH",
"956 783 OFFCURVE",
"912 836 OFFCURVE",
"848 884 CURVE SMOOTH",
"796 922 OFFCURVE",
"773 1007 OFFCURVE",
"773 1105 CURVE SMOOTH",
"773 1272 OFFCURVE",
"854 1366 OFFCURVE",
"1000 1366 CURVE SMOOTH",
"1130 1366 OFFCURVE",
"1202 1292 OFFCURVE",
"1202 1158 CURVE SMOOTH",
"1202 1033 OFFCURVE",
"1140 949 OFFCURVE",
"1016 898 CURVE",
"1026 845 LINE",
"1151 845 LINE",
"1151 232 LINE SMOOTH",
"1151 25 OFFCURVE",
"1244 -18 OFFCURVE",
"1404 -18 CURVE SMOOTH",
"1524 -18 OFFCURVE",
"1624 25 OFFCURVE",
"1684 100 CURVE",
"1644 158 LINE",
"1616 125 OFFCURVE",
"1580 109 OFFCURVE",
"1536 109 CURVE SMOOTH",
"1468 109 OFFCURVE",
"1424 118 OFFCURVE",
"1424 292 CURVE SMOOTH",
"1424 845 LINE",
"1670 845 LINE",
"1697 933 LINE",
"1424 933 LINE",
"1438 986 OFFCURVE",
"1443 1035 OFFCURVE",
"1443 1082 CURVE SMOOTH",
"1443 1309 OFFCURVE",
"1285 1459 OFFCURVE",
"1024 1459 CURVE SMOOTH",
"774 1459 OFFCURVE",
"588 1324 OFFCURVE",
"588 1140 CURVE SMOOTH",
"588 1067 OFFCURVE",
"623 991 OFFCURVE",
"690 949 CURVE",
"690 942 LINE",
"656 947 OFFCURVE",
"621 950 OFFCURVE",
"584 950 CURVE SMOOTH",
"280 950 OFFCURVE",
"63 743 OFFCURVE",
"63 454 CURVE SMOOTH",
"63 180 OFFCURVE",
"260 -18 OFFCURVE",
"537 -18 CURVE SMOOTH"
);
}
);
width = 1700;
}
);
leftKerningGroup = e;
rightKerningGroup = t;
},
{
glyphname = caron;
lastChange = "2018-10-29 20:09:01 +0000";
layers = (
{
anchors = (
{
name = _top;
position = "{243, 1146}";
}
);
layerId = master01;
paths = (
{
closed = 1;
nodes = (
"282 1109 OFFCURVE",
"303 1126 OFFCURVE",
"319 1160 CURVE SMOOTH",
"468 1491 LINE",
"431 1512 LINE",
"243 1264 LINE",
"55 1512 LINE",
"18 1491 LINE",
"164 1160 LINE SMOOTH",
"180 1126 OFFCURVE",
"199 1109 OFFCURVE",
"243 1109 CURVE SMOOTH"
);
}
);
width = 486;
},
{
anchors = (
{
name = _top;
position = "{287, 1146}";
}
);
layerId = "FA6D65B5-4623-4FAC-A199-3F662257AC29";
paths = (
{
closed = 1;
nodes = (
"343 1109 OFFCURVE",
"373 1132 OFFCURVE",
"405 1193 CURVE SMOOTH",
"556 1491 LINE",
"502 1512 LINE",
"287 1308 LINE",
"72 1512 LINE",
"18 1491 LINE",
"165 1193 LINE SMOOTH",
"195 1133 OFFCURVE",
"232 1109 OFFCURVE",
"289 1109 CURVE SMOOTH"
);
}
);
width = 574;
}
);
unicode = 02C7;
},
{
glyphname = caron.alt;
lastChange = "2018-10-29 20:09:01 +0000";
layers = (
{
anchors = (
{
name = _top;
position = "{93, 1146}";
}
);
layerId = master01;
paths = (
{
closed = 1;
nodes = (
"30 1417 LINE SMOOTH",
"33 1475 OFFCURVE",
"56 1508 OFFCURVE",
"120 1508 CURVE SMOOTH",
"151 1508 OFFCURVE",
"171 1485 OFFCURVE",
"171 1447 CURVE SMOOTH",
"171 1426 OFFCURVE",
"162 1399 OFFCURVE",
"150 1364 CURVE SMOOTH",
"63 1130 LINE",
"18 1130 LINE"
);
}
);
width = 188;
},
{
anchors = (
{
name = _top;
position = "{60, 1146}";
}
);
layerId = "FA6D65B5-4623-4FAC-A199-3F662257AC29";
paths = (
{
closed = 1;
nodes = (
"28 1378 LINE SMOOTH",
"28 1466 OFFCURVE",
"77 1508 OFFCURVE",
"146 1508 CURVE SMOOTH",
"190 1508 OFFCURVE",
"213 1482 OFFCURVE",
"213 1438 CURVE SMOOTH",
"213 1412 OFFCURVE",
"206 1380 OFFCURVE",
"190 1346 CURVE SMOOTH",
"84 1130 LINE",
"28 1130 LINE"
);
}
);
width = 231;
}
);
},
{
glyphname = caron.cap;
lastChange = "2018-10-29 20:14:19 +0000";
layers = (
{
anchors = (
{
name = _topcap;
position = "{276, 1443}";
}
);
layerId = master01;
paths = (
{
closed = 1;
nodes = (
"317 1443 OFFCURVE",
"340 1457 OFFCURVE",
"373 1491 CURVE SMOOTH",
"537 1660 LINE",
"503 1690 LINE",
"276 1588 LINE",
"53 1690 LINE",
"18 1660 LINE",
"183 1491 LINE SMOOTH",
"213 1461 OFFCURVE",
"232 1443 OFFCURVE",
"276 1443 CURVE SMOOTH"
);
}
);
width = 554;
},
{
anchors = (
{
name = _topcap;
position = "{324, 1443}";
}
);
layerId = "FA6D65B5-4623-4FAC-A199-3F662257AC29";
paths = (
{
closed = 1;
nodes = (
"363 1445 OFFCURVE",
"396 1464 OFFCURVE",
"444 1503 CURVE SMOOTH",
"627 1651 LINE",
"598 1690 LINE",
"322 1617 LINE",
"46 1690 LINE",
"18 1651 LINE",
"197 1503 LINE SMOOTH",
"245 1464 OFFCURVE",
"278 1445 OFFCURVE",
"324 1445 CURVE SMOOTH"
);
}
);
width = 644;
}
);
},
{
glyphname = cedilla;
lastChange = "2018-10-29 20:09:01 +0000";
layers = (
{
anchors = (
{
name = _bottom;
position = "{194, 0}";
}
);
layerId = master01;
paths = (
{
closed = 1;
nodes = (
"48 -436 OFFCURVE",
"100 -452 OFFCURVE",
"155 -452 CURVE SMOOTH",
"297 -452 OFFCURVE",
"387 -377 OFFCURVE",
"387 -275 CURVE SMOOTH",
"387 -176 OFFCURVE",
"310 -102 OFFCURVE",
"185 -102 CURVE",
"236 30 LINE",
"171 30 LINE",
"65 -218 LINE",
"81 -234 LINE",
"109 -225 OFFCURVE",
"144 -220 OFFCURVE",
"171 -220 CURVE SMOOTH",
"225 -220 OFFCURVE",
"255 -248 OFFCURVE",
"255 -296 CURVE SMOOTH",
"255 -348 OFFCURVE",
"211 -387 OFFCURVE",
"141 -387 CURVE SMOOTH",
"106 -387 OFFCURVE",
"83 -380 OFFCURVE",
"42 -357 CURVE",
"18 -410 LINE"
);
}
);
width = 405;
},
{
anchors = (
{
name = _bottom;
position = "{211, 0}";
}
);
layerId = "FA6D65B5-4623-4FAC-A199-3F662257AC29";
paths = (
{
closed = 1;
nodes = (
"55 -436 OFFCURVE",
"121 -452 OFFCURVE",
"190 -452 CURVE SMOOTH",
"333 -452 OFFCURVE",
"422 -377 OFFCURVE",
"422 -275 CURVE SMOOTH",
"422 -176 OFFCURVE",
"345 -102 OFFCURVE",
"220 -102 CURVE",
"271 30 LINE",
"171 30 LINE",
"65 -236 LINE",
"90 -252 LINE",
"113 -243 OFFCURVE",
"148 -238 OFFCURVE",
"171 -238 CURVE SMOOTH",
"211 -238 OFFCURVE",
"238 -259 OFFCURVE",
"238 -290 CURVE SMOOTH",
"238 -324 OFFCURVE",
"201 -356 OFFCURVE",
"146 -356 CURVE SMOOTH",
"116 -356 OFFCURVE",
"84 -348 OFFCURVE",
"51 -331 CURVE",
"18 -410 LINE"
);
}
);
width = 440;
}
);
unicode = 00B8;
},
{
glyphname = cent;
lastChange = "2018-10-29 20:09:01 +0000";
layers = (
{
layerId = master01;
paths = (
{
closed = 1;
nodes = (
"285 950 OFFCURVE",
"92 744 OFFCURVE",
"92 454 CURVE SMOOTH",
"92 176 OFFCURVE",
"269 -18 OFFCURVE",
"521 -18 CURVE SMOOTH",
"692 -18 OFFCURVE",
"824 70 OFFCURVE",
"884 225 CURVE SMOOTH",
"892 248 LINE",
"859 266 LINE",
"840 239 LINE SMOOTH",
"776 153 OFFCURVE",
"679 111 OFFCURVE",
"574 111 CURVE SMOOTH",
"382 111 OFFCURVE",
"271 250 OFFCURVE",
"271 489 CURVE SMOOTH",
"271 736 OFFCURVE",
"398 894 OFFCURVE",
"532 894 CURVE SMOOTH",
"635 894 OFFCURVE",
"693 857 OFFCURVE",
"709 753 CURVE SMOOTH",
"722 678 OFFCURVE",
"752 642 OFFCURVE",
"813 642 CURVE SMOOTH",
"864 642 OFFCURVE",
"894 683 OFFCURVE",
"894 743 CURVE SMOOTH",
"894 855 OFFCURVE",
"750 950 OFFCURVE",
"560 950 CURVE SMOOTH"
);
},
{
closed = 1;
nodes = (
"496 1179 LINE",
"496 -229 LINE",
"570 -229 LINE",
"570 1179 LINE"
);
}
);
width = 975;
},
{
layerId = "FA6D65B5-4623-4FAC-A199-3F662257AC29";
paths = (
{
closed = 1;
nodes = (
"269 950 OFFCURVE",
"76 744 OFFCURVE",
"76 454 CURVE SMOOTH",
"76 176 OFFCURVE",
"253 -18 OFFCURVE",
"505 -18 CURVE SMOOTH",
"676 -18 OFFCURVE",
"808 70 OFFCURVE",
"868 225 CURVE SMOOTH",
"876 248 LINE",
"843 266 LINE",
"824 239 LINE SMOOTH",
"760 153 OFFCURVE",
"664 111 OFFCURVE",
"558 111 CURVE SMOOTH",
"366 111 OFFCURVE",
"255 250 OFFCURVE",
"255 489 CURVE SMOOTH",
"255 736 OFFCURVE",
"382 894 OFFCURVE",
"516 894 CURVE SMOOTH",
"620 894 OFFCURVE",
"678 857 OFFCURVE",
"693 753 CURVE SMOOTH",
"706 678 OFFCURVE",
"736 642 OFFCURVE",
"797 642 CURVE SMOOTH",
"848 642 OFFCURVE",
"878 683 OFFCURVE",
"878 743 CURVE SMOOTH",
"878 855 OFFCURVE",
"734 950 OFFCURVE",
"544 950 CURVE SMOOTH"
);
},
{
closed = 1;
nodes = (
"480 1179 LINE",
"480 -229 LINE",
"554 -229 LINE",
"554 1179 LINE"
);
}
);
width = 945;
}
);
unicode = 00A2;
},
{
glyphname = cent.tnum;
lastChange = "2018-10-29 20:14:19 +0000";
layers = (
{
layerId = master01;
paths = (
{
closed = 1;
nodes = (
"320 950 OFFCURVE",
"127 744 OFFCURVE",
"127 454 CURVE SMOOTH",
"127 176 OFFCURVE",
"304 -18 OFFCURVE",
"556 -18 CURVE SMOOTH",
"727 -18 OFFCURVE",
"859 70 OFFCURVE",
"919 225 CURVE SMOOTH",
"928 248 LINE",
"894 266 LINE",
"875 239 LINE SMOOTH",
"811 153 OFFCURVE",
"715 111 OFFCURVE",
"609 111 CURVE SMOOTH",
"417 111 OFFCURVE",
"306 250 OFFCURVE",
"306 489 CURVE SMOOTH",
"306 736 OFFCURVE",
"433 894 OFFCURVE",
"567 894 CURVE SMOOTH",
"671 894 OFFCURVE",
"729 857 OFFCURVE",
"744 753 CURVE SMOOTH",
"757 678 OFFCURVE",
"787 642 OFFCURVE",
"848 642 CURVE SMOOTH",
"899 642 OFFCURVE",
"929 683 OFFCURVE",
"929 743 CURVE SMOOTH",
"929 855 OFFCURVE",
"785 950 OFFCURVE",
"595 950 CURVE SMOOTH"
);
},
{
closed = 1;
nodes = (
"532 1179 LINE",
"532 -229 LINE",
"605 -229 LINE",
"605 1179 LINE"
);
}
);
width = 1056;
},
{
layerId = "FA6D65B5-4623-4FAC-A199-3F662257AC29";
paths = (
{
closed = 1;
nodes = (
"320 950 OFFCURVE",
"127 744 OFFCURVE",
"127 454 CURVE SMOOTH",
"127 176 OFFCURVE",
"304 -18 OFFCURVE",
"556 -18 CURVE SMOOTH",
"727 -18 OFFCURVE",
"859 70 OFFCURVE",
"919 225 CURVE SMOOTH",
"928 248 LINE",
"894 266 LINE",
"875 239 LINE SMOOTH",
"811 153 OFFCURVE",
"715 111 OFFCURVE",
"609 111 CURVE SMOOTH",
"417 111 OFFCURVE",
"306 250 OFFCURVE",
"306 489 CURVE SMOOTH",
"306 736 OFFCURVE",
"433 894 OFFCURVE",
"567 894 CURVE SMOOTH",
"671 894 OFFCURVE",
"729 857 OFFCURVE",
"744 753 CURVE SMOOTH",
"757 678 OFFCURVE",
"787 642 OFFCURVE",
"848 642 CURVE SMOOTH",
"899 642 OFFCURVE",
"929 683 OFFCURVE",
"929 743 CURVE SMOOTH",
"929 855 OFFCURVE",
"785 950 OFFCURVE",
"595 950 CURVE SMOOTH"
);
},
{
closed = 1;
nodes = (
"532 1179 LINE",
"532 -229 LINE",
"605 -229 LINE",
"605 1179 LINE"
);
}
);
width = 1056;
}
);
userData = {
com.typemytype.robofont.mark = (
1,
0.6,
0.6,
1
);
};
},
{
glyphname = circumflex;
lastChange = "2018-10-29 20:09:01 +0000";
layers = (
{
anchors = (
{
name = _top;
position = "{243, 1146}";
}
);
layerId = master01;
paths = (
{
closed = 1;
nodes = (
"202 1508 OFFCURVE",
"180 1491 OFFCURVE",
"165 1457 CURVE SMOOTH",
"18 1126 LINE",
"53 1105 LINE",
"239 1353 LINE",
"429 1105 LINE",
"468 1126 LINE",
"320 1457 LINE SMOOTH",
"304 1491 OFFCURVE",
"285 1508 OFFCURVE",
"246 1508 CURVE SMOOTH"
);
}
);
width = 486;
},
{
anchors = (
{
name = _top;
position = "{287, 1146}";
}
);
layerId = "FA6D65B5-4623-4FAC-A199-3F662257AC29";
paths = (
{
closed = 1;
nodes = (
"232 1512 OFFCURVE",
"195 1487 OFFCURVE",
"165 1427 CURVE SMOOTH",
"18 1130 LINE",
"72 1109 LINE",
"287 1313 LINE",
"502 1109 LINE",
"556 1130 LINE",
"405 1427 LINE SMOOTH",
"373 1489 OFFCURVE",
"343 1512 OFFCURVE",
"289 1512 CURVE SMOOTH"
);
}
);
width = 574;
}
);
unicode = 02C6;
},
{
glyphname = circumflex.cap;
lastChange = "2018-10-29 20:14:19 +0000";
layers = (
{
anchors = (
{
name = _topcap;
position = "{276, 1461}";
}
);
layerId = master01;
paths = (
{
closed = 1;
nodes = (
"232 1690 OFFCURVE",
"213 1672 OFFCURVE",
"183 1642 CURVE SMOOTH",
"18 1473 LINE",
"53 1443 LINE",
"276 1545 LINE",
"503 1443 LINE",
"537 1473 LINE",
"373 1642 LINE SMOOTH",
"340 1676 OFFCURVE",
"317 1690 OFFCURVE",
"276 1690 CURVE SMOOTH"
);
}
);
width = 554;
},
{
anchors = (
{
name = _topcap;
position = "{322, 1461}";
}
);
layerId = "FA6D65B5-4623-4FAC-A199-3F662257AC29";
paths = (
{
closed = 1;
nodes = (
"278 1690 OFFCURVE",
"245 1670 OFFCURVE",
"197 1632 CURVE SMOOTH",
"18 1484 LINE",
"46 1445 LINE",
"322 1517 LINE",
"598 1445 LINE",
"627 1484 LINE",
"444 1632 LINE SMOOTH",
"396 1670 OFFCURVE",
"363 1690 OFFCURVE",
"324 1690 CURVE SMOOTH"
);
}
);
width = 644;
}
);
},
{
glyphname = colon;
lastChange = "2018-10-29 20:09:01 +0000";
layers = (
{
layerId = master01;
paths = (
{
closed = 1;
nodes = (
"128 641 OFFCURVE",
"176 586 OFFCURVE",
"248 586 CURVE SMOOTH",
"324 586 OFFCURVE",
"371 641 OFFCURVE",
"371 706 CURVE SMOOTH",
"371 776 OFFCURVE",
"324 829 OFFCURVE",
"248 829 CURVE SMOOTH",
"176 829 OFFCURVE",
"128 776 OFFCURVE",
"128 706 CURVE SMOOTH"
);
},
{
closed = 1;
nodes = (
"128 37 OFFCURVE",
"176 -18 OFFCURVE",
"248 -18 CURVE SMOOTH",
"324 -18 OFFCURVE",
"371 37 OFFCURVE",
"371 102 CURVE SMOOTH",
"371 172 OFFCURVE",
"324 225 OFFCURVE",
"248 225 CURVE SMOOTH",
"176 225 OFFCURVE",
"128 172 OFFCURVE",
"128 102 CURVE SMOOTH"
);
}
);
width = 500;
},
{
layerId = "FA6D65B5-4623-4FAC-A199-3F662257AC29";
paths = (
{
closed = 1;
nodes = (
"111 611 OFFCURVE",
"162 539 OFFCURVE",
"260 539 CURVE SMOOTH",
"364 539 OFFCURVE",
"417 611 OFFCURVE",
"417 683 CURVE SMOOTH",
"417 760 OFFCURVE",
"357 829 OFFCURVE",
"260 829 CURVE SMOOTH",
"165 829 OFFCURVE",
"111 760 OFFCURVE",
"111 683 CURVE SMOOTH"
);
},
{
closed = 1;
nodes = (
"111 55 OFFCURVE",
"162 -18 OFFCURVE",
"260 -18 CURVE SMOOTH",
"364 -18 OFFCURVE",
"417 55 OFFCURVE",
"417 127 CURVE SMOOTH",
"417 204 OFFCURVE",
"357 273 OFFCURVE",
"260 273 CURVE SMOOTH",
"165 273 OFFCURVE",
"111 204 OFFCURVE",
"111 127 CURVE SMOOTH"
);
}
);
width = 528;
}
);
leftKerningGroup = colon;
rightKerningGroup = colon;
unicode = 003A;
},
{
glyphname = colon.tnum;
lastChange = "2018-10-29 20:14:19 +0000";
layers = (
{
layerId = master01;
paths = (
{
closed = 1;
nodes = (
"143 641 OFFCURVE",
"190 586 OFFCURVE",
"262 586 CURVE SMOOTH",
"338 586 OFFCURVE",
"385 641 OFFCURVE",
"385 706 CURVE SMOOTH",
"385 776 OFFCURVE",
"338 829 OFFCURVE",
"262 829 CURVE SMOOTH",
"190 829 OFFCURVE",
"143 776 OFFCURVE",
"143 706 CURVE SMOOTH"
);
},
{
closed = 1;
nodes = (
"143 37 OFFCURVE",
"190 -18 OFFCURVE",
"262 -18 CURVE SMOOTH",
"338 -18 OFFCURVE",
"385 37 OFFCURVE",
"385 102 CURVE SMOOTH",
"385 172 OFFCURVE",
"338 225 OFFCURVE",
"262 225 CURVE SMOOTH",
"190 225 OFFCURVE",
"143 172 OFFCURVE",
"143 102 CURVE SMOOTH"
);
}
);
width = 528;
},
{
layerId = "FA6D65B5-4623-4FAC-A199-3F662257AC29";
paths = (
{
closed = 1;
nodes = (
"111 611 OFFCURVE",
"162 539 OFFCURVE",
"260 539 CURVE SMOOTH",
"364 539 OFFCURVE",
"417 611 OFFCURVE",
"417 683 CURVE SMOOTH",
"417 760 OFFCURVE",
"357 829 OFFCURVE",
"260 829 CURVE SMOOTH",
"165 829 OFFCURVE",
"111 760 OFFCURVE",
"111 683 CURVE SMOOTH"
);
},
{
closed = 1;
nodes = (
"111 55 OFFCURVE",
"162 -18 OFFCURVE",
"260 -18 CURVE SMOOTH",
"364 -18 OFFCURVE",
"417 55 OFFCURVE",
"417 127 CURVE SMOOTH",
"417 204 OFFCURVE",
"357 273 OFFCURVE",
"260 273 CURVE SMOOTH",
"165 273 OFFCURVE",
"111 204 OFFCURVE",
"111 127 CURVE SMOOTH"
);
}
);
width = 528;
}
);
userData = {
com.typemytype.robofont.mark = (
1,
0.6,
0.6,
1
);
};
},
{
glyphname = comma;
lastChange = "2018-10-29 20:09:01 +0000";
layers = (
{
layerId = master01;
paths = (
{
closed = 1;
nodes = (
"289 -178 OFFCURVE",
"352 -67 OFFCURVE",
"352 76 CURVE SMOOTH",
"352 157 OFFCURVE",
"303 225 OFFCURVE",
"227 225 CURVE SMOOTH",
"160 225 OFFCURVE",
"109 174 OFFCURVE",
"109 107 CURVE SMOOTH",
"109 0 OFFCURVE",
"241 19 OFFCURVE",
"241 -63 CURVE SMOOTH",
"241 -104 OFFCURVE",
"197 -165 OFFCURVE",
"132 -215 CURVE",
"167 -266 LINE"
);
}
);
width = 463;
},
{
layerId = "FA6D65B5-4623-4FAC-A199-3F662257AC29";
paths = (
{
closed = 1;
nodes = (
"310 -202 OFFCURVE",
"396 -69 OFFCURVE",
"396 83 CURVE SMOOTH",
"396 211 OFFCURVE",
"336 290 OFFCURVE",
"239 290 CURVE SMOOTH",
"153 290 OFFCURVE",
"90 232 OFFCURVE",
"90 153 CURVE SMOOTH",
"90 26 OFFCURVE",
"255 39 OFFCURVE",
"255 -44 CURVE SMOOTH",
"255 -92 OFFCURVE",
"199 -165 OFFCURVE",
"121 -222 CURVE",
"164 -280 LINE"
);
}
);
width = 488;
}
);
leftKerningGroup = period;
rightKerningGroup = period;
unicode = 002C;
},
{
glyphname = comma.tnum;
lastChange = "2018-10-29 20:14:19 +0000";
layers = (
{
layerId = master01;
paths = (
{
closed = 1;
nodes = (
"322 -178 OFFCURVE",
"385 -67 OFFCURVE",
"385 76 CURVE SMOOTH",
"385 157 OFFCURVE",
"336 225 OFFCURVE",
"260 225 CURVE SMOOTH",
"194 225 OFFCURVE",
"143 174 OFFCURVE",
"143 107 CURVE SMOOTH",
"143 0 OFFCURVE",
"275 19 OFFCURVE",
"275 -63 CURVE SMOOTH",
"275 -104 OFFCURVE",
"231 -165 OFFCURVE",
"165 -215 CURVE",
"201 -266 LINE"
);
}
);
width = 528;
},
{
layerId = "FA6D65B5-4623-4FAC-A199-3F662257AC29";
paths = (
{
closed = 1;
nodes = (
"331 -202 OFFCURVE",
"417 -69 OFFCURVE",
"417 83 CURVE SMOOTH",
"417 211 OFFCURVE",
"357 290 OFFCURVE",
"260 290 CURVE SMOOTH",
"174 290 OFFCURVE",
"111 232 OFFCURVE",
"111 153 CURVE SMOOTH",
"111 26 OFFCURVE",
"276 39 OFFCURVE",
"276 -44 CURVE SMOOTH",
"276 -92 OFFCURVE",
"220 -165 OFFCURVE",
"143 -222 CURVE",
"185 -280 LINE"
);
}
);
width = 528;
}
);
userData = {
com.typemytype.robofont.mark = (
1,
0.6,
0.6,
1
);
};
},
{
glyphname = commaaccent;
lastChange = "2018-10-29 20:09:01 +0000";
layers = (
{
anchors = (
{
name = _bottom;
position = "{116, -18}";
}
);
layerId = master01;
paths = (
{
closed = 1;
nodes = (
"158 -391 OFFCURVE",
"211 -312 OFFCURVE",
"211 -211 CURVE SMOOTH",
"211 -148 OFFCURVE",
"172 -95 OFFCURVE",
"116 -95 CURVE SMOOTH",
"60 -95 OFFCURVE",
"18 -134 OFFCURVE",
"18 -185 CURVE SMOOTH",
"18 -268 OFFCURVE",
"104 -253 OFFCURVE",
"104 -317 CURVE SMOOTH",
"104 -340 OFFCURVE",
"72 -378 OFFCURVE",
"28 -408 CURVE",
"56 -451 LINE"
);
}
);
width = 229;
},
{
anchors = (
{
name = _bottom;
position = "{136, 0}";
}
);
layerId = "FA6D65B5-4623-4FAC-A199-3F662257AC29";
paths = (
{
closed = 1;
nodes = (
"192 -410 OFFCURVE",
"255 -327 OFFCURVE",
"255 -229 CURVE SMOOTH",
"255 -144 OFFCURVE",
"209 -92 OFFCURVE",
"136 -92 CURVE SMOOTH",
"67 -92 OFFCURVE",
"18 -132 OFFCURVE",
"18 -185 CURVE SMOOTH",
"18 -260 OFFCURVE",
"100 -262 OFFCURVE",
"100 -313 CURVE SMOOTH",
"100 -340 OFFCURVE",
"76 -382 OFFCURVE",
"40 -415 CURVE",
"81 -458 LINE"
);
}
);
width = 273;
}
);
unicode = F6C3;
},
{
glyphname = copyright;
lastChange = "2018-10-29 20:09:01 +0000";
layers = (
{
layerId = master01;
paths = (
{
closed = 1;
nodes = (
"95 296 OFFCURVE",
"408 -18 OFFCURVE",
"794 -18 CURVE SMOOTH",
"1179 -18 OFFCURVE",
"1492 296 OFFCURVE",
"1492 678 CURVE SMOOTH",
"1492 1060 OFFCURVE",
"1179 1373 OFFCURVE",
"794 1373 CURVE SMOOTH",
"408 1373 OFFCURVE",
"95 1060 OFFCURVE",
"95 678 CURVE SMOOTH"
);
},
{
closed = 1;
nodes = (
"187 1014 OFFCURVE",
"454 1294 OFFCURVE",
"794 1294 CURVE SMOOTH",
"1133 1294 OFFCURVE",
"1399 1014 OFFCURVE",
"1399 678 CURVE SMOOTH",
"1399 341 OFFCURVE",
"1133 62 OFFCURVE",
"794 62 CURVE SMOOTH",
"454 62 OFFCURVE",
"187 341 OFFCURVE",
"187 678 CURVE SMOOTH"
);
},
{
closed = 1;
nodes = (
"405 445 OFFCURVE",
"563 283 OFFCURVE",
"787 283 CURVE SMOOTH",
"876 283 OFFCURVE",
"940 310 OFFCURVE",
"1008 366 CURVE",
"1054 285 LINE",
"1079 285 LINE",
"1079 568 LINE",
"1044 568 LINE",
"1033 514 OFFCURVE",
"1014 470 OFFCURVE",
"991 436 CURVE SMOOTH",
"947 373 OFFCURVE",
"887 343 OFFCURVE",
"813 343 CURVE SMOOTH",
"660 343 OFFCURVE",
"572 468 OFFCURVE",
"572 688 CURVE SMOOTH",
"572 903 OFFCURVE",
"655 1024 OFFCURVE",
"817 1024 CURVE SMOOTH",
"899 1024 OFFCURVE",
"957 993 OFFCURVE",
"1001 919 CURVE SMOOTH",
"1017 892 OFFCURVE",
"1028 869 OFFCURVE",
"1040 831 CURVE",
"1079 831 LINE",
"1079 1082 LINE",
"1054 1082 LINE",
"1012 1016 LINE",
"1005 1016 LINE",
"943 1061 OFFCURVE",
"871 1086 OFFCURVE",
"788 1086 CURVE SMOOTH",
"568 1086 OFFCURVE",
"405 915 OFFCURVE",
"405 678 CURVE SMOOTH"
);
}
);
width = 1588;
},
{
layerId = "FA6D65B5-4623-4FAC-A199-3F662257AC29";
paths = (
{
closed = 1;
nodes = (
"81 296 OFFCURVE",
"394 -18 OFFCURVE",
"780 -18 CURVE SMOOTH",
"1165 -18 OFFCURVE",
"1478 296 OFFCURVE",
"1478 678 CURVE SMOOTH",
"1478 1060 OFFCURVE",
"1165 1373 OFFCURVE",
"780 1373 CURVE SMOOTH",
"394 1373 OFFCURVE",
"81 1060 OFFCURVE",
"81 678 CURVE SMOOTH"
);
},
{
closed = 1;
nodes = (
"195 1000 OFFCURVE",
"456 1267 OFFCURVE",
"780 1267 CURVE SMOOTH",
"1105 1267 OFFCURVE",
"1362 1000 OFFCURVE",
"1362 678 CURVE SMOOTH",
"1362 356 OFFCURVE",
"1105 88 OFFCURVE",
"780 88 CURVE SMOOTH",
"456 88 OFFCURVE",
"195 356 OFFCURVE",
"195 678 CURVE SMOOTH"
);
},
{
closed = 1;
nodes = (
"431 475 OFFCURVE",
"574 336 OFFCURVE",
"774 336 CURVE SMOOTH",
"855 336 OFFCURVE",
"913 359 OFFCURVE",
"975 410 CURVE",
"1016 338 LINE",
"1038 338 LINE",
"1038 607 LINE",
"993 607 LINE",
"982 558 OFFCURVE",
"964 517 OFFCURVE",
"945 488 CURVE SMOOTH",
"910 433 OFFCURVE",
"861 405 OFFCURVE",
"799 405 CURVE SMOOTH",
"679 405 OFFCURVE",
"611 505 OFFCURVE",
"611 686 CURVE SMOOTH",
"611 862 OFFCURVE",
"676 959 OFFCURVE",
"803 959 CURVE SMOOTH",
"869 959 OFFCURVE",
"913 933 OFFCURVE",
"954 866 CURVE SMOOTH",
"975 831 OFFCURVE",
"982 810 OFFCURVE",
"989 785 CURVE",
"1038 785 LINE",
"1038 1026 LINE",
"1016 1026 LINE",
"979 966 LINE",
"972 966 LINE",
"917 1007 OFFCURVE",
"852 1030 OFFCURVE",
"774 1030 CURVE SMOOTH",
"579 1030 OFFCURVE",
"431 882 OFFCURVE",
"431 676 CURVE SMOOTH"
);
}
);
width = 1559;
}
);
unicode = 00A9;
},
{
glyphname = currency;
lastChange = "2018-10-29 20:09:01 +0000";
layers = (
{
layerId = master01;
paths = (
{
closed = 1;
nodes = (
"136 308 LINE",
"253 424 LINE",
"204 484 OFFCURVE",
"180 561 OFFCURVE",
"180 648 CURVE SMOOTH",
"180 732 OFFCURVE",
"204 806 OFFCURVE",
"253 869 CURVE",
"136 984 LINE",
"220 1068 LINE",
"336 950 LINE",
"396 998 OFFCURVE",
"473 1024 OFFCURVE",
"558 1024 CURVE SMOOTH",
"639 1024 OFFCURVE",
"715 1000 OFFCURVE",
"781 952 CURVE",
"896 1068 LINE",
"980 984 LINE",
"862 868 LINE",
"912 806 OFFCURVE",
"936 732 OFFCURVE",
"936 648 CURVE SMOOTH",
"936 565 OFFCURVE",
"912 489 OFFCURVE",
"864 424 CURVE",
"980 308 LINE",
"896 224 LINE",
"780 341 LINE",
"718 292 OFFCURVE",
"644 268 OFFCURVE",
"558 268 CURVE SMOOTH",
"473 268 OFFCURVE",
"400 292 OFFCURVE",
"336 341 CURVE",
"220 224 LINE"
);
},
{
closed = 1;
nodes = (
"697 380 OFFCURVE",
"813 500 OFFCURVE",
"813 646 CURVE SMOOTH",
"813 792 OFFCURVE",
"697 912 OFFCURVE",
"558 912 CURVE SMOOTH",
"419 912 OFFCURVE",
"303 792 OFFCURVE",
"303 648 CURVE SMOOTH",
"303 502 OFFCURVE",
"419 380 OFFCURVE",
"558 380 CURVE SMOOTH"
);
}
);
width = 1116;
},
{
layerId = "FA6D65B5-4623-4FAC-A199-3F662257AC29";
paths = (
{
closed = 1;
nodes = (
"120 313 LINE",
"238 429 LINE",
"192 486 OFFCURVE",
"169 561 OFFCURVE",
"169 648 CURVE SMOOTH",
"169 730 OFFCURVE",
"192 803 OFFCURVE",
"238 864 CURVE",
"120 979 LINE",
"215 1074 LINE",
"331 956 LINE",
"389 1000 OFFCURVE",
"465 1024 OFFCURVE",
"547 1024 CURVE SMOOTH",
"627 1024 OFFCURVE",
"700 1001 OFFCURVE",
"766 957 CURVE",
"880 1074 LINE",
"975 979 LINE",
"857 862 LINE",
"903 803 OFFCURVE",
"926 730 OFFCURVE",
"926 648 CURVE SMOOTH",
"926 567 OFFCURVE",
"903 493 OFFCURVE",
"859 429 CURVE",
"975 313 LINE",
"880 218 LINE",
"764 336 LINE",
"704 290 OFFCURVE",
"632 268 OFFCURVE",
"547 268 CURVE SMOOTH",
"465 268 OFFCURVE",
"392 290 OFFCURVE",
"331 336 CURVE",
"215 218 LINE"
);
},
{
closed = 1;
nodes = (
"681 389 OFFCURVE",
"794 505 OFFCURVE",
"794 646 CURVE SMOOTH",
"794 787 OFFCURVE",
"681 903 OFFCURVE",
"547 903 CURVE SMOOTH",
"414 903 OFFCURVE",
"301 787 OFFCURVE",
"301 648 CURVE SMOOTH",
"301 507 OFFCURVE",
"414 389 OFFCURVE",
"547 389 CURVE SMOOTH"
);
}
);
width = 1095;
}
);
unicode = 00A4;
},
{
glyphname = d;
lastChange = "2018-10-29 20:09:01 +0000";
layers = (
{
anchors = (
{
name = bottom;
position = "{447, 0}";
}
);
layerId = master01;
paths = (
{
closed = 1;
nodes = (
"563 -18 OFFCURVE",
"667 33 OFFCURVE",
"741 137 CURVE",
"748 134 LINE",
"748 -18 LINE",
"760 -18 LINE",
"1021 92 LINE",
"1021 111 LINE",
"901 137 LINE",
"901 1461 LINE",
"884 1461 LINE",
"607 1375 LINE",
"607 1352 LINE",
"736 1302 LINE",
"736 924 LINE",
"674 942 OFFCURVE",
"607 950 OFFCURVE",
"546 950 CURVE SMOOTH",
"271 950 OFFCURVE",
"83 746 OFFCURVE",
"83 451 CURVE SMOOTH",
"83 181 OFFCURVE",
"239 -18 OFFCURVE",
"447 -18 CURVE SMOOTH"
);
},
{
closed = 1;
nodes = (
"363 97 OFFCURVE",
"268 243 OFFCURVE",
"268 479 CURVE SMOOTH",
"268 732 OFFCURVE",
"378 898 OFFCURVE",
"542 898 CURVE SMOOTH",
"669 898 OFFCURVE",
"736 831 OFFCURVE",
"736 704 CURVE SMOOTH",
"736 201 LINE",
"695 137 OFFCURVE",
"612 97 OFFCURVE",
"521 97 CURVE SMOOTH"
);
}
);
width = 1068;
},
{
anchors = (
{
name = bottom;
position = "{447, 0}";
}
);
layerId = "FA6D65B5-4623-4FAC-A199-3F662257AC29";
paths = (
{
closed = 1;
nodes = (
"581 -18 OFFCURVE",
"683 23 OFFCURVE",
"755 93 CURVE",
"764 90 LINE",
"764 -18 LINE",
"796 -18 LINE",
"1162 92 LINE",
"1162 128 LINE",
"1023 172 LINE",
"1023 1461 LINE",
"984 1461 LINE",
"600 1375 LINE",
"600 1334 LINE",
"750 1285 LINE",
"750 906 LINE",
"683 936 OFFCURVE",
"612 950 OFFCURVE",
"546 950 CURVE SMOOTH",
"262 950 OFFCURVE",
"65 746 OFFCURVE",
"65 451 CURVE SMOOTH",
"65 181 OFFCURVE",
"241 -18 OFFCURVE",
"466 -18 CURVE SMOOTH"
);
},
{
closed = 1;
nodes = (
"444 109 OFFCURVE",
"366 253 OFFCURVE",
"366 480 CURVE SMOOTH",
"366 704 OFFCURVE",
"451 855 OFFCURVE",
"581 855 CURVE SMOOTH",
"683 855 OFFCURVE",
"750 767 OFFCURVE",
"750 637 CURVE SMOOTH",
"750 201 LINE",
"708 144 OFFCURVE",
"649 109 OFFCURVE",
"579 109 CURVE SMOOTH"
);
}
);
width = 1186;
}
);
leftKerningGroup = d;
rightKerningGroup = d;
unicode = 0064;
},
{
glyphname = dagger;
lastChange = "2018-10-29 20:09:01 +0000";
layers = (
{
layerId = master01;
paths = (
{
closed = 1;
nodes = (
"391 158 OFFCURVE",
"370 363 OFFCURVE",
"326 547 CURVE",
"361 667 OFFCURVE",
"382 811 OFFCURVE",
"401 1010 CURVE",
"245 1010 OFFCURVE",
"211 964 OFFCURVE",
"146 964 CURVE SMOOTH",
"93 964 OFFCURVE",
"53 1000 OFFCURVE",
"53 1047 CURVE SMOOTH",
"53 1093 OFFCURVE",
"93 1125 OFFCURVE",
"148 1125 CURVE SMOOTH",
"172 1125 OFFCURVE",
"185 1121 OFFCURVE",
"269 1089 CURVE SMOOTH",
"306 1075 OFFCURVE",
"366 1061 OFFCURVE",
"401 1056 CURVE",
"401 1077 LINE SMOOTH",
"401 1195 OFFCURVE",
"348 1301 OFFCURVE",
"348 1371 CURVE SMOOTH",
"348 1426 OFFCURVE",
"378 1459 OFFCURVE",
"426 1459 CURVE SMOOTH",
"477 1459 OFFCURVE",
"507 1426 OFFCURVE",
"507 1371 CURVE SMOOTH",
"507 1302 OFFCURVE",
"454 1193 OFFCURVE",
"454 1077 CURVE SMOOTH",
"454 1056 LINE",
"472 1058 OFFCURVE",
"524 1072 OFFCURVE",
"579 1089 CURVE SMOOTH",
"678 1123 OFFCURVE",
"686 1125 OFFCURVE",
"708 1125 CURVE SMOOTH",
"764 1125 OFFCURVE",
"803 1091 OFFCURVE",
"803 1045 CURVE SMOOTH",
"803 1000 OFFCURVE",
"764 964 OFFCURVE",
"711 964 CURVE SMOOTH",
"644 964 OFFCURVE",
"611 1010 OFFCURVE",
"454 1010 CURVE",
"468 820 OFFCURVE",
"491 676 OFFCURVE",
"530 547 CURVE",
"482 361 OFFCURVE",
"461 155 OFFCURVE",
"447 -239 CURVE",
"408 -239 LINE"
);
}
);
width = 855;
},
{
layerId = "FA6D65B5-4623-4FAC-A199-3F662257AC29";
paths = (
{
closed = 1;
nodes = (
"382 158 OFFCURVE",
"356 363 OFFCURVE",
"299 547 CURVE",
"340 662 OFFCURVE",
"368 799 OFFCURVE",
"389 989 CURVE",
"245 989 OFFCURVE",
"215 947 OFFCURVE",
"155 947 CURVE SMOOTH",
"97 947 OFFCURVE",
"53 986 OFFCURVE",
"53 1038 CURVE SMOOTH",
"53 1089 OFFCURVE",
"97 1125 OFFCURVE",
"157 1125 CURVE SMOOTH",
"178 1125 OFFCURVE",
"204 1118 OFFCURVE",
"278 1089 CURVE SMOOTH",
"310 1077 OFFCURVE",
"359 1061 OFFCURVE",
"389 1056 CURVE",
"389 1077 LINE SMOOTH",
"389 1192 OFFCURVE",
"348 1294 OFFCURVE",
"348 1362 CURVE SMOOTH",
"348 1422 OFFCURVE",
"382 1459 OFFCURVE",
"435 1459 CURVE SMOOTH",
"491 1459 OFFCURVE",
"524 1422 OFFCURVE",
"524 1362 CURVE SMOOTH",
"524 1295 OFFCURVE",
"484 1190 OFFCURVE",
"484 1077 CURVE SMOOTH",
"484 1060 LINE",
"498 1061 OFFCURVE",
"544 1074 OFFCURVE",
"588 1089 CURVE SMOOTH",
"671 1118 OFFCURVE",
"697 1125 OFFCURVE",
"716 1125 CURVE SMOOTH",
"778 1125 OFFCURVE",
"820 1088 OFFCURVE",
"820 1037 CURVE SMOOTH",
"820 986 OFFCURVE",
"778 947 OFFCURVE",
"720 947 CURVE SMOOTH",
"658 947 OFFCURVE",
"628 989 OFFCURVE",
"484 989 CURVE",
"502 808 OFFCURVE",
"530 671 OFFCURVE",
"574 547 CURVE",
"516 361 OFFCURVE",
"488 155 OFFCURVE",
"470 -239 CURVE",
"403 -239 LINE"
);
}
);
width = 871;
}
);
unicode = 2020;
},
{
glyphname = daggerdbl;
lastChange = "2018-10-29 20:09:01 +0000";
layers = (
{
layerId = master01;
paths = (
{
closed = 1;
nodes = (
"530 498 OFFCURVE",
"507 373 OFFCURVE",
"493 208 CURVE",
"649 208 OFFCURVE",
"683 253 OFFCURVE",
"750 253 CURVE SMOOTH",
"803 253 OFFCURVE",
"841 218 OFFCURVE",
"841 172 CURVE SMOOTH",
"841 127 OFFCURVE",
"803 93 OFFCURVE",
"746 93 CURVE SMOOTH",
"727 93 OFFCURVE",
"706 99 OFFCURVE",
"618 128 CURVE SMOOTH",
"567 146 OFFCURVE",
"523 157 OFFCURVE",
"493 162 CURVE",
"493 141 LINE",
"493 25 OFFCURVE",
"546 -84 OFFCURVE",
"546 -153 CURVE SMOOTH",
"546 -208 OFFCURVE",
"516 -241 OFFCURVE",
"465 -241 CURVE SMOOTH",
"417 -241 OFFCURVE",
"387 -208 OFFCURVE",
"387 -153 CURVE SMOOTH",
"387 -83 OFFCURVE",
"440 23 OFFCURVE",
"440 141 CURVE",
"440 162 LINE",
"405 157 OFFCURVE",
"345 143 OFFCURVE",
"308 128 CURVE SMOOTH",
"224 97 OFFCURVE",
"211 93 OFFCURVE",
"187 93 CURVE SMOOTH",
"132 93 OFFCURVE",
"92 125 OFFCURVE",
"92 171 CURVE SMOOTH",
"92 218 OFFCURVE",
"132 253 OFFCURVE",
"185 253 CURVE SMOOTH",
"250 253 OFFCURVE",
"283 208 OFFCURVE",
"440 208 CURVE",
"421 382 OFFCURVE",
"400 507 OFFCURVE",
"364 609 CURVE",
"400 711 OFFCURVE",
"421 836 OFFCURVE",
"440 1010 CURVE",
"283 1010 OFFCURVE",
"250 964 OFFCURVE",
"185 964 CURVE SMOOTH",
"132 964 OFFCURVE",
"92 1000 OFFCURVE",
"92 1047 CURVE SMOOTH",
"92 1093 OFFCURVE",
"132 1125 OFFCURVE",
"187 1125 CURVE SMOOTH",
"208 1125 OFFCURVE",
"220 1123 OFFCURVE",
"308 1089 CURVE SMOOTH",
"345 1075 OFFCURVE",
"405 1061 OFFCURVE",
"440 1056 CURVE",
"440 1077 LINE",
"440 1195 OFFCURVE",
"387 1301 OFFCURVE",
"387 1371 CURVE SMOOTH",
"387 1426 OFFCURVE",
"417 1459 OFFCURVE",
"465 1459 CURVE SMOOTH",
"516 1459 OFFCURVE",
"546 1426 OFFCURVE",
"546 1371 CURVE SMOOTH",
"546 1302 OFFCURVE",
"493 1193 OFFCURVE",
"493 1077 CURVE",
"493 1056 LINE",
"510 1058 OFFCURVE",
"561 1070 OFFCURVE",
"618 1089 CURVE SMOOTH",
"711 1123 OFFCURVE",
"722 1125 OFFCURVE",
"746 1125 CURVE SMOOTH",
"803 1125 OFFCURVE",
"841 1091 OFFCURVE",
"841 1045 CURVE SMOOTH",
"841 1000 OFFCURVE",
"803 964 OFFCURVE",
"750 964 CURVE SMOOTH",
"683 964 OFFCURVE",
"649 1010 OFFCURVE",
"493 1010 CURVE",
"507 845 OFFCURVE",
"530 720 OFFCURVE",
"568 609 CURVE"
);
}
);
width = 933;
},
{
layerId = "FA6D65B5-4623-4FAC-A199-3F662257AC29";
paths = (
{
closed = 1;
nodes = (
"556 503 OFFCURVE",
"528 385 OFFCURVE",
"510 229 CURVE",
"655 229 OFFCURVE",
"685 271 OFFCURVE",
"746 271 CURVE SMOOTH",
"804 271 OFFCURVE",
"847 232 OFFCURVE",
"847 181 CURVE SMOOTH",
"847 130 OFFCURVE",
"804 93 OFFCURVE",
"748 93 CURVE SMOOTH",
"725 93 OFFCURVE",
"704 99 OFFCURVE",
"614 128 CURVE SMOOTH",
"570 143 OFFCURVE",
"524 157 OFFCURVE",
"510 158 CURVE",
"510 141 LINE SMOOTH",
"510 28 OFFCURVE",
"551 -77 OFFCURVE",
"551 -144 CURVE SMOOTH",
"551 -204 OFFCURVE",
"517 -241 OFFCURVE",
"461 -241 CURVE SMOOTH",
"408 -241 OFFCURVE",
"375 -204 OFFCURVE",
"375 -144 CURVE SMOOTH",
"375 -76 OFFCURVE",
"415 26 OFFCURVE",
"415 141 CURVE SMOOTH",
"415 162 LINE",
"385 157 OFFCURVE",
"336 141 OFFCURVE",
"304 128 CURVE SMOOTH",
"216 95 OFFCURVE",
"206 93 OFFCURVE",
"183 93 CURVE SMOOTH",
"123 93 OFFCURVE",
"79 128 OFFCURVE",
"79 180 CURVE SMOOTH",
"79 232 OFFCURVE",
"123 271 OFFCURVE",
"181 271 CURVE SMOOTH",
"241 271 OFFCURVE",
"271 229 OFFCURVE",
"415 229 CURVE",
"394 394 OFFCURVE",
"366 512 OFFCURVE",
"326 609 CURVE",
"366 706 OFFCURVE",
"394 824 OFFCURVE",
"415 989 CURVE",
"271 989 OFFCURVE",
"241 947 OFFCURVE",
"181 947 CURVE SMOOTH",
"123 947 OFFCURVE",
"79 986 OFFCURVE",
"79 1038 CURVE SMOOTH",
"79 1089 OFFCURVE",
"123 1125 OFFCURVE",
"183 1125 CURVE SMOOTH",
"204 1125 OFFCURVE",
"229 1119 OFFCURVE",
"304 1089 CURVE SMOOTH",
"336 1077 OFFCURVE",
"385 1061 OFFCURVE",
"415 1056 CURVE",
"415 1077 LINE SMOOTH",
"415 1192 OFFCURVE",
"375 1294 OFFCURVE",
"375 1362 CURVE SMOOTH",
"375 1422 OFFCURVE",
"408 1459 OFFCURVE",
"461 1459 CURVE SMOOTH",
"517 1459 OFFCURVE",
"551 1422 OFFCURVE",
"551 1362 CURVE SMOOTH",
"551 1295 OFFCURVE",
"510 1190 OFFCURVE",
"510 1077 CURVE SMOOTH",
"510 1060 LINE",
"524 1061 OFFCURVE",
"570 1074 OFFCURVE",
"614 1089 CURVE SMOOTH",
"704 1121 OFFCURVE",
"722 1125 OFFCURVE",
"743 1125 CURVE SMOOTH",
"804 1125 OFFCURVE",
"847 1088 OFFCURVE",
"847 1037 CURVE SMOOTH",
"847 986 OFFCURVE",
"804 947 OFFCURVE",
"746 947 CURVE SMOOTH",
"685 947 OFFCURVE",
"655 989 OFFCURVE",
"510 989 CURVE",
"528 832 OFFCURVE",
"556 715 OFFCURVE",
"600 609 CURVE"
);
}
);
width = 926;
}
);
unicode = 2021;
},
{
glyphname = dcroat;
lastChange = "2018-10-29 20:09:01 +0000";
layers = (
{
components = (
{
name = d;
}
);
layerId = master01;
paths = (
{
closed = 1;
nodes = (
"1023 1186 LINE",
"482 1186 LINE",
"482 1072 LINE",
"1023 1072 LINE"
);
}
);
width = 1068;
},
{
components = (
{
name = d;
}
);
layerId = "FA6D65B5-4623-4FAC-A199-3F662257AC29";
paths = (
{
closed = 1;
nodes = (
"1162 1204 LINE",
"551 1204 LINE",
"551 1054 LINE",
"1162 1054 LINE"
);
}
);
width = 1186;
}
);
leftKerningGroup = d;
rightKerningGroup = d;
unicode = 0111;
},
{
glyphname = degree;
lastChange = "2018-10-29 20:09:01 +0000";
layers = (
{
layerId = master01;
paths = (
{
closed = 1;
nodes = (
"180 1033 OFFCURVE",
"86 1126 OFFCURVE",
"86 1246 CURVE SMOOTH",
"86 1366 OFFCURVE",
"180 1461 OFFCURVE",
"299 1461 CURVE SMOOTH",
"417 1461 OFFCURVE",
"512 1364 OFFCURVE",
"512 1246 CURVE SMOOTH",
"512 1126 OFFCURVE",
"419 1033 OFFCURVE",
"299 1033 CURVE SMOOTH"
);
},
{
closed = 1;
nodes = (
"158 1165 OFFCURVE",
"218 1105 OFFCURVE",
"299 1105 CURVE SMOOTH",
"384 1105 OFFCURVE",
"440 1165 OFFCURVE",
"440 1246 CURVE SMOOTH",
"440 1331 OFFCURVE",
"384 1390 OFFCURVE",
"299 1390 CURVE SMOOTH",
"218 1390 OFFCURVE",
"158 1331 OFFCURVE",
"158 1246 CURVE SMOOTH"
);
}
);
width = 598;
},
{
layerId = "FA6D65B5-4623-4FAC-A199-3F662257AC29";
paths = (
{
closed = 1;
nodes = (
"164 1033 OFFCURVE",
"70 1126 OFFCURVE",
"70 1246 CURVE SMOOTH",
"70 1366 OFFCURVE",
"164 1461 OFFCURVE",
"283 1461 CURVE SMOOTH",
"401 1461 OFFCURVE",
"496 1364 OFFCURVE",
"496 1246 CURVE SMOOTH",
"496 1126 OFFCURVE",
"403 1033 OFFCURVE",
"283 1033 CURVE SMOOTH"
);
},
{
closed = 1;
nodes = (
"169 1181 OFFCURVE",
"218 1132 OFFCURVE",
"283 1132 CURVE SMOOTH",
"352 1132 OFFCURVE",
"398 1181 OFFCURVE",
"398 1246 CURVE SMOOTH",
"398 1315 OFFCURVE",
"352 1364 OFFCURVE",
"283 1364 CURVE SMOOTH",
"218 1364 OFFCURVE",
"169 1315 OFFCURVE",
"169 1246 CURVE SMOOTH"
);
}
);
width = 567;
}
);
unicode = 00B0;
},
{
glyphname = degree.tnum;
lastChange = "2018-10-29 20:14:19 +0000";
layers = (
{
layerId = master01;
paths = (
{
closed = 1;
nodes = (
"144 1033 OFFCURVE",
"51 1126 OFFCURVE",
"51 1246 CURVE SMOOTH",
"51 1366 OFFCURVE",
"144 1461 OFFCURVE",
"264 1461 CURVE SMOOTH",
"382 1461 OFFCURVE",
"477 1364 OFFCURVE",
"477 1246 CURVE SMOOTH",
"477 1126 OFFCURVE",
"384 1033 OFFCURVE",
"264 1033 CURVE SMOOTH"
);
},
{
closed = 1;
nodes = (
"123 1165 OFFCURVE",
"183 1105 OFFCURVE",
"264 1105 CURVE SMOOTH",
"348 1105 OFFCURVE",
"405 1165 OFFCURVE",
"405 1246 CURVE SMOOTH",
"405 1331 OFFCURVE",
"348 1390 OFFCURVE",
"264 1390 CURVE SMOOTH",
"183 1390 OFFCURVE",
"123 1331 OFFCURVE",
"123 1246 CURVE SMOOTH"
);
}
);
width = 528;
},
{
layerId = "FA6D65B5-4623-4FAC-A199-3F662257AC29";
paths = (
{
closed = 1;
nodes = (
"155 1033 OFFCURVE",
"62 1126 OFFCURVE",
"62 1246 CURVE SMOOTH",
"62 1366 OFFCURVE",
"155 1461 OFFCURVE",
"275 1461 CURVE SMOOTH",
"392 1461 OFFCURVE",
"488 1364 OFFCURVE",
"488 1246 CURVE SMOOTH",
"488 1126 OFFCURVE",
"394 1033 OFFCURVE",
"275 1033 CURVE SMOOTH"
);
},
{
closed = 1;
nodes = (
"160 1181 OFFCURVE",
"209 1132 OFFCURVE",
"275 1132 CURVE SMOOTH",
"343 1132 OFFCURVE",
"389 1181 OFFCURVE",
"389 1246 CURVE SMOOTH",
"389 1315 OFFCURVE",
"343 1364 OFFCURVE",
"275 1364 CURVE SMOOTH",
"209 1364 OFFCURVE",
"160 1315 OFFCURVE",
"160 1246 CURVE SMOOTH"
);
}
);
width = 549;
}
);
userData = {
com.typemytype.robofont.mark = (
1,
0.6,
0.6,
1
);
};
},
{
glyphname = dieresis;
lastChange = "2018-10-29 20:09:01 +0000";
layers = (
{
anchors = (
{
name = _top;
position = "{278, 1146}";
}
);
layerId = master01;
paths = (
{
closed = 1;
nodes = (
"18 1223 OFFCURVE",
"56 1179 OFFCURVE",
"114 1179 CURVE SMOOTH",
"174 1179 OFFCURVE",
"211 1223 OFFCURVE",
"211 1276 CURVE SMOOTH",
"211 1332 OFFCURVE",
"174 1373 OFFCURVE",
"114 1373 CURVE SMOOTH",
"56 1373 OFFCURVE",
"18 1332 OFFCURVE",
"18 1276 CURVE SMOOTH"
);
},
{
closed = 1;
nodes = (
"347 1223 OFFCURVE",
"385 1179 OFFCURVE",
"444 1179 CURVE SMOOTH",
"503 1179 OFFCURVE",
"540 1223 OFFCURVE",
"540 1276 CURVE SMOOTH",
"540 1332 OFFCURVE",
"503 1373 OFFCURVE",
"444 1373 CURVE SMOOTH",
"385 1373 OFFCURVE",
"347 1332 OFFCURVE",
"347 1276 CURVE SMOOTH"
);
}
);
width = 558;
},
{
anchors = (
{
name = _top;
position = "{343, 1081}";
}
);
layerId = "FA6D65B5-4623-4FAC-A199-3F662257AC29";
paths = (
{
closed = 1;
nodes = (
"18 1184 OFFCURVE",
"63 1121 OFFCURVE",
"150 1121 CURVE SMOOTH",
"239 1121 OFFCURVE",
"285 1184 OFFCURVE",
"285 1246 CURVE SMOOTH",
"285 1313 OFFCURVE",
"232 1373 OFFCURVE",
"150 1373 CURVE SMOOTH",
"67 1373 OFFCURVE",
"18 1313 OFFCURVE",
"18 1246 CURVE SMOOTH"
);
},
{
closed = 1;
nodes = (
"401 1184 OFFCURVE",
"447 1121 OFFCURVE",
"533 1121 CURVE SMOOTH",
"623 1121 OFFCURVE",
"669 1184 OFFCURVE",
"669 1246 CURVE SMOOTH",
"669 1313 OFFCURVE",
"616 1373 OFFCURVE",
"533 1373 CURVE SMOOTH",
"451 1373 OFFCURVE",
"401 1313 OFFCURVE",
"401 1246 CURVE SMOOTH"
);
}
);
width = 686;
}
);
unicode = 00A8;
},
{
glyphname = dieresis.cap;
lastChange = "2018-10-29 20:14:19 +0000";
layers = (
{
anchors = (
{
name = _topcap;
position = "{278, 1508}";
}
);
layerId = master01;
paths = (
{
closed = 1;
nodes = (
"18 1552 OFFCURVE",
"56 1508 OFFCURVE",
"114 1508 CURVE SMOOTH",
"174 1508 OFFCURVE",
"211 1552 OFFCURVE",
"211 1605 CURVE SMOOTH",
"211 1661 OFFCURVE",
"174 1702 OFFCURVE",
"114 1702 CURVE SMOOTH",
"56 1702 OFFCURVE",
"18 1661 OFFCURVE",
"18 1605 CURVE SMOOTH"
);
},
{
closed = 1;
nodes = (
"347 1552 OFFCURVE",
"385 1508 OFFCURVE",
"444 1508 CURVE SMOOTH",
"503 1508 OFFCURVE",
"540 1552 OFFCURVE",
"540 1605 CURVE SMOOTH",
"540 1661 OFFCURVE",
"503 1702 OFFCURVE",
"444 1702 CURVE SMOOTH",
"385 1702 OFFCURVE",
"347 1661 OFFCURVE",
"347 1605 CURVE SMOOTH"
);
}
);
width = 558;
},
{
anchors = (
{
name = _topcap;
position = "{326, 1459}";
}
);
layerId = "FA6D65B5-4623-4FAC-A199-3F662257AC29";
paths = (
{
closed = 1;
nodes = (
"18 1521 OFFCURVE",
"60 1459 OFFCURVE",
"143 1459 CURVE SMOOTH",
"227 1459 OFFCURVE",
"271 1521 OFFCURVE",
"271 1577 CURVE SMOOTH",
"271 1640 OFFCURVE",
"222 1698 OFFCURVE",
"143 1698 CURVE SMOOTH",
"63 1698 OFFCURVE",
"18 1640 OFFCURVE",
"18 1577 CURVE SMOOTH"
);
},
{
closed = 1;
nodes = (
"382 1521 OFFCURVE",
"426 1459 OFFCURVE",
"507 1459 CURVE SMOOTH",
"593 1459 OFFCURVE",
"635 1521 OFFCURVE",
"635 1577 CURVE SMOOTH",
"635 1640 OFFCURVE",
"586 1698 OFFCURVE",
"507 1698 CURVE SMOOTH",
"428 1698 OFFCURVE",
"382 1640 OFFCURVE",
"382 1577 CURVE SMOOTH"
);
}
);
width = 653;
}
);
},
{
glyphname = divide;
lastChange = "2018-10-29 20:09:01 +0000";
layers = (
{
components = (
{
name = minus;
transform = "{1, 0, 0, 1, -37, 0}";
}
);
layerId = master01;
paths = (
{
closed = 1;
nodes = (
"326 838 OFFCURVE",
"373 783 OFFCURVE",
"445 783 CURVE SMOOTH",
"521 783 OFFCURVE",
"568 838 OFFCURVE",
"568 903 CURVE SMOOTH",
"568 973 OFFCURVE",
"521 1026 OFFCURVE",
"445 1026 CURVE SMOOTH",
"373 1026 OFFCURVE",
"326 973 OFFCURVE",
"326 903 CURVE SMOOTH"
);
},
{
closed = 1;
nodes = (
"326 234 OFFCURVE",
"373 180 OFFCURVE",
"445 180 CURVE SMOOTH",
"521 180 OFFCURVE",
"568 234 OFFCURVE",
"568 299 CURVE SMOOTH",
"568 370 OFFCURVE",
"521 422 OFFCURVE",
"445 422 CURVE SMOOTH",
"373 422 OFFCURVE",
"326 370 OFFCURVE",
"326 299 CURVE SMOOTH"
);
}
);
width = 924;
},
{
components = (
{
name = minus;
transform = "{1, 0, 0, 1, -39, 0}";
}
);
layerId = "FA6D65B5-4623-4FAC-A199-3F662257AC29";
paths = (
{
closed = 1;
nodes = (
"287 843 OFFCURVE",
"338 771 OFFCURVE",
"436 771 CURVE SMOOTH",
"540 771 OFFCURVE",
"593 843 OFFCURVE",
"593 915 CURVE SMOOTH",
"593 993 OFFCURVE",
"533 1061 OFFCURVE",
"436 1061 CURVE SMOOTH",
"341 1061 OFFCURVE",
"287 993 OFFCURVE",
"287 915 CURVE SMOOTH"
);
},
{
closed = 1;
nodes = (
"287 216 OFFCURVE",
"338 144 OFFCURVE",
"436 144 CURVE SMOOTH",
"540 144 OFFCURVE",
"593 216 OFFCURVE",
"593 289 CURVE SMOOTH",
"593 366 OFFCURVE",
"533 435 OFFCURVE",
"436 435 CURVE SMOOTH",
"341 435 OFFCURVE",
"287 366 OFFCURVE",
"287 289 CURVE SMOOTH"
);
}
);
width = 884;
}
);
unicode = 00F7;
},
{
glyphname = divide.tnum;
lastChange = "2018-10-24 14:44:36 +0000";
layers = (
{
components = (
{
name = minus.tnum;
}
);
layerId = master01;
paths = (
{
closed = 1;
nodes = (
"392 838 OFFCURVE",
"440 783 OFFCURVE",
"512 783 CURVE SMOOTH",
"588 783 OFFCURVE",
"635 838 OFFCURVE",
"635 903 CURVE SMOOTH",
"635 973 OFFCURVE",
"588 1026 OFFCURVE",
"512 1026 CURVE SMOOTH",
"440 1026 OFFCURVE",
"392 973 OFFCURVE",
"392 903 CURVE SMOOTH"
);
},
{
closed = 1;
nodes = (
"392 234 OFFCURVE",
"440 180 OFFCURVE",
"512 180 CURVE SMOOTH",
"588 180 OFFCURVE",
"635 234 OFFCURVE",
"635 299 CURVE SMOOTH",
"635 370 OFFCURVE",
"588 422 OFFCURVE",
"512 422 CURVE SMOOTH",
"440 422 OFFCURVE",
"392 370 OFFCURVE",
"392 299 CURVE SMOOTH"
);
}
);
width = 1056;
},
{
components = (
{
name = minus.tnum;
transform = "{1, 0, 0, 1, -12, 0}";
}
);
layerId = "FA6D65B5-4623-4FAC-A199-3F662257AC29";
paths = (
{
closed = 1;
nodes = (
"361 843 OFFCURVE",
"412 771 OFFCURVE",
"510 771 CURVE SMOOTH",
"614 771 OFFCURVE",
"667 843 OFFCURVE",
"667 915 CURVE SMOOTH",
"667 993 OFFCURVE",
"607 1061 OFFCURVE",
"510 1061 CURVE SMOOTH",
"415 1061 OFFCURVE",
"361 993 OFFCURVE",
"361 915 CURVE SMOOTH"
);
},
{
closed = 1;
nodes = (
"361 216 OFFCURVE",
"412 144 OFFCURVE",
"510 144 CURVE SMOOTH",
"614 144 OFFCURVE",
"667 216 OFFCURVE",
"667 289 CURVE SMOOTH",
"667 366 OFFCURVE",
"607 435 OFFCURVE",
"510 435 CURVE SMOOTH",
"415 435 OFFCURVE",
"361 366 OFFCURVE",
"361 289 CURVE SMOOTH"
);
}
);
width = 1056;
}
);
userData = {
com.typemytype.robofont.mark = (
1,
0.6,
0.6,
1
);
};
},
{
glyphname = dollar;
lastChange = "2018-10-29 20:09:01 +0000";
layers = (
{
layerId = master01;
paths = (
{
closed = 1;
nodes = (
"278 1373 OFFCURVE",
"107 1214 OFFCURVE",
"107 1000 CURVE SMOOTH",
"107 588 OFFCURVE",
"693 623 OFFCURVE",
"693 280 CURVE SMOOTH",
"693 146 OFFCURVE",
"604 56 OFFCURVE",
"468 56 CURVE SMOOTH",
"371 56 OFFCURVE",
"315 102 OFFCURVE",
"294 197 CURVE SMOOTH",
"276 278 OFFCURVE",
"241 317 OFFCURVE",
"187 317 CURVE SMOOTH",
"128 317 OFFCURVE",
"92 276 OFFCURVE",
"92 213 CURVE SMOOTH",
"92 86 OFFCURVE",
"245 -16 OFFCURVE",
"433 -16 CURVE SMOOTH",
"674 -16 OFFCURVE",
"855 155 OFFCURVE",
"855 384 CURVE SMOOTH",
"855 797 OFFCURVE",
"292 753 OFFCURVE",
"292 1096 CURVE SMOOTH",
"292 1218 OFFCURVE",
"370 1301 OFFCURVE",
"484 1301 CURVE SMOOTH",
"561 1301 OFFCURVE",
"612 1253 OFFCURVE",
"634 1160 CURVE SMOOTH",
"651 1077 OFFCURVE",
"685 1040 OFFCURVE",
"741 1040 CURVE SMOOTH",
"799 1040 OFFCURVE",
"836 1081 OFFCURVE",
"836 1144 CURVE SMOOTH",
"836 1271 OFFCURVE",
"692 1373 OFFCURVE",
"510 1373 CURVE SMOOTH {name = hr00;}"
);
},
{
closed = 1;
nodes = (
"452 1563 LINE",
"452 -180 LINE",
"526 -180 LINE",
"526 1563 LINE"
);
}
);
width = 945;
},
{
layerId = "FA6D65B5-4623-4FAC-A199-3F662257AC29";
paths = (
{
closed = 1;
nodes = (
"269 1373 OFFCURVE",
"74 1214 OFFCURVE",
"74 1000 CURVE SMOOTH",
"74 560 OFFCURVE",
"695 614 OFFCURVE",
"695 262 CURVE SMOOTH",
"695 155 OFFCURVE",
"612 86 OFFCURVE",
"488 86 CURVE SMOOTH",
"391 86 OFFCURVE",
"334 132 OFFCURVE",
"313 227 CURVE SMOOTH",
"292 313 OFFCURVE",
"252 356 OFFCURVE",
"188 356 CURVE SMOOTH",
"120 356 OFFCURVE",
"76 312 OFFCURVE",
"76 243 CURVE SMOOTH",
"76 100 OFFCURVE",
"243 -16 OFFCURVE",
"452 -16 CURVE SMOOTH",
"725 -16 OFFCURVE",
"928 155 OFFCURVE",
"928 384 CURVE SMOOTH",
"928 845 OFFCURVE",
"329 762 OFFCURVE",
"329 1114 CURVE SMOOTH",
"329 1207 OFFCURVE",
"403 1269 OFFCURVE",
"512 1269 CURVE SMOOTH",
"595 1269 OFFCURVE",
"648 1221 OFFCURVE",
"671 1128 CURVE SMOOTH",
"692 1045 OFFCURVE",
"730 1008 OFFCURVE",
"796 1008 CURVE SMOOTH",
"859 1008 OFFCURVE",
"899 1049 OFFCURVE",
"899 1112 CURVE SMOOTH",
"899 1257 OFFCURVE",
"741 1373 OFFCURVE",
"539 1373 CURVE SMOOTH {name = hr00;}"
);
},
{
closed = 1;
nodes = (
"456 1563 LINE",
"456 -180 LINE",
"561 -180 LINE",
"561 1563 LINE"
);
}
);
width = 994;
}
);
unicode = 0024;
},
{
glyphname = dollar.tnum;
lastChange = "2018-10-29 20:14:19 +0000";
layers = (
{
layerId = master01;
paths = (
{
closed = 1;
nodes = (
"333 1373 OFFCURVE",
"162 1214 OFFCURVE",
"162 1000 CURVE SMOOTH",
"162 588 OFFCURVE",
"748 623 OFFCURVE",
"748 280 CURVE SMOOTH",
"748 146 OFFCURVE",
"658 56 OFFCURVE",
"523 56 CURVE SMOOTH",
"426 56 OFFCURVE",
"370 102 OFFCURVE",
"348 197 CURVE SMOOTH",
"331 278 OFFCURVE",
"296 317 OFFCURVE",
"241 317 CURVE SMOOTH",
"183 317 OFFCURVE",
"146 276 OFFCURVE",
"146 213 CURVE SMOOTH",
"146 86 OFFCURVE",
"299 -16 OFFCURVE",
"488 -16 CURVE SMOOTH",
"729 -16 OFFCURVE",
"910 155 OFFCURVE",
"910 384 CURVE SMOOTH",
"910 797 OFFCURVE",
"347 753 OFFCURVE",
"347 1096 CURVE SMOOTH",
"347 1218 OFFCURVE",
"424 1301 OFFCURVE",
"539 1301 CURVE SMOOTH",
"616 1301 OFFCURVE",
"667 1253 OFFCURVE",
"688 1160 CURVE SMOOTH",
"706 1077 OFFCURVE",
"739 1040 OFFCURVE",
"796 1040 CURVE SMOOTH",
"854 1040 OFFCURVE",
"891 1081 OFFCURVE",
"891 1144 CURVE SMOOTH",
"891 1271 OFFCURVE",
"746 1373 OFFCURVE",
"565 1373 CURVE SMOOTH {name = hr00;}"
);
},
{
closed = 1;
nodes = (
"507 1563 LINE",
"507 -180 LINE",
"581 -180 LINE",
"581 1563 LINE"
);
}
);
width = 1056;
},
{
layerId = "FA6D65B5-4623-4FAC-A199-3F662257AC29";
paths = (
{
closed = 1;
nodes = (
"296 1373 OFFCURVE",
"100 1214 OFFCURVE",
"100 1000 CURVE SMOOTH",
"100 560 OFFCURVE",
"722 614 OFFCURVE",
"722 262 CURVE SMOOTH",
"722 155 OFFCURVE",
"639 86 OFFCURVE",
"514 86 CURVE SMOOTH",
"417 86 OFFCURVE",
"361 132 OFFCURVE",
"340 227 CURVE SMOOTH",
"319 313 OFFCURVE",
"278 356 OFFCURVE",
"215 356 CURVE SMOOTH",
"146 356 OFFCURVE",
"102 312 OFFCURVE",
"102 243 CURVE SMOOTH",
"102 100 OFFCURVE",
"269 -16 OFFCURVE",
"479 -16 CURVE SMOOTH",
"752 -16 OFFCURVE",
"954 155 OFFCURVE",
"954 384 CURVE SMOOTH",
"954 845 OFFCURVE",
"356 762 OFFCURVE",
"356 1114 CURVE SMOOTH",
"356 1207 OFFCURVE",
"429 1269 OFFCURVE",
"539 1269 CURVE SMOOTH",
"621 1269 OFFCURVE",
"674 1221 OFFCURVE",
"697 1128 CURVE SMOOTH",
"718 1045 OFFCURVE",
"757 1008 OFFCURVE",
"822 1008 CURVE SMOOTH",
"885 1008 OFFCURVE",
"926 1049 OFFCURVE",
"926 1112 CURVE SMOOTH",
"926 1257 OFFCURVE",
"767 1373 OFFCURVE",
"565 1373 CURVE SMOOTH {name = hr00;}"
);
},
{
closed = 1;
nodes = (
"482 1563 LINE",
"482 -180 LINE",
"588 -180 LINE",
"588 1563 LINE"
);
}
);
width = 1056;
}
);
userData = {
com.typemytype.robofont.mark = (
1,
0.6,
0.6,
1
);
};
},
{
glyphname = dotaccent;
lastChange = "2018-10-29 20:09:01 +0000";
layers = (
{
anchors = (
{
name = _top;
position = "{130, 1146}";
}
);
layerId = master01;
paths = (
{
closed = 1;
nodes = (
"18 1197 OFFCURVE",
"62 1146 OFFCURVE",
"130 1146 CURVE SMOOTH",
"201 1146 OFFCURVE",
"245 1197 OFFCURVE",
"245 1258 CURVE SMOOTH",
"245 1324 OFFCURVE",
"201 1373 OFFCURVE",
"130 1373 CURVE SMOOTH",
"62 1373 OFFCURVE",
"18 1324 OFFCURVE",
"18 1258 CURVE SMOOTH"
);
}
);
width = 262;
},
{
anchors = (
{
name = _top;
position = "{169, 1081}";
}
);
layerId = "FA6D65B5-4623-4FAC-A199-3F662257AC29";
paths = (
{
closed = 1;
nodes = (
"18 1153 OFFCURVE",
"70 1081 OFFCURVE",
"169 1081 CURVE SMOOTH",
"273 1081 OFFCURVE",
"326 1153 OFFCURVE",
"326 1225 CURVE SMOOTH",
"326 1302 OFFCURVE",
"266 1371 OFFCURVE",
"169 1371 CURVE SMOOTH",
"74 1371 OFFCURVE",
"18 1302 OFFCURVE",
"18 1225 CURVE SMOOTH"
);
}
);
width = 343;
}
);
unicode = 02D9;
},
{
glyphname = dotaccent.cap;
lastChange = "2018-10-29 20:14:19 +0000";
layers = (
{
anchors = (
{
name = _topcap;
position = "{130, 1461}";
}
);
layerId = master01;
paths = (
{
closed = 1;
nodes = (
"18 1512 OFFCURVE",
"62 1461 OFFCURVE",
"130 1461 CURVE SMOOTH",
"201 1461 OFFCURVE",
"245 1512 OFFCURVE",
"245 1573 CURVE SMOOTH",
"245 1639 OFFCURVE",
"201 1688 OFFCURVE",
"130 1688 CURVE SMOOTH",
"62 1688 OFFCURVE",
"18 1639 OFFCURVE",
"18 1573 CURVE SMOOTH"
);
}
);
width = 262;
},
{
anchors = (
{
name = _topcap;
position = "{143, 1461}";
}
);
layerId = "FA6D65B5-4623-4FAC-A199-3F662257AC29";
paths = (
{
closed = 1;
nodes = (
"18 1519 OFFCURVE",
"62 1461 OFFCURVE",
"143 1461 CURVE SMOOTH",
"227 1461 OFFCURVE",
"271 1519 OFFCURVE",
"271 1580 CURVE SMOOTH",
"271 1642 OFFCURVE",
"222 1700 OFFCURVE",
"143 1700 CURVE SMOOTH",
"63 1700 OFFCURVE",
"18 1642 OFFCURVE",
"18 1580 CURVE SMOOTH"
);
}
);
width = 289;
}
);
},
{
glyphname = dotbelow;
lastChange = "2018-10-29 20:09:01 +0000";
layers = (
{
anchors = (
{
name = _bottom;
position = "{130, 0}";
}
);
layerId = master01;
paths = (
{
closed = 1;
nodes = (
"18 -400 OFFCURVE",
"62 -451 OFFCURVE",
"130 -451 CURVE SMOOTH",
"201 -451 OFFCURVE",
"245 -400 OFFCURVE",
"245 -338 CURVE SMOOTH",
"245 -273 OFFCURVE",
"201 -224 OFFCURVE",
"130 -224 CURVE SMOOTH",
"62 -224 OFFCURVE",
"18 -273 OFFCURVE",
"18 -338 CURVE SMOOTH"
);
}
);
width = 262;
},
{
anchors = (
{
name = _bottom;
position = "{169, 0}";
}
);
layerId = "FA6D65B5-4623-4FAC-A199-3F662257AC29";
paths = (
{
closed = 1;
nodes = (
"18 -385 OFFCURVE",
"70 -458 OFFCURVE",
"169 -458 CURVE SMOOTH",
"273 -458 OFFCURVE",
"326 -385 OFFCURVE",
"326 -313 CURVE SMOOTH",
"326 -236 OFFCURVE",
"266 -167 OFFCURVE",
"169 -167 CURVE SMOOTH",
"74 -167 OFFCURVE",
"18 -236 OFFCURVE",
"18 -313 CURVE SMOOTH"
);
}
);
width = 343;
}
);
},
{
glyphname = dotlessi;
lastChange = "2018-10-29 20:09:01 +0000";
layers = (
{
anchors = (
{
name = top;
position = "{271, 1146}";
}
);
layerId = master01;
paths = (
{
closed = 1;
nodes = (
"356 950 LINE",
"340 950 LINE",
"58 866 LINE",
"58 841 LINE",
"188 794 LINE",
"188 62 LINE",
"55 35 LINE",
"55 0 LINE",
"488 0 LINE",
"488 35 LINE",
"356 62 LINE"
);
}
);
width = 528;
},
{
anchors = (
{
name = top;
position = "{316, 1146}";
}
);
layerId = "FA6D65B5-4623-4FAC-A199-3F662257AC29";
paths = (
{
closed = 1;
nodes = (
"465 950 LINE",
"428 950 LINE",
"42 866 LINE",
"42 824 LINE",
"192 776 LINE",
"192 97 LINE",
"42 62 LINE",
"42 0 LINE",
"605 0 LINE",
"605 62 LINE",
"465 97 LINE"
);
}
);
width = 634;
}
);
leftKerningGroup = i;
rightKerningGroup = i;
unicode = 0131;
},
{
glyphname = dotlessj;
lastChange = "2018-10-29 20:09:01 +0000";
layers = (
{
anchors = (
{
name = top;
position = "{260, 1146}";
}
);
layerId = master01;
paths = (
{
closed = 1;
nodes = (
"174 -280 OFFCURVE",
"127 -375 OFFCURVE",
"28 -375 CURVE SMOOTH",
"-16 -375 OFFCURVE",
"-35 -356 OFFCURVE",
"-60 -289 CURVE SMOOTH",
"-79 -236 OFFCURVE",
"-107 -208 OFFCURVE",
"-157 -208 CURVE SMOOTH",
"-215 -208 OFFCURVE",
"-252 -248 OFFCURVE",
"-252 -313 CURVE SMOOTH",
"-252 -403 OFFCURVE",
"-178 -458 OFFCURVE",
"-58 -458 CURVE SMOOTH",
"83 -458 OFFCURVE",
"202 -378 OFFCURVE",
"283 -231 CURVE SMOOTH",
"334 -137 OFFCURVE",
"341 -72 OFFCURVE",
"341 273 CURVE SMOOTH",
"341 950 LINE",
"326 950 LINE",
"44 866 LINE",
"44 841 LINE",
"174 794 LINE",
"174 -84 LINE SMOOTH"
);
}
);
width = 493;
},
{
anchors = (
{
name = top;
position = "{299, 1146}";
}
);
layerId = "FA6D65B5-4623-4FAC-A199-3F662257AC29";
paths = (
{
closed = 1;
nodes = (
"169 -275 OFFCURVE",
"127 -366 OFFCURVE",
"42 -366 CURVE SMOOTH",
"-7 -366 OFFCURVE",
"-35 -338 OFFCURVE",
"-76 -253 CURVE SMOOTH",
"-107 -190 OFFCURVE",
"-137 -169 OFFCURVE",
"-192 -169 CURVE SMOOTH",
"-264 -169 OFFCURVE",
"-310 -211 OFFCURVE",
"-310 -278 CURVE SMOOTH",
"-310 -385 OFFCURVE",
"-185 -458 OFFCURVE",
"2 -458 CURVE SMOOTH",
"174 -458 OFFCURVE",
"287 -396 OFFCURVE",
"368 -257 CURVE SMOOTH",
"424 -160 OFFCURVE",
"442 -70 OFFCURVE",
"442 121 CURVE SMOOTH",
"442 950 LINE",
"405 950 LINE",
"19 866 LINE",
"19 824 LINE",
"169 776 LINE",
"169 -84 LINE SMOOTH"
);
}
);
width = 581;
}
);
leftKerningGroup = j;
rightKerningGroup = j;
unicode = 0237;
},
{
glyphname = e;
lastChange = "2018-10-29 20:09:01 +0000";
layers = (
{
anchors = (
{
name = bottom;
position = "{507, 0}";
},
{
name = top;
position = "{547, 1146}";
}
);
layerId = master01;
paths = (
{
closed = 1;
nodes = (
"908 813 OFFCURVE",
"783 950 OFFCURVE",
"553 950 CURVE SMOOTH",
"273 950 OFFCURVE",
"83 748 OFFCURVE",
"83 452 CURVE SMOOTH",
"83 172 OFFCURVE",
"253 -18 OFFCURVE",
"505 -18 CURVE SMOOTH",
"678 -18 OFFCURVE",
"822 70 OFFCURVE",
"884 213 CURVE SMOOTH",
"894 238 LINE",
"864 255 LINE",
"843 229 LINE SMOOTH",
"781 155 OFFCURVE",
"678 111 OFFCURVE",
"563 111 CURVE SMOOTH",
"363 111 OFFCURVE",
"259 245 OFFCURVE",
"259 502 CURVE SMOOTH",
"259 753 OFFCURVE",
"359 896 OFFCURVE",
"537 896 CURVE SMOOTH",
"664 896 OFFCURVE",
"729 824 OFFCURVE",
"729 679 CURVE SMOOTH",
"729 651 OFFCURVE",
"727 621 OFFCURVE",
"723 607 CURVE",
"224 590 LINE",
"224 542 LINE",
"901 542 LINE",
"913 553 LINE"
);
}
);
width = 986;
},
{
anchors = (
{
name = bottom;
position = "{524, 0}";
},
{
name = top;
position = "{565, 1146}";
}
);
layerId = "FA6D65B5-4623-4FAC-A199-3F662257AC29";
paths = (
{
closed = 1;
nodes = (
"1001 803 OFFCURVE",
"859 950 OFFCURVE",
"591 950 CURVE SMOOTH",
"278 950 OFFCURVE",
"63 748 OFFCURVE",
"63 452 CURVE SMOOTH",
"63 172 OFFCURVE",
"255 -18 OFFCURVE",
"547 -18 CURVE SMOOTH",
"739 -18 OFFCURVE",
"906 72 OFFCURVE",
"972 231 CURVE SMOOTH",
"980 252 LINE",
"931 294 LINE",
"919 280 LINE SMOOTH",
"850 202 OFFCURVE",
"734 164 OFFCURVE",
"632 164 CURVE SMOOTH",
"447 164 OFFCURVE",
"356 280 OFFCURVE",
"356 519 CURVE SMOOTH",
"356 737 OFFCURVE",
"431 861 OFFCURVE",
"568 861 CURVE SMOOTH",
"671 861 OFFCURVE",
"725 796 OFFCURVE",
"725 674 CURVE SMOOTH",
"725 644 OFFCURVE",
"722 618 OFFCURVE",
"718 607 CURVE",
"227 590 LINE",
"227 510 LINE",
"996 510 LINE",
"1010 521 LINE"
);
}
);
width = 1063;
}
);
leftKerningGroup = e;
rightKerningGroup = e;
unicode = 0065;
},
{
glyphname = eight;
lastChange = "2018-10-29 20:09:01 +0000";
layers = (
{
layerId = master01;
paths = (
{
closed = 1;
nodes = (
"810 848 OFFCURVE",
"889 952 OFFCURVE",
"889 1077 CURVE SMOOTH",
"889 1248 OFFCURVE",
"737 1373 OFFCURVE",
"528 1373 CURVE SMOOTH",
"306 1373 OFFCURVE",
"144 1232 OFFCURVE",
"144 1037 CURVE SMOOTH",
"144 908 OFFCURVE",
"216 804 OFFCURVE",
"375 700 CURVE",
"190 605 OFFCURVE",
"102 491 OFFCURVE",
"102 343 CURVE SMOOTH",
"102 136 OFFCURVE",
"276 -18 OFFCURVE",
"512 -18 CURVE SMOOTH",
"760 -18 OFFCURVE",
"950 155 OFFCURVE",
"950 378 CURVE SMOOTH",
"950 532 OFFCURVE",
"861 653 OFFCURVE",
"660 774 CURVE {name = hr00;}"
);
},
{
closed = 1;
nodes = (
"391 894 OFFCURVE",
"310 980 OFFCURVE",
"310 1096 CURVE SMOOTH",
"310 1216 OFFCURVE",
"392 1294 OFFCURVE",
"517 1294 CURVE SMOOTH",
"648 1294 OFFCURVE",
"734 1207 OFFCURVE",
"734 1077 CURVE SMOOTH",
"734 975 OFFCURVE",
"683 887 OFFCURVE",
"577 810 CURVE"
);
},
{
closed = 1;
nodes = (
"690 554 OFFCURVE",
"790 449 OFFCURVE",
"790 301 CURVE SMOOTH",
"790 155 OFFCURVE",
"692 62 OFFCURVE",
"539 62 CURVE SMOOTH",
"377 62 OFFCURVE",
"278 169 OFFCURVE",
"278 345 CURVE SMOOTH",
"278 480 OFFCURVE",
"338 593 OFFCURVE",
"449 662 CURVE"
);
}
);
width = 1047;
},
{
layerId = "FA6D65B5-4623-4FAC-A199-3F662257AC29";
paths = (
{
closed = 1;
nodes = (
"871 843 OFFCURVE",
"950 943 OFFCURVE",
"950 1068 CURVE SMOOTH",
"950 1250 OFFCURVE",
"790 1373 OFFCURVE",
"553 1373 CURVE SMOOTH",
"301 1373 OFFCURVE",
"136 1232 OFFCURVE",
"136 1016 CURVE SMOOTH",
"136 873 OFFCURVE",
"202 760 OFFCURVE",
"343 665 CURVE",
"167 586 OFFCURVE",
"84 482 OFFCURVE",
"84 345 CURVE SMOOTH",
"84 136 OFFCURVE",
"248 -18 OFFCURVE",
"537 -18 CURVE SMOOTH",
"813 -18 OFFCURVE",
"1012 153 OFFCURVE",
"1012 392 CURVE SMOOTH",
"1012 549 OFFCURVE",
"926 665 OFFCURVE",
"722 778 CURVE {name = hr00;}"
);
},
{
closed = 1;
nodes = (
"436 912 OFFCURVE",
"363 991 OFFCURVE",
"363 1096 CURVE SMOOTH",
"363 1202 OFFCURVE",
"431 1267 OFFCURVE",
"540 1267 CURVE SMOOTH",
"658 1267 OFFCURVE",
"730 1192 OFFCURVE",
"730 1068 CURVE SMOOTH",
"730 977 OFFCURVE",
"692 896 OFFCURVE",
"616 825 CURVE"
);
},
{
closed = 1;
nodes = (
"672 516 OFFCURVE",
"773 419 OFFCURVE",
"773 292 CURVE SMOOTH",
"773 169 OFFCURVE",
"686 88 OFFCURVE",
"558 88 CURVE SMOOTH",
"414 88 OFFCURVE",
"331 188 OFFCURVE",
"331 363 CURVE SMOOTH",
"331 479 OFFCURVE",
"370 568 OFFCURVE",
"438 614 CURVE"
);
}
);
width = 1095;
}
);
unicode = 0038;
},
{
glyphname = eight.denominator;
lastChange = "2018-10-29 20:09:01 +0000";
layers = (
{
layerId = master01;
paths = (
{
closed = 1;
nodes = (
"528 489 OFFCURVE",
"576 549 OFFCURVE",
"576 621 CURVE SMOOTH",
"576 729 OFFCURVE",
"482 801 OFFCURVE",
"348 801 CURVE SMOOTH",
"208 801 OFFCURVE",
"111 718 OFFCURVE",
"111 590 CURVE SMOOTH",
"111 507 OFFCURVE",
"150 442 OFFCURVE",
"238 384 CURVE",
"132 338 OFFCURVE",
"83 276 OFFCURVE",
"83 195 CURVE SMOOTH",
"83 72 OFFCURVE",
"180 -18 OFFCURVE",
"338 -18 CURVE SMOOTH",
"496 -18 OFFCURVE",
"611 83 OFFCURVE",
"611 225 CURVE SMOOTH",
"611 317 OFFCURVE",
"560 384 OFFCURVE",
"440 451 CURVE"
);
},
{
closed = 1;
nodes = (
"275 530 OFFCURVE",
"231 576 OFFCURVE",
"231 637 CURVE SMOOTH",
"231 700 OFFCURVE",
"275 739 OFFCURVE",
"341 739 CURVE SMOOTH",
"414 739 OFFCURVE",
"459 695 OFFCURVE",
"459 621 CURVE SMOOTH",
"459 568 OFFCURVE",
"433 521 OFFCURVE",
"384 479 CURVE"
);
},
{
closed = 1;
nodes = (
"428 297 OFFCURVE",
"486 241 OFFCURVE",
"486 165 CURVE SMOOTH",
"486 93 OFFCURVE",
"433 46 OFFCURVE",
"354 46 CURVE SMOOTH",
"264 46 OFFCURVE",
"211 104 OFFCURVE",
"211 208 CURVE SMOOTH",
"211 275 OFFCURVE",
"239 327 OFFCURVE",
"289 354 CURVE"
);
}
);
width = 693;
},
{
layerId = "FA6D65B5-4623-4FAC-A199-3F662257AC29";
paths = (
{
closed = 1;
nodes = (
"692 549 OFFCURVE",
"753 614 OFFCURVE",
"753 697 CURVE SMOOTH",
"753 817 OFFCURVE",
"625 896 OFFCURVE",
"433 896 CURVE SMOOTH",
"229 896 OFFCURVE",
"99 804 OFFCURVE",
"99 660 CURVE SMOOTH",
"99 565 OFFCURVE",
"150 491 OFFCURVE",
"253 429 CURVE",
"120 380 OFFCURVE",
"56 313 OFFCURVE",
"56 225 CURVE SMOOTH",
"56 88 OFFCURVE",
"181 -12 OFFCURVE",
"421 -12 CURVE SMOOTH",
"644 -12 OFFCURVE",
"801 100 OFFCURVE",
"801 259 CURVE SMOOTH",
"801 361 OFFCURVE",
"734 436 OFFCURVE",
"576 509 CURVE"
);
},
{
closed = 1;
nodes = (
"348 598 OFFCURVE",
"294 648 OFFCURVE",
"294 716 CURVE SMOOTH",
"294 783 OFFCURVE",
"343 824 OFFCURVE",
"422 824 CURVE SMOOTH",
"510 824 OFFCURVE",
"563 776 OFFCURVE",
"563 697 CURVE SMOOTH",
"563 639 OFFCURVE",
"537 586 OFFCURVE",
"486 540 CURVE"
);
},
{
closed = 1;
nodes = (
"514 331 OFFCURVE",
"591 269 OFFCURVE",
"591 190 CURVE SMOOTH",
"591 113 OFFCURVE",
"528 62 OFFCURVE",
"435 62 CURVE SMOOTH",
"327 62 OFFCURVE",
"269 125 OFFCURVE",
"269 239 CURVE SMOOTH",
"269 312 OFFCURVE",
"292 368 OFFCURVE",
"333 394 CURVE"
);
}
);
width = 857;
}
);
},
{
glyphname = eight.numerator;
lastChange = "2018-10-29 20:09:01 +0000";
layers = (
{
layerId = master01;
paths = (
{
closed = 1;
nodes = (
"528 1060 OFFCURVE",
"576 1119 OFFCURVE",
"576 1192 CURVE SMOOTH",
"576 1299 OFFCURVE",
"482 1371 OFFCURVE",
"348 1371 CURVE SMOOTH",
"208 1371 OFFCURVE",
"111 1288 OFFCURVE",
"111 1160 CURVE SMOOTH",
"111 1077 OFFCURVE",
"150 1012 OFFCURVE",
"238 954 CURVE",
"132 908 OFFCURVE",
"83 847 OFFCURVE",
"83 766 CURVE SMOOTH",
"83 642 OFFCURVE",
"180 553 OFFCURVE",
"338 553 CURVE SMOOTH",
"496 553 OFFCURVE",
"611 653 OFFCURVE",
"611 796 CURVE SMOOTH",
"611 887 OFFCURVE",
"560 954 OFFCURVE",
"440 1021 CURVE"
);
},
{
closed = 1;
nodes = (
"275 1100 OFFCURVE",
"231 1146 OFFCURVE",
"231 1207 CURVE SMOOTH",
"231 1271 OFFCURVE",
"275 1309 OFFCURVE",
"341 1309 CURVE SMOOTH",
"414 1309 OFFCURVE",
"459 1265 OFFCURVE",
"459 1192 CURVE SMOOTH",
"459 1139 OFFCURVE",
"433 1091 OFFCURVE",
"384 1049 CURVE"
);
},
{
closed = 1;
nodes = (
"428 868 OFFCURVE",
"486 811 OFFCURVE",
"486 736 CURVE SMOOTH",
"486 664 OFFCURVE",
"433 616 OFFCURVE",
"354 616 CURVE SMOOTH",
"264 616 OFFCURVE",
"211 674 OFFCURVE",
"211 778 CURVE SMOOTH",
"211 845 OFFCURVE",
"239 898 OFFCURVE",
"289 924 CURVE"
);
}
);
width = 693;
},
{
layerId = "FA6D65B5-4623-4FAC-A199-3F662257AC29";
paths = (
{
closed = 1;
nodes = (
"692 1031 OFFCURVE",
"753 1096 OFFCURVE",
"753 1179 CURVE SMOOTH",
"753 1299 OFFCURVE",
"625 1378 OFFCURVE",
"433 1378 CURVE SMOOTH",
"229 1378 OFFCURVE",
"99 1287 OFFCURVE",
"99 1142 CURVE SMOOTH",
"99 1047 OFFCURVE",
"150 973 OFFCURVE",
"253 912 CURVE",
"120 862 OFFCURVE",
"56 796 OFFCURVE",
"56 708 CURVE SMOOTH",
"56 570 OFFCURVE",
"181 470 OFFCURVE",
"421 470 CURVE SMOOTH",
"644 470 OFFCURVE",
"801 583 OFFCURVE",
"801 741 CURVE SMOOTH",
"801 843 OFFCURVE",
"734 919 OFFCURVE",
"576 991 CURVE"
);
},
{
closed = 1;
nodes = (
"348 1081 OFFCURVE",
"294 1130 OFFCURVE",
"294 1199 CURVE SMOOTH",
"294 1265 OFFCURVE",
"343 1306 OFFCURVE",
"422 1306 CURVE SMOOTH",
"510 1306 OFFCURVE",
"563 1258 OFFCURVE",
"563 1179 CURVE SMOOTH",
"563 1121 OFFCURVE",
"537 1068 OFFCURVE",
"486 1023 CURVE"
);
},
{
closed = 1;
nodes = (
"514 813 OFFCURVE",
"591 752 OFFCURVE",
"591 672 CURVE SMOOTH",
"591 595 OFFCURVE",
"528 544 OFFCURVE",
"435 544 CURVE SMOOTH",
"327 544 OFFCURVE",
"269 607 OFFCURVE",
"269 722 CURVE SMOOTH",
"269 794 OFFCURVE",
"292 850 OFFCURVE",
"333 876 CURVE"
);
}
);
width = 857;
}
);
},
{
glyphname = eight.oldstyle;
lastChange = "2018-10-29 20:09:01 +0000";
layers = (
{
layerId = master01;
paths = (
{
closed = 1;
nodes = (
"736 822 OFFCURVE",
"804 928 OFFCURVE",
"804 1047 CURVE SMOOTH",
"804 1214 OFFCURVE",
"667 1334 OFFCURVE",
"479 1334 CURVE SMOOTH",
"280 1334 OFFCURVE",
"130 1197 OFFCURVE",
"130 1012 CURVE SMOOTH",
"130 873 OFFCURVE",
"199 766 OFFCURVE",
"361 656 CURVE",
"181 568 OFFCURVE",
"97 463 OFFCURVE",
"97 324 CURVE SMOOTH",
"97 130 OFFCURVE",
"250 -18 OFFCURVE",
"452 -18 CURVE SMOOTH",
"667 -18 OFFCURVE",
"831 146 OFFCURVE",
"831 364 CURVE SMOOTH",
"831 509 OFFCURVE",
"764 627 OFFCURVE",
"611 748 CURVE"
);
},
{
closed = 1;
nodes = (
"364 869 OFFCURVE",
"296 954 OFFCURVE",
"296 1068 CURVE SMOOTH",
"296 1181 OFFCURVE",
"364 1255 OFFCURVE",
"468 1255 CURVE SMOOTH",
"579 1255 OFFCURVE",
"649 1172 OFFCURVE",
"649 1045 CURVE SMOOTH",
"649 950 OFFCURVE",
"609 861 OFFCURVE",
"528 783 CURVE"
);
},
{
closed = 1;
nodes = (
"597 523 OFFCURVE",
"671 421 OFFCURVE",
"671 287 CURVE SMOOTH",
"671 146 OFFCURVE",
"598 62 OFFCURVE",
"480 62 CURVE SMOOTH",
"352 62 OFFCURVE",
"273 162 OFFCURVE",
"273 322 CURVE SMOOTH",
"273 452 OFFCURVE",
"327 553 OFFCURVE",
"435 618 CURVE"
);
}
);
width = 931;
},
{
layerId = "FA6D65B5-4623-4FAC-A199-3F662257AC29";
paths = (
{
closed = 1;
nodes = (
"850 813 OFFCURVE",
"928 929 OFFCURVE",
"928 1047 CURVE SMOOTH",
"928 1214 OFFCURVE",
"762 1334 OFFCURVE",
"530 1334 CURVE SMOOTH",
"282 1334 OFFCURVE",
"113 1197 OFFCURVE",
"113 994 CURVE SMOOTH",
"113 866 OFFCURVE",
"180 764 OFFCURVE",
"334 651 CURVE",
"169 576 OFFCURVE",
"79 461 OFFCURVE",
"79 324 CURVE SMOOTH",
"79 128 OFFCURVE",
"264 -18 OFFCURVE",
"509 -18 CURVE SMOOTH",
"769 -18 OFFCURVE",
"954 146 OFFCURVE",
"954 377 CURVE SMOOTH",
"954 528 OFFCURVE",
"873 667 OFFCURVE",
"734 753 CURVE"
);
},
{
closed = 1;
nodes = (
"442 891 OFFCURVE",
"375 972 OFFCURVE",
"375 1072 CURVE SMOOTH",
"375 1167 OFFCURVE",
"433 1228 OFFCURVE",
"523 1228 CURVE SMOOTH",
"618 1228 OFFCURVE",
"676 1156 OFFCURVE",
"676 1037 CURVE SMOOTH",
"676 947 OFFCURVE",
"646 864 OFFCURVE",
"593 811 CURVE"
);
},
{
closed = 1;
nodes = (
"627 502 OFFCURVE",
"697 403 OFFCURVE",
"697 280 CURVE SMOOTH",
"697 162 OFFCURVE",
"634 88 OFFCURVE",
"532 88 CURVE SMOOTH",
"419 88 OFFCURVE",
"352 178 OFFCURVE",
"352 329 CURVE SMOOTH",
"352 451 OFFCURVE",
"394 546 OFFCURVE",
"472 595 CURVE"
);
}
);
width = 1037;
}
);
},
{
glyphname = eight.tnum;
lastChange = "2018-10-29 20:14:19 +0000";
layers = (
{
layerId = master01;
paths = (
{
closed = 1;
nodes = (
"806 848 OFFCURVE",
"885 952 OFFCURVE",
"885 1077 CURVE SMOOTH",
"885 1248 OFFCURVE",
"734 1373 OFFCURVE",
"524 1373 CURVE SMOOTH",
"303 1373 OFFCURVE",
"141 1232 OFFCURVE",
"141 1037 CURVE SMOOTH",
"141 908 OFFCURVE",
"213 804 OFFCURVE",
"371 700 CURVE",
"187 605 OFFCURVE",
"99 491 OFFCURVE",
"99 343 CURVE SMOOTH",
"99 136 OFFCURVE",
"273 -18 OFFCURVE",
"509 -18 CURVE SMOOTH",
"757 -18 OFFCURVE",
"947 155 OFFCURVE",
"947 378 CURVE SMOOTH",
"947 532 OFFCURVE",
"857 653 OFFCURVE",
"656 774 CURVE {name = hr00;}"
);
},
{
closed = 1;
nodes = (
"387 894 OFFCURVE",
"306 980 OFFCURVE",
"306 1096 CURVE SMOOTH",
"306 1216 OFFCURVE",
"389 1294 OFFCURVE",
"514 1294 CURVE SMOOTH",
"644 1294 OFFCURVE",
"730 1207 OFFCURVE",
"730 1077 CURVE SMOOTH",
"730 975 OFFCURVE",
"679 887 OFFCURVE",
"574 810 CURVE"
);
},
{
closed = 1;
nodes = (
"686 554 OFFCURVE",
"787 449 OFFCURVE",
"787 301 CURVE SMOOTH",
"787 155 OFFCURVE",
"688 62 OFFCURVE",
"535 62 CURVE SMOOTH",
"373 62 OFFCURVE",
"275 169 OFFCURVE",
"275 345 CURVE SMOOTH",
"275 480 OFFCURVE",
"334 593 OFFCURVE",
"445 662 CURVE"
);
}
);
width = 1056;
},
{
layerId = "FA6D65B5-4623-4FAC-A199-3F662257AC29";
paths = (
{
closed = 1;
nodes = (
"847 843 OFFCURVE",
"926 943 OFFCURVE",
"926 1068 CURVE SMOOTH",
"926 1250 OFFCURVE",
"766 1373 OFFCURVE",
"528 1373 CURVE SMOOTH",
"276 1373 OFFCURVE",
"111 1232 OFFCURVE",
"111 1016 CURVE SMOOTH",
"111 873 OFFCURVE",
"178 760 OFFCURVE",
"319 665 CURVE",
"143 586 OFFCURVE",
"60 482 OFFCURVE",
"60 345 CURVE SMOOTH",
"60 136 OFFCURVE",
"224 -18 OFFCURVE",
"512 -18 CURVE SMOOTH",
"788 -18 OFFCURVE",
"987 153 OFFCURVE",
"987 392 CURVE SMOOTH",
"987 549 OFFCURVE",
"901 665 OFFCURVE",
"697 778 CURVE {name = hr00;}"
);
},
{
closed = 1;
nodes = (
"412 912 OFFCURVE",
"338 991 OFFCURVE",
"338 1096 CURVE SMOOTH",
"338 1202 OFFCURVE",
"407 1267 OFFCURVE",
"516 1267 CURVE SMOOTH",
"634 1267 OFFCURVE",
"706 1192 OFFCURVE",
"706 1068 CURVE SMOOTH",
"706 977 OFFCURVE",
"667 896 OFFCURVE",
"591 825 CURVE"
);
},
{
closed = 1;
nodes = (
"648 516 OFFCURVE",
"748 419 OFFCURVE",
"748 292 CURVE SMOOTH",
"748 169 OFFCURVE",
"662 88 OFFCURVE",
"533 88 CURVE SMOOTH",
"389 88 OFFCURVE",
"306 188 OFFCURVE",
"306 363 CURVE SMOOTH",
"306 479 OFFCURVE",
"345 568 OFFCURVE",
"414 614 CURVE"
);
}
);
width = 1056;
}
);
userData = {
com.typemytype.robofont.mark = (
1,
0.6,
0.6,
1
);
};
},
{
glyphname = eightinferior;
lastChange = "2018-10-29 20:09:01 +0000";
layers = (
{
layerId = master01;
paths = (
{
closed = 1;
nodes = (
"574 280 OFFCURVE",
"625 347 OFFCURVE",
"625 428 CURVE SMOOTH",
"625 546 OFFCURVE",
"523 627 OFFCURVE",
"373 627 CURVE SMOOTH",
"216 627 OFFCURVE",
"109 535 OFFCURVE",
"109 392 CURVE SMOOTH",
"109 299 OFFCURVE",
"153 227 OFFCURVE",
"250 164 CURVE",
"132 113 OFFCURVE",
"77 44 OFFCURVE",
"77 -46 CURVE SMOOTH",
"77 -183 OFFCURVE",
"187 -283 OFFCURVE",
"363 -283 CURVE SMOOTH",
"537 -283 OFFCURVE",
"665 -171 OFFCURVE",
"665 -14 CURVE SMOOTH",
"665 88 OFFCURVE",
"607 164 OFFCURVE",
"475 238 CURVE"
);
},
{
closed = 1;
nodes = (
"292 326 OFFCURVE",
"243 377 OFFCURVE",
"243 445 CURVE SMOOTH",
"243 516 OFFCURVE",
"290 558 OFFCURVE",
"366 558 CURVE SMOOTH",
"445 558 OFFCURVE",
"496 509 OFFCURVE",
"496 428 CURVE SMOOTH",
"496 368 OFFCURVE",
"468 315 OFFCURVE",
"412 269 CURVE"
);
},
{
closed = 1;
nodes = (
"461 67 OFFCURVE",
"526 4 OFFCURVE",
"526 -79 CURVE SMOOTH",
"526 -160 OFFCURVE",
"468 -213 OFFCURVE",
"378 -213 CURVE SMOOTH",
"280 -213 OFFCURVE",
"222 -148 OFFCURVE",
"222 -33 CURVE SMOOTH",
"222 42 OFFCURVE",
"252 100 OFFCURVE",
"306 130 CURVE"
);
}
);
width = 743;
},
{
layerId = "FA6D65B5-4623-4FAC-A199-3F662257AC29";
paths = (
{
closed = 1;
nodes = (
"692 276 OFFCURVE",
"753 341 OFFCURVE",
"753 424 CURVE SMOOTH",
"753 544 OFFCURVE",
"625 623 OFFCURVE",
"433 623 CURVE SMOOTH",
"229 623 OFFCURVE",
"99 532 OFFCURVE",
"99 387 CURVE SMOOTH",
"99 292 OFFCURVE",
"150 218 OFFCURVE",
"253 157 CURVE",
"120 107 OFFCURVE",
"56 40 OFFCURVE",
"56 -48 CURVE SMOOTH",
"56 -185 OFFCURVE",
"181 -285 OFFCURVE",
"421 -285 CURVE SMOOTH",
"644 -285 OFFCURVE",
"801 -172 OFFCURVE",
"801 -14 CURVE SMOOTH",
"801 88 OFFCURVE",
"734 164 OFFCURVE",
"576 236 CURVE"
);
},
{
closed = 1;
nodes = (
"348 326 OFFCURVE",
"294 375 OFFCURVE",
"294 444 CURVE SMOOTH",
"294 510 OFFCURVE",
"343 551 OFFCURVE",
"422 551 CURVE SMOOTH",
"510 551 OFFCURVE",
"563 503 OFFCURVE",
"563 424 CURVE SMOOTH",
"563 366 OFFCURVE",
"537 313 OFFCURVE",
"486 268 CURVE"
);
},
{
closed = 1;
nodes = (
"514 58 OFFCURVE",
"591 -4 OFFCURVE",
"591 -83 CURVE SMOOTH",
"591 -160 OFFCURVE",
"528 -211 OFFCURVE",
"435 -211 CURVE SMOOTH",
"327 -211 OFFCURVE",
"269 -148 OFFCURVE",
"269 -33 CURVE SMOOTH",
"269 39 OFFCURVE",
"292 95 OFFCURVE",
"333 121 CURVE"
);
}
);
width = 857;
}
);
unicode = 2088;
},
{
glyphname = eightsuperior;
lastChange = "2018-10-29 20:09:01 +0000";
layers = (
{
layerId = master01;
paths = (
{
closed = 1;
nodes = (
"576 1283 OFFCURVE",
"627 1350 OFFCURVE",
"627 1431 CURVE SMOOTH",
"627 1549 OFFCURVE",
"524 1630 OFFCURVE",
"375 1630 CURVE SMOOTH",
"218 1630 OFFCURVE",
"111 1538 OFFCURVE",
"111 1396 CURVE SMOOTH",
"111 1302 OFFCURVE",
"155 1230 OFFCURVE",
"252 1167 CURVE",
"134 1116 OFFCURVE",
"79 1047 OFFCURVE",
"79 957 CURVE SMOOTH",
"79 820 OFFCURVE",
"188 720 OFFCURVE",
"364 720 CURVE SMOOTH",
"539 720 OFFCURVE",
"667 832 OFFCURVE",
"667 989 CURVE SMOOTH",
"667 1091 OFFCURVE",
"609 1167 OFFCURVE",
"477 1241 CURVE"
);
},
{
closed = 1;
nodes = (
"294 1329 OFFCURVE",
"245 1380 OFFCURVE",
"245 1448 CURVE SMOOTH",
"245 1519 OFFCURVE",
"292 1561 OFFCURVE",
"368 1561 CURVE SMOOTH",
"447 1561 OFFCURVE",
"498 1512 OFFCURVE",
"498 1431 CURVE SMOOTH",
"498 1371 OFFCURVE",
"470 1318 OFFCURVE",
"414 1272 CURVE"
);
},
{
closed = 1;
nodes = (
"463 1070 OFFCURVE",
"528 1007 OFFCURVE",
"528 924 CURVE SMOOTH",
"528 843 OFFCURVE",
"470 790 OFFCURVE",
"380 790 CURVE SMOOTH",
"282 790 OFFCURVE",
"224 855 OFFCURVE",
"224 970 CURVE SMOOTH",
"224 1045 OFFCURVE",
"253 1104 OFFCURVE",
"308 1133 CURVE"
);
}
);
width = 744;
},
{
layerId = "FA6D65B5-4623-4FAC-A199-3F662257AC29";
paths = (
{
closed = 1;
nodes = (
"692 1287 OFFCURVE",
"753 1352 OFFCURVE",
"753 1434 CURVE SMOOTH",
"753 1554 OFFCURVE",
"625 1633 OFFCURVE",
"433 1633 CURVE SMOOTH",
"229 1633 OFFCURVE",
"99 1542 OFFCURVE",
"99 1397 CURVE SMOOTH",
"99 1302 OFFCURVE",
"150 1228 OFFCURVE",
"253 1167 CURVE",
"120 1118 OFFCURVE",
"56 1051 OFFCURVE",
"56 963 CURVE SMOOTH",
"56 825 OFFCURVE",
"181 725 OFFCURVE",
"421 725 CURVE SMOOTH",
"644 725 OFFCURVE",
"801 838 OFFCURVE",
"801 996 CURVE SMOOTH",
"801 1098 OFFCURVE",
"734 1174 OFFCURVE",
"576 1246 CURVE"
);
},
{
closed = 1;
nodes = (
"348 1336 OFFCURVE",
"294 1385 OFFCURVE",
"294 1454 CURVE SMOOTH",
"294 1521 OFFCURVE",
"343 1561 OFFCURVE",
"422 1561 CURVE SMOOTH",
"510 1561 OFFCURVE",
"563 1514 OFFCURVE",
"563 1434 CURVE SMOOTH",
"563 1376 OFFCURVE",
"537 1324 OFFCURVE",
"486 1278 CURVE"
);
},
{
closed = 1;
nodes = (
"514 1068 OFFCURVE",
"591 1007 OFFCURVE",
"591 928 CURVE SMOOTH",
"591 850 OFFCURVE",
"528 799 OFFCURVE",
"435 799 CURVE SMOOTH",
"327 799 OFFCURVE",
"269 862 OFFCURVE",
"269 977 CURVE SMOOTH",
"269 1049 OFFCURVE",
"292 1105 OFFCURVE",
"333 1132 CURVE"
);
}
);
width = 857;
}
);
unicode = 2078;
},
{
glyphname = ellipsis;
lastChange = "2018-10-29 20:09:01 +0000";
layers = (
{
layerId = master01;
paths = (
{
closed = 1;
nodes = (
"109 37 OFFCURVE",
"157 -18 OFFCURVE",
"229 -18 CURVE SMOOTH",
"304 -18 OFFCURVE",
"352 37 OFFCURVE",
"352 102 CURVE SMOOTH",
"352 172 OFFCURVE",
"304 225 OFFCURVE",
"229 225 CURVE SMOOTH",
"157 225 OFFCURVE",
"109 172 OFFCURVE",
"109 102 CURVE SMOOTH"
);
},
{
closed = 1;
nodes = (
"602 37 OFFCURVE",
"649 -18 OFFCURVE",
"722 -18 CURVE SMOOTH",
"797 -18 OFFCURVE",
"845 37 OFFCURVE",
"845 102 CURVE SMOOTH",
"845 172 OFFCURVE",
"797 225 OFFCURVE",
"722 225 CURVE SMOOTH",
"649 225 OFFCURVE",
"602 172 OFFCURVE",
"602 102 CURVE SMOOTH"
);
},
{
closed = 1;
nodes = (
"1095 37 OFFCURVE",
"1142 -18 OFFCURVE",
"1214 -18 CURVE SMOOTH",
"1290 -18 OFFCURVE",
"1338 37 OFFCURVE",
"1338 102 CURVE SMOOTH",
"1338 172 OFFCURVE",
"1290 225 OFFCURVE",
"1214 225 CURVE SMOOTH",
"1142 225 OFFCURVE",
"1095 172 OFFCURVE",
"1095 102 CURVE SMOOTH"
);
}
);
width = 1447;
},
{
layerId = "FA6D65B5-4623-4FAC-A199-3F662257AC29";
paths = (
{
closed = 1;
nodes = (
"88 44 OFFCURVE",
"151 -18 OFFCURVE",
"245 -18 CURVE SMOOTH",
"338 -18 OFFCURVE",
"405 46 OFFCURVE",
"405 134 CURVE SMOOTH",
"405 224 OFFCURVE",
"336 289 OFFCURVE",
"243 289 CURVE SMOOTH",
"151 289 OFFCURVE",
"88 224 OFFCURVE",
"88 134 CURVE SMOOTH"
);
},
{
closed = 1;
nodes = (
"616 44 OFFCURVE",
"679 -18 OFFCURVE",
"773 -18 CURVE SMOOTH",
"866 -18 OFFCURVE",
"933 46 OFFCURVE",
"933 134 CURVE SMOOTH",
"933 224 OFFCURVE",
"864 289 OFFCURVE",
"771 289 CURVE SMOOTH",
"679 289 OFFCURVE",
"616 224 OFFCURVE",
"616 134 CURVE SMOOTH"
);
},
{
closed = 1;
nodes = (
"1144 44 OFFCURVE",
"1207 -18 OFFCURVE",
"1301 -18 CURVE SMOOTH",
"1394 -18 OFFCURVE",
"1461 46 OFFCURVE",
"1461 134 CURVE SMOOTH",
"1461 224 OFFCURVE",
"1392 289 OFFCURVE",
"1299 289 CURVE SMOOTH",
"1207 289 OFFCURVE",
"1144 224 OFFCURVE",
"1144 134 CURVE SMOOTH"
);
}
);
width = 1549;
}
);
leftKerningGroup = period;
unicode = 2026;
},
{
glyphname = emdash;
lastChange = "2018-10-29 20:09:01 +0000";
layers = (
{
layerId = master01;
paths = (
{
closed = 1;
nodes = (
"1755 496 LINE",
"136 496 LINE",
"136 391 LINE",
"1755 391 LINE"
);
}
);
width = 1890;
},
{
layerId = "FA6D65B5-4623-4FAC-A199-3F662257AC29";
paths = (
{
closed = 1;
nodes = (
"1744 510 LINE",
"125 510 LINE",
"125 375 LINE",
"1744 375 LINE"
);
}
);
width = 1869;
}
);
leftKerningGroup = hyphen;
rightKerningGroup = hyphen;
unicode = 2014;
},
{
glyphname = endash;
lastChange = "2018-10-29 20:09:01 +0000";
layers = (
{
layerId = master01;
paths = (
{
closed = 1;
nodes = (
"1190 496 LINE",
"136 496 LINE",
"136 389 LINE",
"1190 389 LINE"
);
}
);
width = 1325;
},
{
layerId = "FA6D65B5-4623-4FAC-A199-3F662257AC29";
paths = (
{
closed = 1;
nodes = (
"1179 510 LINE",
"125 510 LINE",
"125 375 LINE",
"1179 375 LINE"
);
}
);
width = 1304;
}
);
leftKerningGroup = hyphen;
rightKerningGroup = hyphen;
unicode = 2013;
},
{
glyphname = eng;
lastChange = "2018-10-29 20:09:01 +0000";
layers = (
{
layerId = master01;
paths = (
{
closed = 1;
nodes = (
"356 783 LINE",
"348 792 LINE",
"348 950 LINE",
"331 950 LINE",
"58 864 LINE",
"58 841 LINE",
"188 792 LINE",
"188 62 LINE",
"55 35 LINE",
"55 0 LINE",
"488 0 LINE",
"488 35 LINE",
"356 62 LINE"
);
},
{
closed = 1;
nodes = (
"400 806 OFFCURVE",
"488 854 OFFCURVE",
"581 854 CURVE SMOOTH",
"651 854 OFFCURVE",
"695 827 OFFCURVE",
"718 773 CURVE SMOOTH",
"734 734 OFFCURVE",
"739 678 OFFCURVE",
"739 577 CURVE SMOOTH",
"739 238 LINE",
"906 238 LINE",
"906 595 LINE SMOOTH",
"906 764 OFFCURVE",
"903 808 OFFCURVE",
"884 845 CURVE SMOOTH",
"850 910 OFFCURVE",
"773 950 OFFCURVE",
"679 950 CURVE SMOOTH",
"563 950 OFFCURVE",
"440 892 OFFCURVE",
"338 790 CURVE",
"338 722 LINE"
);
},
{
closed = 1;
nodes = (
"739 -280 OFFCURVE",
"692 -375 OFFCURVE",
"593 -375 CURVE SMOOTH",
"549 -375 OFFCURVE",
"530 -356 OFFCURVE",
"505 -289 CURVE SMOOTH",
"486 -236 OFFCURVE",
"458 -208 OFFCURVE",
"408 -208 CURVE SMOOTH",
"350 -208 OFFCURVE",
"313 -248 OFFCURVE",
"313 -313 CURVE SMOOTH",
"313 -403 OFFCURVE",
"387 -458 OFFCURVE",
"507 -458 CURVE SMOOTH",
"648 -458 OFFCURVE",
"767 -378 OFFCURVE",
"848 -231 CURVE SMOOTH",
"899 -137 OFFCURVE",
"906 -72 OFFCURVE",
"906 273 CURVE",
"739 333 LINE",
"739 -84 LINE SMOOTH"
);
}
);
width = 1049;
},
{
layerId = "FA6D65B5-4623-4FAC-A199-3F662257AC29";
paths = (
{
closed = 1;
nodes = (
"452 792 LINE",
"444 801 LINE",
"444 950 LINE",
"405 950 LINE",
"46 864 LINE",
"46 824 LINE",
"180 774 LINE",
"180 97 LINE",
"48 62 LINE",
"48 0 LINE",
"576 0 LINE",
"576 62 LINE",
"452 97 LINE"
);
},
{
closed = 1;
nodes = (
"475 764 OFFCURVE",
"524 792 OFFCURVE",
"595 792 CURVE SMOOTH",
"669 792 OFFCURVE",
"725 760 OFFCURVE",
"750 702 CURVE SMOOTH",
"764 671 OFFCURVE",
"767 628 OFFCURVE",
"767 491 CURVE SMOOTH",
"767 97 LINE",
"1040 97 LINE",
"1040 560 LINE SMOOTH",
"1040 716 OFFCURVE",
"1035 764 OFFCURVE",
"1014 810 CURVE SMOOTH",
"970 899 OFFCURVE",
"882 950 OFFCURVE",
"767 950 CURVE SMOOTH",
"644 950 OFFCURVE",
"510 894 OFFCURVE",
"431 808 CURVE",
"431 697 LINE"
);
},
{
closed = 1;
nodes = (
"767 -275 OFFCURVE",
"725 -366 OFFCURVE",
"641 -366 CURVE SMOOTH",
"591 -366 OFFCURVE",
"563 -338 OFFCURVE",
"523 -253 CURVE SMOOTH",
"491 -190 OFFCURVE",
"461 -169 OFFCURVE",
"407 -169 CURVE SMOOTH",
"334 -169 OFFCURVE",
"289 -211 OFFCURVE",
"289 -278 CURVE SMOOTH",
"289 -385 OFFCURVE",
"414 -458 OFFCURVE",
"600 -458 CURVE SMOOTH",
"773 -458 OFFCURVE",
"885 -396 OFFCURVE",
"966 -257 CURVE SMOOTH",
"1023 -160 OFFCURVE",
"1040 -70 OFFCURVE",
"1040 121 CURVE",
"767 201 LINE",
"767 -84 LINE SMOOTH"
);
}
);
width = 1163;
}
);
leftKerningGroup = n;
unicode = 014B;
},
{
glyphname = equal;
lastChange = "2018-10-29 20:09:01 +0000";
layers = (
{
layerId = master01;
paths = (
{
closed = 1;
nodes = (
"859 783 LINE",
"137 783 LINE",
"137 706 LINE",
"859 706 LINE {name = hr00;}"
);
},
{
closed = 1;
nodes = (
"859 500 LINE",
"137 500 LINE",
"137 422 LINE",
"859 422 LINE"
);
}
);
width = 996;
},
{
layerId = "FA6D65B5-4623-4FAC-A199-3F662257AC29";
paths = (
{
closed = 1;
nodes = (
"841 801 LINE",
"120 801 LINE",
"120 690 LINE",
"841 690 LINE {name = hr00;}"
);
},
{
closed = 1;
nodes = (
"841 517 LINE",
"120 517 LINE",
"120 407 LINE",
"841 407 LINE"
);
}
);
width = 961;
}
);
unicode = 003D;
},
{
glyphname = equal.tnum;
lastChange = "2018-10-29 20:14:19 +0000";
layers = (
{
layerId = master01;
paths = (
{
closed = 1;
nodes = (
"889 783 LINE",
"167 783 LINE",
"167 706 LINE",
"889 706 LINE {name = hr00;}"
);
},
{
closed = 1;
nodes = (
"889 500 LINE",
"167 500 LINE",
"167 422 LINE",
"889 422 LINE"
);
}
);
width = 1056;
},
{
layerId = "FA6D65B5-4623-4FAC-A199-3F662257AC29";
paths = (
{
closed = 1;
nodes = (
"889 801 LINE",
"167 801 LINE",
"167 690 LINE",
"889 690 LINE {name = hr00;}"
);
},
{
closed = 1;
nodes = (
"889 517 LINE",
"167 517 LINE",
"167 407 LINE",
"889 407 LINE"
);
}
);
width = 1056;
}
);
userData = {
com.typemytype.robofont.mark = (
1,
0.6,
0.6,
1
);
};
},
{
glyphname = eth;
lastChange = "2018-10-29 20:09:01 +0000";
layers = (
{
layerId = master01;
paths = (
{
closed = 1;
nodes = (
"767 -18 OFFCURVE",
"952 190 OFFCURVE",
"952 491 CURVE SMOOTH",
"952 868 OFFCURVE",
"676 1230 OFFCURVE",
"280 1373 CURVE",
"248 1311 LINE",
"472 1204 OFFCURVE",
"699 929 OFFCURVE",
"730 725 CURVE",
"685 776 OFFCURVE",
"572 817 OFFCURVE",
"475 817 CURVE SMOOTH",
"259 817 OFFCURVE",
"84 630 OFFCURVE",
"84 400 CURVE SMOOTH",
"84 158 OFFCURVE",
"259 -18 OFFCURVE",
"500 -18 CURVE SMOOTH {name = hr00;}"
);
},
{
closed = 1;
nodes = (
"375 62 OFFCURVE",
"294 181 OFFCURVE",
"294 371 CURVE SMOOTH",
"294 577 OFFCURVE",
"394 716 OFFCURVE",
"540 716 CURVE SMOOTH",
"614 716 OFFCURVE",
"692 679 OFFCURVE",
"734 621 CURVE",
"746 568 OFFCURVE",
"755 488 OFFCURVE",
"755 428 CURVE SMOOTH",
"755 216 OFFCURVE",
"648 62 OFFCURVE",
"502 62 CURVE SMOOTH"
);
},
{
closed = 1;
nodes = (
"725 1353 LINE",
"273 1060 LINE",
"324 979 LINE",
"778 1272 LINE"
);
}
);
width = 1038;
},
{
layerId = "FA6D65B5-4623-4FAC-A199-3F662257AC29";
paths = (
{
closed = 1;
nodes = (
"766 -18 OFFCURVE",
"984 174 OFFCURVE",
"984 516 CURVE SMOOTH",
"984 912 OFFCURVE",
"737 1221 OFFCURVE",
"285 1373 CURVE",
"227 1285 LINE",
"489 1149 OFFCURVE",
"635 961 OFFCURVE",
"671 739 CURVE",
"628 797 OFFCURVE",
"549 831 OFFCURVE",
"452 831 CURVE SMOOTH",
"227 831 OFFCURVE",
"63 655 OFFCURVE",
"63 415 CURVE SMOOTH",
"63 158 OFFCURVE",
"252 -18 OFFCURVE",
"505 -18 CURVE SMOOTH {name = hr00;}"
);
},
{
closed = 1;
nodes = (
"415 88 OFFCURVE",
"352 202 OFFCURVE",
"352 385 CURVE SMOOTH",
"352 577 OFFCURVE",
"421 699 OFFCURVE",
"530 699 CURVE SMOOTH",
"590 699 OFFCURVE",
"644 664 OFFCURVE",
"674 604 CURVE",
"688 551 OFFCURVE",
"695 484 OFFCURVE",
"695 419 CURVE SMOOTH",
"695 215 OFFCURVE",
"627 88 OFFCURVE",
"517 88 CURVE SMOOTH"
);
},
{
closed = 1;
nodes = (
"773 1362 LINE",
"275 1012 LINE",
"350 903 LINE",
"850 1255 LINE"
);
}
);
width = 1068;
}
);
leftKerningGroup = o;
unicode = 00F0;
},
{
glyphname = exclam;
lastChange = "2018-10-29 20:09:01 +0000";
layers = (
{
layerId = master01;
paths = (
{
closed = 1;
nodes = (
"303 593 OFFCURVE",
"320 771 OFFCURVE",
"336 915 CURVE SMOOTH",
"356 1084 OFFCURVE",
"371 1211 OFFCURVE",
"371 1257 CURVE SMOOTH",
"371 1320 OFFCURVE",
"341 1373 OFFCURVE",
"266 1373 CURVE SMOOTH",
"197 1373 OFFCURVE",
"158 1320 OFFCURVE",
"158 1251 CURVE SMOOTH",
"158 1207 OFFCURVE",
"174 1081 OFFCURVE",
"194 908 CURVE SMOOTH",
"209 766 OFFCURVE",
"225 591 OFFCURVE",
"238 405 CURVE",
"292 405 LINE"
);
},
{
closed = 1;
nodes = (
"151 33 OFFCURVE",
"195 -18 OFFCURVE",
"264 -18 CURVE SMOOTH",
"336 -18 OFFCURVE",
"380 33 OFFCURVE",
"380 95 CURVE SMOOTH",
"380 162 OFFCURVE",
"336 211 OFFCURVE",
"264 211 CURVE SMOOTH",
"195 211 OFFCURVE",
"151 162 OFFCURVE",
"151 95 CURVE SMOOTH"
);
}
);
width = 530;
},
{
layerId = "FA6D65B5-4623-4FAC-A199-3F662257AC29";
paths = (
{
closed = 1;
nodes = (
"341 540 OFFCURVE",
"361 688 OFFCURVE",
"396 855 CURVE SMOOTH",
"435 1042 OFFCURVE",
"447 1132 OFFCURVE",
"447 1221 CURVE SMOOTH",
"447 1302 OFFCURVE",
"401 1373 OFFCURVE",
"289 1373 CURVE SMOOTH",
"188 1373 OFFCURVE",
"128 1306 OFFCURVE",
"128 1216 CURVE SMOOTH",
"128 1137 OFFCURVE",
"141 1042 OFFCURVE",
"178 861 CURVE SMOOTH",
"213 690 OFFCURVE",
"234 542 OFFCURVE",
"234 405 CURVE",
"341 405 LINE"
);
},
{
closed = 1;
nodes = (
"134 55 OFFCURVE",
"187 -18 OFFCURVE",
"285 -18 CURVE SMOOTH",
"389 -18 OFFCURVE",
"442 55 OFFCURVE",
"442 127 CURVE SMOOTH",
"442 204 OFFCURVE",
"382 273 OFFCURVE",
"285 273 CURVE SMOOTH",
"190 273 OFFCURVE",
"134 204 OFFCURVE",
"134 127 CURVE SMOOTH"
);
}
);
width = 576;
}
);
unicode = 0021;
},
{
glyphname = exclamdown;
lastChange = "2018-10-29 20:09:01 +0000";
layers = (
{
layerId = master01;
paths = (
{
closed = 1;
nodes = (
"202 340 OFFCURVE",
"185 162 OFFCURVE",
"169 18 CURVE SMOOTH",
"150 -151 OFFCURVE",
"134 -278 OFFCURVE",
"134 -324 CURVE SMOOTH",
"134 -387 OFFCURVE",
"164 -440 OFFCURVE",
"239 -440 CURVE SMOOTH",
"308 -440 OFFCURVE",
"347 -387 OFFCURVE",
"347 -319 CURVE SMOOTH",
"347 -275 OFFCURVE",
"331 -148 OFFCURVE",
"312 25 CURVE SMOOTH",
"296 167 OFFCURVE",
"280 341 OFFCURVE",
"268 528 CURVE",
"213 528 LINE"
);
},
{
closed = 1;
nodes = (
"354 899 OFFCURVE",
"310 950 OFFCURVE",
"241 950 CURVE SMOOTH",
"169 950 OFFCURVE",
"125 899 OFFCURVE",
"125 838 CURVE SMOOTH",
"125 771 OFFCURVE",
"169 722 OFFCURVE",
"241 722 CURVE SMOOTH",
"310 722 OFFCURVE",
"354 771 OFFCURVE",
"354 838 CURVE SMOOTH"
);
}
);
width = 480;
},
{
layerId = "FA6D65B5-4623-4FAC-A199-3F662257AC29";
paths = (
{
closed = 1;
nodes = (
"211 400 OFFCURVE",
"199 303 OFFCURVE",
"155 72 CURVE SMOOTH",
"121 -100 OFFCURVE",
"106 -216 OFFCURVE",
"106 -280 CURVE SMOOTH",
"106 -398 OFFCURVE",
"160 -458 OFFCURVE",
"269 -458 CURVE SMOOTH",
"375 -458 OFFCURVE",
"424 -401 OFFCURVE",
"424 -280 CURVE SMOOTH",
"424 -213 OFFCURVE",
"410 -116 OFFCURVE",
"373 77 CURVE SMOOTH",
"329 303 OFFCURVE",
"319 394 OFFCURVE",
"319 528 CURVE",
"211 528 LINE"
);
},
{
closed = 1;
nodes = (
"419 891 OFFCURVE",
"354 950 OFFCURVE",
"264 950 CURVE SMOOTH",
"174 950 OFFCURVE",
"111 891 OFFCURVE",
"111 806 CURVE SMOOTH",
"111 722 OFFCURVE",
"174 660 OFFCURVE",
"262 660 CURVE SMOOTH",
"352 660 OFFCURVE",
"419 722 OFFCURVE",
"419 806 CURVE SMOOTH"
);
}
);
width = 530;
}
);
unicode = 00A1;
},
{
glyphname = f;
lastChange = "2018-10-29 20:09:01 +0000";
layers = (
{
layerId = master01;
paths = (
{
closed = 1;
nodes = (
"363 1181 OFFCURVE",
"375 1267 OFFCURVE",
"400 1320 CURVE SMOOTH",
"428 1382 OFFCURVE",
"477 1406 OFFCURVE",
"530 1406 CURVE SMOOTH",
"586 1406 OFFCURVE",
"605 1378 OFFCURVE",
"618 1315 CURVE SMOOTH",
"627 1271 OFFCURVE",
"646 1225 OFFCURVE",
"704 1225 CURVE SMOOTH",
"755 1225 OFFCURVE",
"790 1260 OFFCURVE",
"790 1311 CURVE SMOOTH",
"790 1397 OFFCURVE",
"690 1461 OFFCURVE",
"563 1461 CURVE SMOOTH",
"415 1461 OFFCURVE",
"269 1375 OFFCURVE",
"222 1244 CURVE SMOOTH",
"199 1181 OFFCURVE",
"195 1096 OFFCURVE",
"195 908 CURVE SMOOTH",
"195 60 LINE",
"63 33 LINE",
"63 0 LINE",
"549 0 LINE",
"549 33 LINE",
"363 60 LINE",
"363 1030 LINE SMOOTH"
);
},
{
closed = 1;
nodes = (
"568 876 LINE",
"590 933 LINE",
"62 933 LINE",
"40 876 LINE"
);
}
);
width = 618;
},
{
layerId = "FA6D65B5-4623-4FAC-A199-3F662257AC29";
paths = (
{
closed = 1;
nodes = (
"477 1149 OFFCURVE",
"479 1236 OFFCURVE",
"498 1290 CURVE SMOOTH",
"517 1346 OFFCURVE",
"563 1371 OFFCURVE",
"614 1371 CURVE SMOOTH",
"669 1371 OFFCURVE",
"693 1346 OFFCURVE",
"711 1280 CURVE SMOOTH",
"729 1211 OFFCURVE",
"773 1172 OFFCURVE",
"834 1172 CURVE SMOOTH",
"906 1172 OFFCURVE",
"956 1220 OFFCURVE",
"956 1288 CURVE SMOOTH",
"956 1392 OFFCURVE",
"832 1461 OFFCURVE",
"648 1461 CURVE SMOOTH",
"454 1461 OFFCURVE",
"290 1373 OFFCURVE",
"234 1237 CURVE SMOOTH",
"209 1181 OFFCURVE",
"204 1119 OFFCURVE",
"204 908 CURVE SMOOTH",
"204 97 LINE",
"55 62 LINE",
"55 0 LINE",
"693 0 LINE",
"693 62 LINE",
"477 97 LINE",
"477 1030 LINE SMOOTH"
);
},
{
closed = 1;
nodes = (
"690 850 LINE",
"715 933 LINE",
"49 933 LINE",
"25 850 LINE"
);
}
);
width = 743;
}
);
leftKerningGroup = f;
rightKerningGroup = f;
unicode = 0066;
},
